<svg width="70" height="70" fill="none" xmlns="http://www.w3.org/2000/svg"><circle cx="35" cy="35" r="35" transform="matrix(-1 0 0 1 70 0)" fill="#84C551"/><g clip-path="url(#clip0_25_430)"><path d="M26.202 33.596c.082-.013.165-.02.248-.018h14.11l-.308-.143a2.862 2.862 0 01-.809-.573l-3.957-3.956a1.481 1.481 0 01-.207-1.896 1.431 1.431 0 012.146-.187l7.155 7.155a1.431 1.431 0 010 2.025l-7.155 7.155a1.431 1.431 0 01-2.146-.143 1.48 1.48 0 01.207-1.896l3.95-3.964c.21-.21.451-.386.715-.522l.43-.193H26.528a1.48 1.48 0 01-1.51-1.202 1.431 1.431 0 011.184-1.642z" fill="#fff"/></g><defs><clipPath id="clip0_25_430"><path fill="#fff" transform="matrix(-1 0 0 1 45 25)" d="M0 0h20v20H0z"/></clipPath></defs></svg>