<svg width="70" height="70" fill="none" xmlns="http://www.w3.org/2000/svg"><circle cx="35" cy="35" r="34.5" stroke="#84C551"/><g clip-path="url(#clip0_25_424)"><path d="M43.798 33.596a1.426 1.426 0 00-.248-.018H29.44l.308-.143a2.86 2.86 0 00.809-.573l3.957-3.956a1.481 1.481 0 00.207-1.896 1.431 1.431 0 00-2.146-.187l-7.155 7.155a1.431 1.431 0 000 2.025l7.155 7.155a1.431 1.431 0 002.146-.143 1.48 1.48 0 00-.207-1.896l-3.95-3.964a2.864 2.864 0 00-.715-.522l-.43-.193h14.053a1.48 1.48 0 001.51-1.202 1.431 1.431 0 00-1.184-1.642z" fill="#84BE51"/></g><defs><clipPath id="clip0_25_424"><path fill="#fff" transform="translate(25 25)" d="M0 0h20v20H0z"/></clipPath></defs></svg>