<svg width="20" height="20" fill="none" xmlns="http://www.w3.org/2000/svg"><g fill="#8C3213" clip-path="url(#clip0_111_6474)"><path d="M17.27 3.131l1.214-.102-.098-1.168-3.322.278.28 3.322 1.168-.098-.122-1.455A8.778 8.778 0 0118.827 10a8.77 8.77 0 01-2.585 6.242A8.77 8.77 0 0110 18.827a8.77 8.77 0 01-6.242-2.585A8.77 8.77 0 011.173 10a8.77 8.77 0 012.585-6.242A8.77 8.77 0 0110 1.173V0a9.934 9.934 0 00-7.071 2.929A9.934 9.934 0 000 10a9.935 9.935 0 002.929 7.071A9.935 9.935 0 0010 20a9.934 9.934 0 007.071-2.929A9.935 9.935 0 0020 10a9.945 9.945 0 00-2.73-6.869z"/><path d="M9.414 5.197V3.823a6.215 6.215 0 00-5.59 5.59h1.374v1.173H3.824a6.215 6.215 0 005.59 5.59v-1.373h1.173v1.373a6.215 6.215 0 005.59-5.59h-1.374V9.414h1.374a6.215 6.215 0 00-5.59-5.59v1.373H9.414zm1.173 5.076l-2.206 1.856-.755-.897 1.788-1.505V6.43h1.173v3.843z"/></g><defs><clipPath id="clip0_111_6474"><path fill="#fff" d="M0 0h20v20H0z"/></clipPath></defs></svg>