<svg width="25" height="23" fill="none" xmlns="http://www.w3.org/2000/svg"><g clip-path="url(#clip0_44_999)"><path d="M14.467 11.5l6.676-6.515a.937.937 0 000-1.348l-.585-.57a.981.981 0 00-.69-.278.98.98 0 00-.691.278L12.5 9.58 5.823 3.067a.98.98 0 00-.69-.278.98.98 0 00-.69.278l-.586.57a.937.937 0 000 1.348l6.677 6.515-6.677 6.515a.936.936 0 000 1.348l.585.57a.98.98 0 00.69.279.98.98 0 00.691-.279L12.5 13.42l6.677 6.514c.183.18.429.279.69.279a.981.981 0 00.69-.279l.586-.57a.935.935 0 000-1.348L14.467 11.5z" fill="#84BE51"/><path d="M1.4 0C.629 0 0 .613 0 1.367s.628 1.366 1.4 1.366c.773 0 1.401-.612 1.401-1.366C2.801.613 2.173 0 1.401 0zm22.144 0c-.773 0-1.4.613-1.4 1.367s.627 1.366 1.4 1.366c.772 0 1.4-.612 1.4-1.366 0-.754-.628-1.367-1.4-1.367zm0 20.212c-.773 0-1.4.613-1.4 1.367s.627 1.367 1.4 1.367c.772 0 1.4-.613 1.4-1.367s-.628-1.367-1.4-1.367zm-22.144 0c-.772 0-1.4.613-1.4 1.367s.628 1.367 1.4 1.367c.773 0 1.401-.613 1.401-1.367s-.628-1.367-1.4-1.367z" fill="#84C551"/></g><defs><clipPath id="clip0_44_999"><path fill="#fff" d="M0 0h25v23H0z"/></clipPath></defs></svg>