<svg width="16" height="16" fill="none" xmlns="http://www.w3.org/2000/svg"><g fill="#8C3213"><path d="M12.198 14.545l-2.194-3.869a.219.219 0 01.158-.338.218.218 0 01.22.123l2.194 3.87-.378.214zm-5.03-9.09a.221.221 0 01-.189-.111L4.786 1.478l.378-.218 2.193 3.869a.215.215 0 01-.081.29.238.238 0 01-.108.036z"/><path d="M10.054 15.197a3.83 3.83 0 01-.957-.105c-3.128-.864-7.235-8.11-6.371-11.235a5.236 5.236 0 012.14-2.676c.193-.113.388-.215.583-.308a.785.785 0 011.01.328l1.643 2.91a.783.783 0 01-.367 1.108c-.16.07-.317.142-.468.221-.66.332-1.039.631-1.126.893-.2.623.038 1.676.608 2.682.57 1.007 1.338 1.746 1.981 1.883.19.043.582 0 1.344-.504.146-.09.291-.189.434-.29a.785.785 0 011.137.252l1.647 2.91a.785.785 0 01-.236 1.038 8.05 8.05 0 01-.564.34 5.238 5.238 0 01-2.438.553zM5.772 1.233a.35.35 0 00-.14.032c-.18.085-.364.184-.544.291a4.83 4.83 0 00-1.943 2.415c-.367 1.33.276 3.741 1.637 6.141 1.362 2.4 3.102 4.192 4.431 4.562 1.041.2 2.12.052 3.07-.42a6.93 6.93 0 00.529-.32.35.35 0 00.101-.46l-1.646-2.908a.352.352 0 00-.379-.171.36.36 0 00-.139.06c-.148.105-.29.207-.448.291-.739.477-1.271.655-1.676.564-.77-.174-1.617-.957-2.263-2.094-.503-.873-.934-2.141-.643-3.031.125-.387.553-.754 1.341-1.164.157-.081.323-.157.489-.23a.36.36 0 00.212-.36.355.355 0 00-.046-.143l-1.647-2.91a.352.352 0 00-.296-.142v-.003z"/></g></svg>