<svg width="12" height="12" fill="none" xmlns="http://www.w3.org/2000/svg"><g clip-path="url(#clip0_84_4015)"><path d="M7.322 6l4.486-4.487A.653.653 0 0012 1.05a.651.651 0 00-.192-.464l-.393-.393A.65.65 0 0010.951 0a.65.65 0 00-.464.192L6 4.679 1.513.192A.65.65 0 001.05 0a.65.65 0 00-.464.192L.192.585a.657.657 0 000 .928L4.679 6 .192 10.487A.652.652 0 000 10.95c0 .175.068.34.192.464l.393.393A.65.65 0 001.05 12a.65.65 0 00.464-.192L6 7.321l4.487 4.487a.651.651 0 00.464.192.65.65 0 00.464-.192l.393-.393A.652.652 0 0012 10.95a.652.652 0 00-.192-.464L7.322 6z" fill="#000" fill-opacity=".5"/></g><defs><clipPath id="clip0_84_4015"><path fill="#fff" d="M0 0h12v12H0z"/></clipPath></defs></svg>