<svg width="16" height="16" fill="none" xmlns="http://www.w3.org/2000/svg"><g clip-path="url(#clip0_1_581)"><path d="M15.933 9.767l-2.696-4.493 2.42-.672a.469.469 0 10-.251-.903l-3.008.835-3.93 1.092V.469a.469.469 0 00-.937 0v5.417l-4.17 1.159-3.018.838a.469.469 0 00.251.903l1.881-.522-2.408 4.014a.469.469 0 00-.067.24A3.485 3.485 0 003.481 16a3.485 3.485 0 003.482-3.481.468.468 0 00-.067-.241L4.2 7.785l7.312-2.032-2.408 4.014a.469.469 0 00-.067.242 3.485 3.485 0 003.482 3.48c.93 0 1.804-.361 2.461-1.019A3.458 3.458 0 0016 10.01a.468.468 0 00-.067-.242zM3.481 15.063a2.548 2.548 0 01-2.5-2.075h5a2.548 2.548 0 01-2.5 2.075zm2.185-3.013h-4.37l2.186-3.64 2.185 3.641zm6.853-6.15l2.184 3.64h-4.369L12.52 5.9zm0 6.653a2.548 2.548 0 01-2.5-2.075h5a2.548 2.548 0 01-2.5 2.075z" fill="#8C3213"/></g><defs><clipPath id="clip0_1_581"><path fill="#fff" d="M0 0h16v16H0z"/></clipPath></defs></svg>