<svg width="24" height="24" fill="none" xmlns="http://www.w3.org/2000/svg"><g clip-path="url(#clip0_25_1137)" fill="#84BE51"><path d="M11.4 6a.6.6 0 100 1.2.6.6 0 000-1.2zM15 6a.6.6 0 100 1.2.6.6 0 000-1.2zM9.6 17.6h.8v.8h-.8v-.8zm6.4 0h.8v.8H16v-.8zm-6.4 5.2a.4.4 0 00.117.283l.8.8A.4.4 0 0010.8 24h4.8a.4.4 0 00.283-.117l.8-.8a.4.4 0 00.117-.283v-3.2a.4.4 0 00-.4-.4H10a.4.4 0 00-.4.4v3.2zm.8-2.8H16v2.634l-.566.566h-4.468l-.566-.566V20z"/><path d="M3.6 18h-.4a.4.4 0 00-.4.4v4c0 .22.18.4.4.4h.4V24h.8v-1.2h.8V24H6v-.027a3.197 3.197 0 002-1.063V24h.8v-7.2h8.8V24h.8v-2.8h2V24h.8v-2.8h.4a.4.4 0 00.4-.4v-1.6a.4.4 0 00-.4-.4h-.4v-3.6A3.204 3.204 0 0018 12h-2v-.351A4.005 4.005 0 0017.179 9.2h.021a1.597 1.597 0 001.527-1.149A2 2 0 0017.6 4.4h-.4V2.592c0-1.08-.328-1.825-1.003-2.275A1.881 1.881 0 0015.15 0h-.3c-.372 0-.736.11-1.046.317a1.085 1.085 0 01-1.207 0A1.881 1.881 0 0011.55 0h-.3c-.372 0-.736.11-1.046.317C9.527.767 9.2 1.51 9.2 2.592V4.4h-.4a1.98 1.98 0 00-1.2.41V2.33A2.316 2.316 0 018.283.682L7.717.117A3.11 3.11 0 006.8 2.332V5.6A1.2 1.2 0 016 6.726V2.332a2.316 2.316 0 01.683-1.65L6.117.118A3.11 3.11 0 005.2 2.332V6.8h-.8V2.332a2.316 2.316 0 01.683-1.65L4.517.118A3.11 3.11 0 003.6 2.332v4.394A1.2 1.2 0 012.8 5.6V2.332a2.316 2.316 0 01.683-1.65L2.917.118A3.11 3.11 0 002 2.332V5.6c.001.95.67 1.769 1.6 1.96V18zm.8-8.8h.8V18h-.8V9.2zm2.4 10.4H8v.8H6.8v-.8zM8 16.4v2.4H6.726A1.199 1.199 0 006 18.074V15.2a2.403 2.403 0 012-2.364V16.4zM4 22h-.4v-3.2h2c.22 0 .4.18.4.4v2.4a.4.4 0 01-.4.4H4zm2 1.164v-.438a1.2 1.2 0 00.8-1.126v-.4h1.167A2.404 2.404 0 016 23.164zM8.8 16v-3.2h.8V16h-.8zm1.72-3.2c.152.505.443.957.84 1.304L12.494 16H10.4v-3.2h.12zM13.2 14a2.002 2.002 0 01-2-2v-1.6a2 2 0 014 0V12a2.002 2.002 0 01-2 2zm.513.75l-.513.869-.52-.87a2.679 2.679 0 001.033.001zM21.2 20.4h-2.8v-.8h2.8v.8zm-.8-5.2v3.6h-2v-5.964a2.403 2.403 0 012 2.364zm-2.8-2.4V16h-.8v-3.2h.8zm-1.6 0V16h-2.098l1.107-1.867c.414-.35.717-.813.873-1.333H16zm-.003-2.452a2.798 2.798 0 00-5.594 0A3.202 3.202 0 0110 8.8V5.2h6.4v3.6a3.201 3.201 0 01-.403 1.548zM17.2 8.4V6.8a.8.8 0 010 1.6zm.4-3.2a1.2 1.2 0 011.063 1.756A1.6 1.6 0 0017.2 6v-.8h.4zM10.647.983c.179-.12.389-.183.603-.183h.3c.214 0 .424.063.603.183.634.424 1.46.424 2.094 0 .179-.12.389-.183.603-.183h.3c.214 0 .424.063.603.183.277.185.647.553.647 1.609V2.8H10v-.208c0-1.056.37-1.424.647-1.61zM10 3.6h6.4v.8H10v-.8zM8.8 5.2h.4V6a1.6 1.6 0 00-1.46.95A1.19 1.19 0 018.8 5.2zm-.4 2.4a.8.8 0 01.8-.8v1.6a.8.8 0 01-.8-.8zm-1.474-.514c.143.389.404.724.745.96.197.681.82 1.152 1.529 1.154h.021a4.004 4.004 0 001.179 2.449V12h-2c-.92 0-1.795.398-2.4 1.09V7.56c.345-.073.665-.237.926-.474zM5.2 8.4h-.8v-.8h.8v.8z"/><path d="M12.684 9.32l-.568.56a1.393 1.393 0 002.168 0l-.568-.56a.615.615 0 01-1.031 0z"/></g><defs><clipPath id="clip0_25_1137"><path fill="#fff" d="M0 0h24v24H0z"/></clipPath></defs></svg>