<svg width="24" height="24" fill="none" xmlns="http://www.w3.org/2000/svg"><g clip-path="url(#clip0_25_1128)"><path d="M18.645 21.118h-.1a.428.428 0 10.856 0h0a1.535 1.535 0 00-1.533-1.533h0a.428.428 0 100 .856v-.1m.777.777h-.1a.678.678 0 00-.677-.677v-.1m.777.777a.778.778 0 00-.777-.777m.777.777a.328.328 0 10.656 0 1.434 1.434 0 00-1.433-1.433.328.328 0 100 .656m-1.91-1.543v.1a.428.428 0 100-.857h0l-.792 1.549h.1s0 0 0 0a.692.692 0 01.692-.692v-.1zm0 0a.328.328 0 000-.656v.656zm-3.824-6.771v0a.428.428 0 00-.428-.429h0a2.689 2.689 0 00-1.838.729v-.308a2.689 2.689 0 00-.126-3.671.428.428 0 00-.605 0h0a2.695 2.695 0 00-.126 3.671v.308a2.687 2.687 0 00-1.838-.729h0a.428.428 0 00-.428.428h0a2.697 2.697 0 002.266 2.658v.665a.428.428 0 00.857 0v-.665a2.697 2.697 0 002.266-2.657zM9.208 8.419a2.595 2.595 0 00-.097 3.562l.097-3.562zm-.004 1.835c0-.317.082-.627.236-.901a1.841 1.841 0 010 1.802 1.843 1.843 0 01-.236-.901zm1.202 2.74c.224-.224.5-.386.803-.471a1.843 1.843 0 01-1.273 1.274c.085-.303.247-.58.47-.803zm-1.933 0c.223.224.385.5.47.803a1.843 1.843 0 01-1.273-1.274c.302.086.579.248.803.471z" fill="#84BE51" stroke="#84BE51" stroke-width=".2"/><path d="M4.292 12h0A5.148 5.148 0 109.44 6.853h0A5.153 5.153 0 004.291 12zM9.44 7.709a4.291 4.291 0 110 8.582 4.291 4.291 0 010-8.582z" fill="#84BE51" stroke="#84BE51" stroke-width=".2"/><mask id="a" maskUnits="userSpaceOnUse" x="-.146" y="-.146" width="24" height="24" fill="#000"><path fill="#fff" d="M-.146-.146h24v24h-24z"/><path d="M21.874 20.981a2.117 2.117 0 00-1.594-1.884v-.05a2.105 2.105 0 00-1.94-2.095 2.076 2.076 0 00-.062-.216c.205-1.545.314-3.1.327-4.659v-.154c0-3.942-.927-8.406-1.016-8.828V1.183a.328.328 0 00-.328-.329H2.199a.328.328 0 00-.328.329v1.912c-.09.423-1.017 4.886-1.017 8.828v.154c0 3.941.927 8.405 1.017 8.828v1.912a.328.328 0 00.328.328h20.619a.33.33 0 00.328-.328 1.948 1.948 0 00-1.272-1.836zM2.527 1.511h14.405v1.291H2.527V1.511zM1.511 11.923c0-3.503.747-7.437.956-8.465h14.526c.209 1.028.957 4.962.957 8.465v.154a35.186 35.186 0 01-.228 3.769 2.274 2.274 0 00-3.806 1.106 2.105 2.105 0 00-1.939 2.096v.05a2.12 2.12 0 00-1.51 1.443h-8c-.21-1.027-.957-4.961-.957-8.464v-.154zm1.016 9.275h7.438a1.944 1.944 0 00-.826 1.291H2.527v-1.291zm10.882 1.291a.886.886 0 01.822-.558.328.328 0 000-.656 1.544 1.544 0 00-1.507 1.214H9.81a1.296 1.296 0 01.973-.943.328.328 0 00.256-.336l-.003-.036-.002-.036a1.452 1.452 0 011.329-1.44.329.329 0 00.296-.387 1.428 1.428 0 01.399-1.285 1.448 1.448 0 011.022-.424l.066.003.028.002a.328.328 0 00.347-.296 1.615 1.615 0 013.214 0 .328.328 0 00.348.296l.025-.001a1.441 1.441 0 011.492 1.706.327.327 0 00.296.386 1.453 1.453 0 011.329 1.44c0 .012 0 .023-.002.035l-.003.038a.328.328 0 00.255.336 1.297 1.297 0 01.974.943H13.41z"/></mask><path d="M21.874 20.981a2.117 2.117 0 00-1.594-1.884v-.05a2.105 2.105 0 00-1.94-2.095 2.076 2.076 0 00-.062-.216c.205-1.545.314-3.1.327-4.659v-.154c0-3.942-.927-8.406-1.016-8.828V1.183a.328.328 0 00-.328-.329H2.199a.328.328 0 00-.328.329v1.912c-.09.423-1.017 4.886-1.017 8.828v.154c0 3.941.927 8.405 1.017 8.828v1.912a.328.328 0 00.328.328h20.619a.33.33 0 00.328-.328 1.948 1.948 0 00-1.272-1.836zM2.527 1.511h14.405v1.291H2.527V1.511zM1.511 11.923c0-3.503.747-7.437.956-8.465h14.526c.209 1.028.957 4.962.957 8.465v.154a35.186 35.186 0 01-.228 3.769 2.274 2.274 0 00-3.806 1.106 2.105 2.105 0 00-1.939 2.096v.05a2.12 2.12 0 00-1.51 1.443h-8c-.21-1.027-.957-4.961-.957-8.464v-.154zm1.016 9.275h7.438a1.944 1.944 0 00-.826 1.291H2.527v-1.291zm10.882 1.291a.886.886 0 01.822-.558.328.328 0 000-.656 1.544 1.544 0 00-1.507 1.214H9.81a1.296 1.296 0 01.973-.943.328.328 0 00.256-.336l-.003-.036-.002-.036a1.452 1.452 0 011.329-1.44.329.329 0 00.296-.387 1.428 1.428 0 01.399-1.285 1.448 1.448 0 011.022-.424l.066.003.028.002a.328.328 0 00.347-.296 1.615 1.615 0 013.214 0 .328.328 0 00.348.296l.025-.001a1.441 1.441 0 011.492 1.706.327.327 0 00.296.386 1.453 1.453 0 011.329 1.44c0 .012 0 .023-.002.035l-.003.038a.328.328 0 00.255.336 1.297 1.297 0 01.974.943H13.41z" fill="#84BE51"/><path d="M21.874 20.981a2.117 2.117 0 00-1.594-1.884v-.05a2.105 2.105 0 00-1.94-2.095 2.076 2.076 0 00-.062-.216c.205-1.545.314-3.1.327-4.659v-.154c0-3.942-.927-8.406-1.016-8.828V1.183a.328.328 0 00-.328-.329H2.199a.328.328 0 00-.328.329v1.912c-.09.423-1.017 4.886-1.017 8.828v.154c0 3.941.927 8.405 1.017 8.828v1.912a.328.328 0 00.328.328h20.619a.33.33 0 00.328-.328 1.948 1.948 0 00-1.272-1.836zM2.527 1.511h14.405v1.291H2.527V1.511zM1.511 11.923c0-3.503.747-7.437.956-8.465h14.526c.209 1.028.957 4.962.957 8.465v.154a35.186 35.186 0 01-.228 3.769 2.274 2.274 0 00-3.806 1.106 2.105 2.105 0 00-1.939 2.096v.05a2.12 2.12 0 00-1.51 1.443h-8c-.21-1.027-.957-4.961-.957-8.464v-.154zm1.016 9.275h7.438a1.944 1.944 0 00-.826 1.291H2.527v-1.291zm10.882 1.291a.886.886 0 01.822-.558.328.328 0 000-.656 1.544 1.544 0 00-1.507 1.214H9.81a1.296 1.296 0 01.973-.943.328.328 0 00.256-.336l-.003-.036-.002-.036a1.452 1.452 0 011.329-1.44.329.329 0 00.296-.387 1.428 1.428 0 01.399-1.285 1.448 1.448 0 011.022-.424l.066.003.028.002a.328.328 0 00.347-.296 1.615 1.615 0 013.214 0 .328.328 0 00.348.296l.025-.001a1.441 1.441 0 011.492 1.706.327.327 0 00.296.386 1.453 1.453 0 011.329 1.44c0 .012 0 .023-.002.035l-.003.038a.328.328 0 00.255.336 1.297 1.297 0 01.974.943H13.41z" stroke="#84BE51" stroke-width=".4" mask="url(#a)"/><path d="M3.834 5.144h2.729a.428.428 0 100-.856H3.834a.428.428 0 000 .856zm4.045 0h.746a.428.428 0 100-.856h-.746a.428.428 0 100 .856z" fill="#84BE51" stroke="#84BE51" stroke-width=".2"/></g><defs><clipPath id="clip0_25_1128"><path fill="#fff" d="M0 0h24v24H0z"/></clipPath></defs></svg>