<svg width="65" height="132" fill="none" xmlns="http://www.w3.org/2000/svg"><rect width="65" height="188" rx="30" fill="#84C551"/><g clip-path="url(#clip0_44_593)"><path d="M30.596 48.798a1.426 1.426 0 01-.018-.248V34.44l-.143.308a2.86 2.86 0 01-.573.809l-3.956 3.957a1.481 1.481 0 01-1.896.207 1.431 1.431 0 01-.187-2.146l7.155-7.155a1.431 1.431 0 012.025 0l7.155 7.155a1.431 1.431 0 01-.143 2.146 1.48 1.48 0 01-1.896-.207l-3.964-3.95a2.864 2.864 0 01-.522-.715l-.193-.43v14.053a1.48 1.48 0 01-1.202 1.51 1.431 1.431 0 01-1.642-1.184z" fill="#fff"/></g><defs><clipPath id="clip0_44_593"><path fill="#fff" transform="matrix(0 1 1 0 22 30)" d="M0 0h20v20H0z"/></clipPath></defs></svg>