<svg width="24" height="24" fill="none" xmlns="http://www.w3.org/2000/svg"><g clip-path="url(#clip0_89_2932)" fill="#84BE51"><path d="M19 20.35V17a5.5 5.5 0 003.035-9.69 4.5 4.5 0 10-7.07 0A5.5 5.5 0 0018 17v3a19.09 19.09 0 00-12 0v-3a5.5 5.5 0 003.035-9.69A4.5 4.5 0 101 4.5a4.465 4.465 0 00.965 2.785A5.5 5.5 0 005 17v3.35a19.307 19.307 0 00-4.81 2.755A.5.5 0 00.5 24h23a.5.5 0 00.31-.895A19.306 19.306 0 0019 20.35zm-5-8.85a4.5 4.5 0 012-3.73.5.5 0 00.05-.77 3.5 3.5 0 114.9 0 .5.5 0 00.05.77 4.499 4.499 0 11-7 3.73zm-13 0a4.5 4.5 0 012-3.73.5.5 0 00.05-.77 3.5 3.5 0 114.9 0 .5.5 0 00.05.77 4.5 4.5 0 11-7 3.73zM2.055 23a18.105 18.105 0 0119.895 0H2.055z"/><path d="M5.145 7.355a.5.5 0 00.71 0l1.5-1.5a.502.502 0 10-.71-.71L5.5 6.295l-1.145-1.15a.502.502 0 10-.71.71l1.5 1.5zm0 3.5a.501.501 0 00.71 0l1.5-1.5a.502.502 0 10-.71-.71L5.5 9.795l-1.145-1.15a.502.502 0 10-.71.71l1.5 1.5zm.71 3.5l1.5-1.5a.502.502 0 00-.71-.71L5.5 13.295l-1.145-1.15a.504.504 0 00-.819.163.502.502 0 00.11.547l1.5 1.5a.501.501 0 00.71 0zm12.29-7a.5.5 0 00.71 0l1.5-1.5a.502.502 0 00-.71-.71L18.5 6.295l-1.145-1.15a.502.502 0 00-.71.71l1.5 1.5zm0 3.5a.502.502 0 00.71 0l1.5-1.5a.502.502 0 00-.71-.71L18.5 9.795l-1.145-1.15a.502.502 0 00-.71.71l1.5 1.5zm.71 3.5l1.5-1.5a.502.502 0 00-.71-.71l-1.145 1.15-1.145-1.15a.502.502 0 10-.71.71l1.5 1.5a.502.502 0 00.71 0z"/></g><defs><clipPath id="clip0_89_2932"><path fill="#fff" d="M0 0h24v24H0z"/></clipPath></defs></svg>