<svg width="19" height="16" fill="none" xmlns="http://www.w3.org/2000/svg"><path d="M8.8 1.848A4.74 4.74 0 005.41.428a4.765 4.765 0 00-4.76 4.76c0 1.546.578 3.144 1.702 4.745h0a.384.384 0 00.536.094s0 0 0 0L2.8 9.904a.234.234 0 00.058-.327c-1.056-1.502-1.59-2.98-1.59-4.39a4.145 4.145 0 014.14-4.14 4.13 4.13 0 013.21 1.524.234.234 0 00.362 0 4.127 4.127 0 013.21-1.524 4.146 4.146 0 014.14 4.141L8.8 1.848zm0 0a4.741 4.741 0 013.39-1.42 4.765 4.765 0 014.76 4.76c0 1.333-.431 2.708-1.27 4.085-.664 1.09-1.585 2.187-2.736 3.26a24.71 24.71 0 01-3.952 2.987h0a.383.383 0 01-.38.003M8.8 1.848l7.381 3.34c0 1.341-.503 2.63-1.228 3.79-.724 1.16-1.665 2.183-2.526 2.987a24.376 24.376 0 01-3.628 2.774 20.125 20.125 0 00-.18-.104 14.472 14.472 0 01-4.288-3.617.384.384 0 00-.54-.056h0a.384.384 0 00-.057.54m0 0s0 0 0 0l.116-.094-.116.094zm0 0a16.174 16.174 0 003.296 3.076c.463.323.855.557 1.134.712a8.91 8.91 0 00.419.219l.024.011a.11.11 0 00.004.003m0 0h.001l-.005-.003.075-.13-.075.13c.002 0 .003.002.004.003zm3.58-14.326c2.2 0 3.99 1.79 3.99 3.991L9.098 2.666a3.977 3.977 0 013.092-1.47z" fill="#8C3213" stroke="#8C3213" stroke-width=".3"/></svg>