<svg width="68" height="68" fill="none" xmlns="http://www.w3.org/2000/svg"><g filter="url(#filter0_d_25_1188)"><circle cx="34" cy="29" r="19.5" stroke="#8C3213" shape-rendering="crispEdges"/></g><path fill="#fff" d="M25 21h18.4v16H25z"/><path d="M33.8 22.848a4.74 4.74 0 00-3.39-1.42 4.765 4.765 0 00-4.76 4.76c0 1.547.578 3.144 1.702 4.745h0a.384.384 0 00.536.094s0 0 0 0l-.087-.123a.234.234 0 00.058-.327c-1.056-1.502-1.59-2.98-1.59-4.39a4.145 4.145 0 014.14-4.14c1.249 0 2.419.555 3.21 1.524a.234.234 0 00.362 0 4.127 4.127 0 013.21-1.524 4.146 4.146 0 014.14 4.141l-7.531-3.34zm0 0a4.74 4.74 0 013.39-1.42 4.765 4.765 0 014.76 4.76c0 1.333-.431 2.707-1.27 4.085-.664 1.09-1.585 2.187-2.736 3.26a24.708 24.708 0 01-3.952 2.987h0a.383.383 0 01-.38.002m.188-13.674l7.381 3.34c0 1.341-.503 2.63-1.228 3.79-.725 1.16-1.665 2.183-2.526 2.987a24.376 24.376 0 01-3.628 2.774 21.682 21.682 0 00-.18-.104 14.471 14.471 0 01-4.288-3.617.385.385 0 00-.54-.056h0a.384.384 0 00-.057.54m0 0s0 0 0 0l.116-.094-.116.094zm0 0a16.174 16.174 0 003.296 3.076c.463.323.855.557 1.134.712a8.9 8.9 0 00.419.219l.024.011.004.002m0 0h.001s-.003 0-.005-.002l.075-.13-.075.13.004.002zm3.58-14.325c2.2 0 3.99 1.79 3.99 3.991l-7.083-2.522a3.977 3.977 0 013.092-1.47z" fill="#8C3213" stroke="#8C3213" stroke-width=".3"/><defs><filter id="filter0_d_25_1188" x="0" y="0" width="68" height="68" filterUnits="userSpaceOnUse" color-interpolation-filters="sRGB"><feFlood flood-opacity="0" result="BackgroundImageFix"/><feColorMatrix in="SourceAlpha" values="0 0 0 0 0 0 0 0 0 0 0 0 0 0 0 0 0 0 127 0" result="hardAlpha"/><feOffset dy="5"/><feGaussianBlur stdDeviation="7"/><feComposite in2="hardAlpha" operator="out"/><feColorMatrix values="0 0 0 0 0.54902 0 0 0 0 0.196078 0 0 0 0 0.0745098 0 0 0 0.3 0"/><feBlend in2="BackgroundImageFix" result="effect1_dropShadow_25_1188"/><feBlend in="SourceGraphic" in2="effect1_dropShadow_25_1188" result="shape"/></filter></defs></svg>