<svg width="19" height="16" fill="none" xmlns="http://www.w3.org/2000/svg"><path d="M8.8 1.848a4.741 4.741 0 013.39-1.42 4.765 4.765 0 014.76 4.76c0 1.333-.431 2.708-1.27 4.085-.664 1.09-1.585 2.187-2.736 3.26a24.71 24.71 0 01-3.952 2.987h0a.383.383 0 01-.38.003M8.8 1.848L8.682 15.39M8.8 1.848A4.74 4.74 0 005.41.428a4.765 4.765 0 00-4.76 4.76c0 1.546.578 3.144 1.702 4.745h0a.384.384 0 00.536.094L8.8 1.847zm-.19 13.675l-.004-.003m.004.003h.001l-.005-.003m.004.003l-.004-.003-.024-.011a8.91 8.91 0 01-.419-.219 13.236 13.236 0 01-1.134-.712 16.174 16.174 0 01-3.296-3.076m4.873 4.018s0 0 0 0l.075-.13m-.075.13l.075-.13m-4.948-3.888l.116-.094m-.116.094s0 0 0 0l.116-.094m-.116.094a.384.384 0 01.057-.54h0a.384.384 0 01.54.056l-.116.095.116-.095a14.472 14.472 0 004.287 3.617l.18.104c.534-.33 2.09-1.338 3.629-2.774.861-.804 1.802-1.827 2.526-2.986.725-1.16 1.228-2.45 1.228-3.791l-12.33 6.22m0 0c2.201 2.717 4.591 3.867 4.815 3.974l.016.008m.416-12.724a3.977 3.977 0 013.092-1.47c2.2 0 3.991 1.791 3.991 3.992L9.098 2.666z" fill="#fff" stroke="#fff" stroke-width=".3"/></svg>