<svg width="42" height="42" fill="none" xmlns="http://www.w3.org/2000/svg"><circle cx="21" cy="21" r="20.5" stroke="#8C3213"/><path d="M20.8 14.848a4.741 4.741 0 00-3.39-1.42 4.765 4.765 0 00-4.76 4.76c0 1.547.579 3.144 1.703 4.745h0a.384.384 0 00.536.094s0 0 0 0l-.087-.123a.234.234 0 00.058-.327c-1.055-1.502-1.59-2.98-1.59-4.39a4.145 4.145 0 014.14-4.14 4.13 4.13 0 013.21 1.524.234.234 0 00.362 0 4.128 4.128 0 013.21-1.524 4.146 4.146 0 014.14 4.141l-7.531-3.34zm0 0a4.74 4.74 0 013.391-1.42 4.765 4.765 0 014.76 4.76c0 1.333-.431 2.707-1.27 4.085-.664 1.09-1.585 2.187-2.736 3.26a24.708 24.708 0 01-3.952 2.987h0a.383.383 0 01-.38.003m.188-13.675l7.381 3.34c0 1.341-.503 2.63-1.228 3.79-.724 1.16-1.665 2.183-2.526 2.987A24.376 24.376 0 0120.8 27.74a20.291 20.291 0 00-.181-.104c-.796-.457-2.534-1.453-4.287-3.617a.384.384 0 00-.54-.056h0a.385.385 0 00-.057.54m0 0s0 0 0 0l.116-.094-.116.094zm0 0a16.177 16.177 0 003.296 3.076c.463.323.855.557 1.134.712a8.912 8.912 0 00.419.219l.024.011a.113.113 0 00.004.003m0 0h.001l-.005-.003.075-.13-.075.13c.002 0 .003.002.004.003zm3.58-14.326c2.2 0 3.99 1.79 3.99 3.991l-7.083-2.522a3.978 3.978 0 013.092-1.47z" fill="#8C3213" stroke="#8C3213" stroke-width=".3"/></svg>