<svg width="68" height="68" fill="none" xmlns="http://www.w3.org/2000/svg"><g filter="url(#filter0_d_25_1188)"><circle cx="34" cy="29" r="20" fill="#8C3213"/><circle cx="34" cy="29" r="19.5" stroke="#8C3213"/></g><path d="M33.8 22.848a4.74 4.74 0 013.39-1.42 4.765 4.765 0 014.76 4.76c0 1.333-.431 2.707-1.27 4.085-.664 1.09-1.585 2.187-2.736 3.26a24.708 24.708 0 01-3.952 2.987h0a.383.383 0 01-.38.002m.188-13.674l-.118 13.542m.118-13.543a4.74 4.74 0 00-3.39-1.419 4.765 4.765 0 00-4.76 4.76c0 1.547.578 3.144 1.702 4.745h0a.384.384 0 00.536.094l5.912-8.18zm-.189 13.675l-.004-.002m.004.002l.001.001-.005-.003m.004.002l-.004-.002-.024-.011a8.9 8.9 0 01-.42-.219 13.237 13.237 0 01-1.133-.712 16.174 16.174 0 01-3.296-3.076m4.873 4.018s0 0 0 0l.075-.13m-.075.13l.075-.13m-4.948-3.888l.116-.094m-.116.094s0 0 0 0l.116-.094m-.116.094a.384.384 0 01.056-.54h0a.385.385 0 01.541.056l-.116.095.116-.095a14.47 14.47 0 004.287 3.617l.18.104a24.39 24.39 0 003.629-2.774c.861-.804 1.801-1.827 2.526-2.987.725-1.16 1.228-2.449 1.228-3.79l-12.33 6.22m0 0c2.201 2.717 4.591 3.867 4.815 3.974l.016.008m.416-12.724a3.977 3.977 0 013.092-1.47c2.2 0 3.991 1.791 3.991 3.992l-7.083-2.522z" fill="#fff" stroke="#fff" stroke-width=".3"/><defs><filter id="filter0_d_25_1188" x="0" y="0" width="68" height="68" filterUnits="userSpaceOnUse" color-interpolation-filters="sRGB"><feFlood flood-opacity="0" result="BackgroundImageFix"/><feColorMatrix in="SourceAlpha" values="0 0 0 0 0 0 0 0 0 0 0 0 0 0 0 0 0 0 127 0" result="hardAlpha"/><feOffset dy="5"/><feGaussianBlur stdDeviation="7"/><feComposite in2="hardAlpha" operator="out"/><feColorMatrix values="0 0 0 0 0.54902 0 0 0 0 0.196078 0 0 0 0 0.0745098 0 0 0 0.3 0"/><feBlend in2="BackgroundImageFix" result="effect1_dropShadow_25_1188"/><feBlend in="SourceGraphic" in2="effect1_dropShadow_25_1188" result="shape"/></filter></defs></svg>