<svg width="40" height="40" fill="none" xmlns="http://www.w3.org/2000/svg"><path d="M12.875 17.656c0-3.927 3.197-7.156 7.117-7.156s7.117 3.23 7.117 7.156c0 1.553-.49 3.025-1.417 4.263l-5.7 7.27-5.693-7.262a7.057 7.057 0 01-1.424-4.27zm2.516 0a4.607 4.607 0 004.601 4.602 4.607 4.607 0 004.602-4.602 4.607 4.607 0 00-4.602-4.601 4.607 4.607 0 00-4.601 4.601z" stroke="#8C3213"/><path d="M17.563 17.656c0-1.339 1.09-2.43 2.43-2.43a2.434 2.434 0 012.429 2.43c0 1.34-1.09 2.43-2.43 2.43a2.433 2.433 0 01-2.43-2.43z" stroke="#8C3213"/><circle cx="20" cy="20" r="19.5" stroke="#8C3213"/></svg>