<svg width="20" height="20" fill="none" xmlns="http://www.w3.org/2000/svg"><path fill-rule="evenodd" clip-rule="evenodd" d="M3.333 13.333V15a3.333 3.333 0 003.333 3.333H15A3.332 3.332 0 0018.333 15V5A3.333 3.333 0 0015 1.667H6.666A3.333 3.333 0 003.333 5v1.667a.834.834 0 001.667 0V5c0-.92.747-1.667 1.667-1.667H15c.92 0 1.666.747 1.666 1.667v10c0 .92-.745 1.667-1.666 1.667H6.666C5.746 16.667 5 15.92 5 15v-1.667a.834.834 0 00-1.667 0zm6.322-4.166L8.577 8.09a.834.834 0 011.178-1.18l2.5 2.5a.833.833 0 010 1.18l-2.5 2.5a.834.834 0 01-1.178-1.18l1.078-1.077H2.5a.834.834 0 010-1.666h7.155z" fill="#84BE51"/></svg>