<svg width="158" height="71" fill="none" xmlns="http://www.w3.org/2000/svg"><g clip-path="url(#clip0_25_1215)"><path d="M0 45.173V3.258A3.17 3.17 0 01.932.938 3.061 3.061 0 013.174 0h18.694c9.678 0 16.718 1.947 21.118 5.84 4.4 3.893 6.602 10.005 6.607 18.337 0 8.313-2.202 14.41-6.607 18.295-4.405 3.883-11.444 5.825-21.118 5.825H3.174a3.113 3.113 0 01-2.242-.895A2.899 2.899 0 010 45.172zm12.612-6.432h8.891c5.998 0 10.078-1.1 12.241-3.301 2.163-2.2 3.244-5.962 3.244-11.284 0-5.332-1.081-9.094-3.244-11.285-2.163-2.19-6.243-3.296-12.24-3.315h-8.892v29.185z" fill="#1F1B1C"/><path d="M67.614 36.618v.035h5.676c.61 0 1.205 0 1.793-.035h-7.469z" fill="#84C551"/><path d="M109.206 6.362V3.195a3.103 3.103 0 011.943-2.98c.391-.156.81-.229 1.231-.215h42.439a3.052 3.052 0 012.277.903 3.09 3.09 0 01.897 2.292v3.167a3.074 3.074 0 01-.897 2.27 3.13 3.13 0 01-2.277.89h-14.917v35.65a2.945 2.945 0 01-.918 2.2 3.051 3.051 0 01-2.221.896h-6.306a3.053 3.053 0 01-2.228-.895 2.945 2.945 0 01-.918-2.2V9.543h-14.917a3.098 3.098 0 01-2.27-.89 3.075 3.075 0 01-.918-2.292z" fill="#1F1B1C"/><path d="M.939 67.728v-9.056a.71.71 0 01.203-.508.66.66 0 01.484-.197H3.04a.65.65 0 01.476.197.705.705 0 01.204.508v7.666h6.306a.636.636 0 01.483.205c.125.13.195.305.196.486v.706a.707.707 0 01-.196.48.657.657 0 01-.483.197H1.64a.698.698 0 01-.484-.19.613.613 0 01-.217-.494zm11.421-.248a4.758 4.758 0 010-6.128 5.058 5.058 0 016.208 0 3.88 3.88 0 011.114 2.99v.416a.46.46 0 01-.126.325.433.433 0 01-.323.127H13.79c.005.481.187.944.512 1.297.4.31.9.455 1.401.41a1.614 1.614 0 001.31-.438 1.136 1.136 0 01.876-.444h1.08a.433.433 0 01.448.451c0 1.41-1.318 2.116-3.952 2.116a4.341 4.341 0 01-3.104-1.121zm1.401-3.836h3.363c-.049-1.142-.602-1.714-1.674-1.714s-1.605.572-1.668 1.714h-.02zm11 3.174l.995-.092h.267a.438.438 0 01.418.273.431.431 0 01.03.171v.783a.388.388 0 01-.126.282.538.538 0 01-.322.155c-.637.111-1.282.16-1.927.149-2.065 0-3.1-1.091-3.104-3.273v-6.855a.46.46 0 01.126-.325.42.42 0 01.315-.12h1.619a.416.416 0 01.315.12.46.46 0 01.126.325v2.433h2.011c.117-.003.23.04.315.12a.439.439 0 01.126.324v.86a.44.44 0 01-.126.325.421.421 0 01-.315.12h-2.01v2.666c-.029.41.093.817.343 1.143a1.15 1.15 0 00.924.416zm4.492-8.851c.616 0 .931.225.931.705a1.193 1.193 0 01-.105.444l-.861 2.194c-.096.233-.25.437-.449.592a1.08 1.08 0 01-.7.24h-.288c-.301 0-.49-.064-.574-.19a.759.759 0 01-.12-.396 3.613 3.613 0 010-.395l.428-2.341a.966.966 0 01.4-.593 1.18 1.18 0 01.7-.24l.638-.02zm1.961 4.661c0-1.575 1.257-2.36 3.77-2.355 2.634 0 3.959.705 3.959 2.116a.44.44 0 01-.272.412.43.43 0 01-.17.032h-1.079a1.08 1.08 0 01-.876-.437 1.72 1.72 0 00-1.4-.438c-.935 0-1.402.236-1.402.706 0 .218.189.395.56.543.455.17.924.298 1.402.38.541.112 1.077.25 1.604.417a3.414 3.414 0 011.401.81 1.91 1.91 0 01.561 1.411c0 1.566-1.326 2.349-3.98 2.349-2.653 0-3.977-.705-3.973-2.116a.439.439 0 01.449-.451h1.079a1.088 1.088 0 01.876.444 1.75 1.75 0 001.401.437c1.1 0 1.654-.233 1.654-.705 0-.219-.19-.402-.56-.543a9.067 9.067 0 00-1.402-.395 18.032 18.032 0 01-1.612-.416 3.283 3.283 0 01-1.359-.811 1.874 1.874 0 01-.63-1.39zm15.044 4.162a3.714 3.714 0 01-1.009-2.765 3.454 3.454 0 011.15-2.758 4.882 4.882 0 013.292-.994c.733.005 1.463.086 2.18.24a5.657 5.657 0 011.695.578v6.735a2.781 2.781 0 01-1.058 2.398 4.999 4.999 0 01-2.985.776 7.176 7.176 0 01-2.957-.487 1.642 1.642 0 01-.77-.63 1.658 1.658 0 01-.267-.964.44.44 0 01.126-.324.441.441 0 01.323-.127h1.079a1.03 1.03 0 01.834.38 1.714 1.714 0 001.4.502c.493.053.988-.067 1.402-.339a1.532 1.532 0 00.372-1.185v-.338a8.699 8.699 0 01-2.159.296 3.6 3.6 0 01-2.648-.995zm3.286-4.754c-1.142 0-1.716.656-1.716 1.989 0 1.333.56 1.996 1.674 1.996a6.371 6.371 0 001.563-.219v-3.604a5.57 5.57 0 00-1.52-.162zm11.281.233l-1.114-.043a2.453 2.453 0 00-1.864 1.08v4.647a.431.431 0 01-.126.318.42.42 0 01-.316.12h-1.618a.397.397 0 01-.315-.12.43.43 0 01-.127-.318V60.9a.44.44 0 01.271-.42.423.423 0 01.17-.03h1.62a.417.417 0 01.315.126.436.436 0 01.126.324v.459c.43-.328.9-.596 1.401-.797a5.161 5.161 0 011.787-.261.47.47 0 01.322.127.445.445 0 01.126.317v1.108a.412.412 0 01-.126.317.44.44 0 01-.322.127l-.21-.028zm2.389 5.226a4.78 4.78 0 010-6.171 5.525 5.525 0 016.481 0 4.78 4.78 0 010 6.17 5.58 5.58 0 01-6.481 0zm1.829-4.98a4.19 4.19 0 000 3.774 1.976 1.976 0 002.802 0 4.19 4.19 0 000-3.773 2.004 2.004 0 00-2.802 0zm6.361-1.452a1.418 1.418 0 01-.07-.318c0-.211.127-.317.365-.324h1.345c.215-.003.426.056.61.17.171.11.3.277.364.472l1.184 3.921 1.17-3.921a.811.811 0 01.827-.642h1.275a.788.788 0 01.827.642l1.17 3.921 1.184-3.921a.88.88 0 01.372-.473c.182-.115.394-.174.61-.17h1.338c.238 0 .357.114.364.325a.979.979 0 01-.063.318l-2.193 6.693a.874.874 0 01-.358.465c-.166.11-.361.169-.56.17h-1.016a1.02 1.02 0 01-.568-.177.831.831 0 01-.35-.458l-1.401-4.338-1.402 4.338a.845.845 0 01-.357.458.977.977 0 01-.56.177h-1.002a.998.998 0 01-.554-.17.888.888 0 01-.364-.465l-2.186-6.693zm22.919 5.755l.995-.092h.267a.44.44 0 01.418.273.431.431 0 01.03.171v.783a.388.388 0 01-.126.282.538.538 0 01-.322.155c-.637.111-1.282.16-1.927.149-2.065 0-3.1-1.091-3.104-3.273v-6.855a.46.46 0 01.126-.325.42.42 0 01.315-.12h1.619a.417.417 0 01.315.12.46.46 0 01.126.325v2.433h2.018a.447.447 0 01.308.12.446.446 0 01.133.324v.86a.448.448 0 01-.133.325.42.42 0 01-.308.12h-2.018v2.666c-.028.41.094.817.343 1.143a1.15 1.15 0 00.925.416zm3.504.677a4.78 4.78 0 010-6.171 5.525 5.525 0 016.481 0 4.78 4.78 0 010 6.17 5.58 5.58 0 01-6.481 0zm1.828-4.98a4.19 4.19 0 000 3.774 1.633 1.633 0 001.402.6 1.644 1.644 0 001.401-.6 4.136 4.136 0 000-3.773 1.668 1.668 0 00-1.401-.586 1.63 1.63 0 00-1.402.586zm7.666 4.275a3.719 3.719 0 01-1.009-2.765 3.46 3.46 0 011.149-2.758 4.882 4.882 0 013.3-.994c.73.006 1.458.086 2.172.24a5.787 5.787 0 011.703.578v6.735a2.78 2.78 0 01-1.065 2.398 4.993 4.993 0 01-2.978.776 7.134 7.134 0 01-2.957-.487 1.651 1.651 0 01-1.037-1.594.442.442 0 01.275-.421.429.429 0 01.174-.03h1.093a1.012 1.012 0 01.833.38 1.735 1.735 0 001.402.502 2.09 2.09 0 001.401-.339 1.53 1.53 0 00.378-1.185v-.338a8.734 8.734 0 01-2.165.296 3.596 3.596 0 01-2.669-.995zm3.286-4.754c-1.142 0-1.71.656-1.71 1.989 0 1.333.554 1.996 1.668 1.996a6.418 6.418 0 001.569-.219v-3.604a5.632 5.632 0 00-1.527-.162zm6.467 5.444a4.757 4.757 0 01-1.116-3.064c0-1.122.395-2.208 1.116-3.064a5.058 5.058 0 016.208 0 3.879 3.879 0 011.114 2.99v.416a.46.46 0 01-.126.325.435.435 0 01-.322.127h-5.444c.004.481.186.944.511 1.297.399.31.9.455 1.401.41a1.617 1.617 0 001.311-.438 1.133 1.133 0 01.875-.444h1.079a.43.43 0 01.322.128.441.441 0 01.127.323c0 1.41-1.317 2.116-3.952 2.116a4.341 4.341 0 01-3.104-1.121zm1.401-3.836h3.364c-.049-1.142-.61-1.714-1.675-1.714s-1.604.572-1.668 1.714h-.021zm11.029 3.174l.988-.092h.273a.456.456 0 01.323.127.44.44 0 01.126.317v.783a.393.393 0 01-.126.282.56.56 0 01-.323.155c-.636.11-1.281.16-1.927.149-2.069 0-3.104-1.091-3.104-3.273v-6.855a.46.46 0 01.127-.325.408.408 0 01.315-.12h1.618a.415.415 0 01.316.12.46.46 0 01.126.325v2.433h2.011a.448.448 0 01.315.12.443.443 0 01.126.324v.86a.443.443 0 01-.126.324.418.418 0 01-.315.121h-2.011v2.666c-.028.41.094.817.343 1.143a1.151 1.151 0 00.925.416zm2.894 1.135v-9.542a.46.46 0 01.126-.325.417.417 0 01.315-.12h1.619a.418.418 0 01.315.12.46.46 0 01.126.325v2.92a4.014 4.014 0 012.649-1.058 3.118 3.118 0 012.284.867 3.54 3.54 0 01.883 2.638v4.175a.423.423 0 01-.275.408.427.427 0 01-.174.03h-1.611a.423.423 0 01-.316-.128.422.422 0 01-.126-.31v-4.175c0-1.164-.462-1.742-1.401-1.742a2.851 2.851 0 00-1.934 1.044v4.873a.406.406 0 01-.031.169.408.408 0 01-.095.141.421.421 0 01-.315.127h-1.619a.43.43 0 01-.315-.127.406.406 0 01-.084-.144.39.39 0 01-.021-.166zm10.776-.473a4.763 4.763 0 01-1.114-3.064c0-1.122.394-2.207 1.114-3.064a4.277 4.277 0 013.104-1.08 4.326 4.326 0 013.097 1.052 3.88 3.88 0 011.114 2.99v.416a.46.46 0 01-.126.325.436.436 0 01-.322.126h-5.466c.002.481.182.944.505 1.298.4.308.9.454 1.401.41a1.647 1.647 0 001.317-.438 1.118 1.118 0 01.876-.444h1.072a.427.427 0 01.323.127.46.46 0 01.126.324c0 1.41-1.318 2.116-3.952 2.116a4.34 4.34 0 01-3.069-1.093zm1.401-3.836h3.357c-.049-1.142-.603-1.714-1.675-1.714s-1.619.572-1.682 1.714zm12.717-1.375l-1.114-.043a2.48 2.48 0 00-1.864 1.079v4.648a.421.421 0 01-.441.437h-1.59a.393.393 0 01-.316-.12.438.438 0 01-.126-.317V60.9a.438.438 0 01.442-.45h1.618a.407.407 0 01.315.126.443.443 0 01.126.325v.458c.43-.328.901-.596 1.402-.797a5.207 5.207 0 011.786-.261c.12 0 .235.045.323.127a.438.438 0 01.126.317v1.108a.407.407 0 01-.126.317.45.45 0 01-.323.127l-.238-.028z" fill="#84C551"/><path d="M54.743 36.618v.042l-2.228 8.513c-.073.331-.113.67-.12 1.008.035.492.23.958.554 1.326a2.186 2.186 0 001.87.762h6.594a4.012 4.012 0 002.473-.896 3.916 3.916 0 001.5-2.27l2.228-8.464v-.035l-12.871.014z" fill="#21603F"/><path d="M101.61.035a2.78 2.78 0 00-.483 0H81.326c-7.007.254-12.273 1.99-15.8 5.205-.168.148-.33.296-.483.459a15.812 15.812 0 00-4.134 7.426l-6.152 23.486h20.32c6.973-.254 12.223-1.975 15.75-5.163.168-.148.33-.303.49-.458a15.818 15.818 0 004.205-7.47l6.15-23.484h-.063zM83.35 20.368a9.118 9.118 0 01-2.935 4.69l-.294.233a8.822 8.822 0 01-4.737 1.799h-5.29l2.936-10.805a9.184 9.184 0 012.39-4.232c.16-.155.329-.31.504-.458l.336-.275a8.822 8.822 0 014.737-1.799h5.297L83.35 20.368z" fill="#84C551"/><path d="M98.647 23.648a18.086 18.086 0 01-7.273 10.72v10.685a3.074 3.074 0 00.884 2.272 3.032 3.032 0 002.255.895h6.306a3.145 3.145 0 002.242-.896 2.944 2.944 0 00.932-2.2V3.243l-5.346 20.404z" fill="#1F1B1C"/></g><defs><clipPath id="clip0_25_1215"><path fill="#fff" d="M0 0h158v71H0z"/></clipPath></defs></svg>