<svg width="15" height="15" fill="none" xmlns="http://www.w3.org/2000/svg"><g clip-path="url(#clip0_25_1169)"><path d="M14.817 13.933L10.55 9.668a5.908 5.908 0 001.324-3.73A5.944 5.944 0 005.937 0 5.944 5.944 0 000 5.938a5.944 5.944 0 005.937 5.937c1.413 0 2.71-.498 3.73-1.324l4.266 4.266a.624.624 0 10.884-.884zm-8.88-3.308A4.692 4.692 0 011.25 5.938 4.692 4.692 0 015.937 1.25a4.692 4.692 0 014.688 4.688 4.692 4.692 0 01-4.688 4.687z" fill="#84BE51"/></g><defs><clipPath id="clip0_25_1169"><path fill="#fff" d="M0 0h15v15H0z"/></clipPath></defs></svg>