<svg width="28" height="28" fill="none" xmlns="http://www.w3.org/2000/svg"><path d="M25.54 3.336H9.022a2.464 2.464 0 00-2.46 2.46 2.463 2.463 0 002.46 2.462H25.54A2.464 2.464 0 0028 5.797a2.464 2.464 0 00-2.46-2.461zm0 8.204H9.022A2.464 2.464 0 006.563 14a2.463 2.463 0 002.46 2.46H25.54A2.464 2.464 0 0028 14a2.464 2.464 0 00-2.46-2.46zm0 8.202H9.022a2.464 2.464 0 00-2.46 2.461 2.463 2.463 0 002.46 2.461H25.54a2.464 2.464 0 002.46-2.46 2.464 2.464 0 00-2.46-2.462zM2.46 3.336A2.464 2.464 0 000 5.796a2.463 2.463 0 002.46 2.462 2.464 2.464 0 002.462-2.461A2.464 2.464 0 002.46 3.336zm0 8.204A2.464 2.464 0 000 14a2.463 2.463 0 002.46 2.46A2.464 2.464 0 004.923 14a2.464 2.464 0 00-2.461-2.46zm0 8.202A2.464 2.464 0 000 22.203a2.463 2.463 0 002.46 2.461 2.464 2.464 0 002.462-2.46 2.464 2.464 0 00-2.461-2.462z" fill="#84C551"/></svg>