<svg width="30" height="30" fill="none" xmlns="http://www.w3.org/2000/svg"><path d="M18.304 15L29.521 3.783c.308-.309.479-.72.479-1.16 0-.44-.17-.852-.48-1.16L28.539.48a1.627 1.627 0 00-1.16-.479c-.44 0-.852.17-1.16.479L15 11.696 3.783.48a1.626 1.626 0 00-1.16-.479c-.439 0-.851.17-1.16.479l-.983.983c-.64.64-.64 1.68 0 2.32L11.697 15 .48 26.217a1.63 1.63 0 00-.479 1.16c0 .44.17.851.479 1.16l.983.983c.309.31.721.479 1.16.479.44 0 .852-.17 1.16-.479L15 18.303 26.217 29.52c.309.31.72.479 1.16.479.44 0 .852-.17 1.16-.479l.983-.983a1.63 1.63 0 00.48-1.16c0-.44-.171-.851-.48-1.16L18.304 15z" fill="#fff" fill-opacity=".6"/></svg>