<svg width="20" height="20" fill="currentColor" xmlns="http://www.w3.org/2000/svg"><g fill="#fff"><path d="M15.856 2.62h-1.81v-.81c0-.261-.285-.38-.547-.38h-1.405C11.761.478 10.928.002 9.975.002A2.166 2.166 0 007.856 1.43h-1.38c-.262 0-.524.119-.524.38v.81h-1.81a2.024 2.024 0 00-2 1.929V18.19c0 1.047.953 1.809 2 1.809h11.714c1.047 0 2-.762 2-1.81V4.55a2.024 2.024 0 00-2-1.929zm-8.952-.238h1.31a.524.524 0 00.452-.428A1.38 1.38 0 019.976.882a1.357 1.357 0 011.285 1.072c.043.234.238.41.476.428h1.357v1.905h-6.19V2.382zm10 15.809c0 .523-.524.857-1.048.857H4.142c-.523 0-1.047-.334-1.047-.857V4.549a1.07 1.07 0 011.047-.976h1.81v1.214a.5.5 0 00.524.452h7.023a.524.524 0 00.547-.452V3.573h1.81c.547.01.999.43 1.047.976V18.19z"/><path d="M8.165 10.644a.476.476 0 00-.666-.024l-1.524 1.452-.643-.667a.476.476 0 00-.666-.023.5.5 0 000 .69l.976 1a.428.428 0 00.333.143.476.476 0 00.333-.143l1.857-1.762a.452.452 0 000-.666zm6.834 1.023H9.523a.476.476 0 100 .953h5.476a.476.476 0 000-.953zM8.165 6.834a.476.476 0 00-.666-.023L5.975 8.263l-.643-.667a.476.476 0 00-.666-.024.5.5 0 000 .69l.976 1a.428.428 0 00.333.144.476.476 0 00.333-.143L8.165 7.5a.452.452 0 000-.667zm6.834 1.024H9.523a.476.476 0 100 .952h5.476a.476.476 0 100-.952zm-6.834 6.595a.476.476 0 00-.666-.024l-1.524 1.452-.643-.666a.476.476 0 00-.666-.024.5.5 0 000 .69l.976 1a.428.428 0 00.333.143.476.476 0 00.333-.143l1.857-1.762a.452.452 0 000-.666zm6.834 1.024H9.523a.476.476 0 100 .952h5.476a.476.476 0 000-.952z"/></g></svg>