<svg width="24" height="24" fill="none" xmlns="http://www.w3.org/2000/svg"><g fill="#84BE51" clip-path="url(#clip0_25_1122)"><path d="M3.368 19.13l2.257 1.129v2.522c0 .26.21.469.469.469h4.968c.26 0 .47-.21.47-.469v-6.12a2.775 2.775 0 00-2.503-2.77c-.006 0-1.983-.31-2.9-1.227l-1.053-1.052a1.862 1.862 0 00-1.326-.55v-3.75a1.877 1.877 0 00-1.875-1.875A1.877 1.877 0 000 7.313v6.368a6.09 6.09 0 003.368 5.45zM.938 7.313a.939.939 0 011.875 0v4a1.88 1.88 0 00-.938 1.624c0 .501.195.972.55 1.326l2.4 2.401a.469.469 0 00.663-.663l-2.4-2.4a.939.939 0 01.35-1.547.936.936 0 01.975.22l1.053 1.053c1.086 1.087 3.461 1.496 3.466 1.497a1.84 1.84 0 011.662 1.838v5.65H6.563V19.97c0-.178-.1-.34-.26-.42l-2.515-1.257a5.128 5.128 0 01-2.85-4.612V7.313zm10.593 4.218a.469.469 0 00.938 0v-1.406h1.794a4.773 4.773 0 004.768-4.768V3.094a.469.469 0 00-.8-.332c-.516.516-1.202.8-1.932.8-1.567 0-2.96.761-3.83 1.933V1.219a.469.469 0 00-.938 0v2.4a4.764 4.764 0 00-3.83-1.931c-.73 0-1.416-.285-1.932-.8a.469.469 0 00-.8.33v2.264A4.773 4.773 0 009.737 8.25h1.794v3.281zM16.3 4.5c.639 0 1.253-.162 1.795-.467v1.324a3.835 3.835 0 01-3.83 3.83h-.858l2.625-1.968a.469.469 0 00-.562-.75l-3 2.25V8.33a3.835 3.835 0 013.83-3.831zM5.906 3.482V2.158a3.649 3.649 0 001.795.467 3.835 3.835 0 013.83 3.83v.389l-3-2.25a.469.469 0 00-.562.75l2.625 1.969h-.857a3.835 3.835 0 01-3.83-3.831zm15.61 14.987a.469.469 0 100-.938.469.469 0 000 .938z"/><path d="M22.125 5.438a1.877 1.877 0 00-1.875 1.875v3.75c-.5 0-.971.195-1.326.549l-1.052 1.052c-.898.897-2.892 1.226-2.897 1.227a2.775 2.775 0 00-2.506 2.77v6.12c0 .26.21.469.469.469h4.968c.26 0 .469-.21.469-.469V20.26l1.534-.768a.469.469 0 00-.419-.838l-1.793.896a.47.47 0 00-.26.42v2.343h-4.03v-5.65a1.84 1.84 0 011.665-1.838c.004-.002 2.317-.351 3.462-1.497l1.053-1.052a.937.937 0 01.975-.222.94.94 0 01.35 1.547l-2.4 2.401a.469.469 0 10.663.663l2.4-2.4c.355-.355.55-.826.55-1.326 0-.677-.366-1.294-.938-1.624V7.312a.939.939 0 011.875 0v6.368a5.17 5.17 0 01-.625 2.462.469.469 0 10.823.448 6.11 6.11 0 00.74-2.91V7.313a1.877 1.877 0 00-1.875-1.875z"/></g><defs><clipPath id="clip0_25_1122"><path fill="#fff" d="M0 0h24v24H0z"/></clipPath></defs></svg>