<svg width="35" height="35" fill="none" xmlns="http://www.w3.org/2000/svg"><g fill="#84BE51"><path d="M4.912 27.898l3.291 1.646v3.679c0 .377.306.683.684.683h7.246a.684.684 0 00.683-.683v-8.925a4.046 4.046 0 00-3.65-4.04c-.007-.002-2.891-.452-4.229-1.79l-1.535-1.534a2.716 2.716 0 00-1.933-.801v-5.469A2.737 2.737 0 002.734 7.93 2.737 2.737 0 000 10.664v9.286a8.88 8.88 0 004.912 7.948zM1.367 10.664c0-.754.614-1.367 1.367-1.367a1.37 1.37 0 011.368 1.367V16.5a2.74 2.74 0 00-1.368 2.368c0 .73.285 1.417.801 1.933l3.501 3.502a.684.684 0 00.967-.967l-3.5-3.501a1.37 1.37 0 01.511-2.256 1.365 1.365 0 011.421.323l1.536 1.534c1.585 1.585 5.047 2.182 5.054 2.184a2.684 2.684 0 012.424 2.68v8.24H9.57v-3.418a.684.684 0 00-.378-.611l-3.668-1.834a7.479 7.479 0 01-4.157-6.726v-9.286zm15.449 6.152a.684.684 0 101.368 0v-2.05H20.8a6.961 6.961 0 006.954-6.954v-3.3a.684.684 0 00-1.167-.484 3.958 3.958 0 01-2.817 1.167 6.948 6.948 0 00-5.586 2.818V1.777a.684.684 0 00-1.368 0V5.28a6.948 6.948 0 00-5.586-2.82 3.958 3.958 0 01-2.817-1.167.683.683 0 00-1.167.483v3.3A6.961 6.961 0 0014.2 12.03h2.616v4.785zM23.77 6.563a5.32 5.32 0 002.617-.681v1.93a5.593 5.593 0 01-5.587 5.586h-1.25l3.829-2.87a.684.684 0 00-.82-1.094l-4.375 3.28v-.565a5.593 5.593 0 015.586-5.586zM8.613 5.077v-1.93c.79.444 1.686.68 2.617.68a5.593 5.593 0 015.586 5.586v.566L12.441 6.7a.684.684 0 00-.82 1.093l3.828 2.871H14.2a5.593 5.593 0 01-5.586-5.586zm22.764 21.857a.684.684 0 100-1.368.684.684 0 000 1.368z"/><path d="M32.266 7.93a2.738 2.738 0 00-2.735 2.734v5.469c-.73 0-1.416.284-1.933.8l-1.535 1.536c-1.309 1.308-4.218 1.787-4.225 1.79a4.047 4.047 0 00-3.654 4.04v8.924c0 .377.306.683.683.683h7.246a.684.684 0 00.684-.683v-3.68l2.237-1.118a.684.684 0 00-.611-1.223l-2.615 1.308a.684.684 0 00-.378.611v3.418h-5.88V24.3a2.686 2.686 0 012.43-2.68c.006-.003 3.378-.513 5.05-2.184l1.535-1.534c.391-.392.95-.49 1.421-.323h.001a1.37 1.37 0 01.51 2.256l-3.5 3.501a.684.684 0 10.967.967l3.5-3.502a2.717 2.717 0 00.802-1.933 2.74 2.74 0 00-1.368-2.368v-5.835a1.369 1.369 0 012.734 0v9.286a7.54 7.54 0 01-.912 3.59.683.683 0 101.201.654A8.91 8.91 0 0035 19.95v-9.286a2.737 2.737 0 00-2.734-2.734z"/></g></svg>