<svg width="40" height="40" fill="none" xmlns="http://www.w3.org/2000/svg"><g clip-path="url(#clip0_25_1194)"><path d="M27.933 21.767l-2.696-4.493 2.42-.672a.469.469 0 10-.251-.903l-3.008.835-3.93 1.092v-5.157a.469.469 0 00-.937 0v5.417l-4.17 1.159-3.018.838a.469.469 0 00.251.903l1.881-.522-2.408 4.014a.469.469 0 00-.067.24A3.485 3.485 0 0015.481 28a3.485 3.485 0 003.481-3.481.469.469 0 00-.066-.241L16.2 19.785l7.312-2.032-2.408 4.014a.469.469 0 00-.066.242 3.485 3.485 0 003.48 3.48c.93 0 1.805-.361 2.462-1.019A3.458 3.458 0 0028 22.009a.468.468 0 00-.067-.242zm-12.452 5.295a2.548 2.548 0 01-2.5-2.074h5a2.548 2.548 0 01-2.5 2.074zm2.185-3.012h-4.37l2.185-3.641 2.185 3.641zm6.853-6.152l2.184 3.642h-4.369l2.185-3.642zm0 6.654a2.548 2.548 0 01-2.5-2.075h5a2.548 2.548 0 01-2.5 2.075z" fill="#8C3213"/></g><circle cx="20" cy="20" r="19.5" stroke="#8C3213"/><defs><clipPath id="clip0_25_1194"><path fill="#fff" transform="translate(12 12)" d="M0 0h16v16H0z"/></clipPath></defs></svg>