<svg width="35" height="35" fill="none" xmlns="http://www.w3.org/2000/svg"><g clip-path="url(#clip0_14_30)" fill="#84BE51" stroke="#84BE51" stroke-width=".2"><path d="M28.91 24.976h0a.613.613 0 00-.865-.023c-2.382 2.26-5.142 4.264-7.029 5.108h0a8.914 8.914 0 01-5.587.581 10.286 10.286 0 002.23-1.846c4.151-.544 7.123-3.53 7.25-3.66l-.072-.07.072.07a.613.613 0 00-.008-.866h0a.613.613 0 00-.867.008h0l-.002.002-.006.006-.021.02a9.937 9.937 0 01-.388.353c-.268.231-.655.545-1.142.882-.924.641-2.204 1.367-3.699 1.78a10.147 10.147 0 001.542-5.389c0-.37-.02-.785-.061-1.231h0a.614.614 0 00-.665-.556h0a.613.613 0 00-.555.666c.037.41.055.788.055 1.121 0 4.954-4.03 8.984-8.983 8.984-4.954 0-8.984-4.03-8.984-8.984 0-2.712 1.16-7.328 2.76-10.971.965-2.198 2.02-3.922 3.087-5.094 1.07-1.175 2.14-1.783 3.137-1.783.907 0 1.771.483 2.548 1.187.775.702 1.452 1.615 1.982 2.452l.084-.053-.084.053a.613.613 0 101.035-.655c-1.753-2.77-3.623-4.21-5.565-4.21-1.436 0-2.848.802-4.197 2.35-1.124 1.289-2.183 3.06-3.15 5.26C1.08 14.3-.1 19.012-.1 21.932c0 5.63 4.58 10.21 10.209 10.21 1.308 0 2.559-.248 3.71-.698 1.147.422 2.338.634 3.528.634 1.42 0 2.836-.3 4.17-.898 2.043-.915 4.866-2.962 7.371-5.338h0a.613.613 0 00.023-.866z"/><path d="M16.79 9.054h0c.34.674.666 1.394.974 2.144 3.256-.645 6.847-.88 9.71-.625 3.858.342 6.398 1.533 7.275 3.491.749 1.67.21 3.644-.774 5.477-.986 1.839-2.435 3.565-3.555 4.761M16.79 9.054l2.646 10.07m-2.645-10.07a.613.613 0 00-.823-.272l.823.272zM30.42 24.302l-.073-.068.073.068s0 0 0 0zm0 0a.611.611 0 01-.866.028h0a.613.613 0 01-.028-.866c1.75-1.867 2.994-3.616 3.692-5.139.698-1.526.839-2.808.413-3.76l.09-.04-.09.04c-.421-.94-1.374-1.58-2.54-2.014-1.164-.433-2.522-.651-3.724-.758-2.689-.238-6.059-.027-9.149.565.264.71.51 1.436.736 2.168 5.792-2.02 10.038-1.062 10.232-1.016a.613.613 0 01-.28 1.192h0-.004l-.01-.003-.039-.008a10.276 10.276 0 00-.698-.107 16.248 16.248 0 00-2.037-.105c-1.712.013-4.095.268-6.822 1.226.259.946.478 1.889.649 2.802h0a.613.613 0 01-.49.715m0 0l-.019-.099m.019.099s0 0 0 0l-.019-.099m.019.099a.613.613 0 01-.715-.49l.098-.019m.598.41a.513.513 0 01-.598-.41m0 0l-.098.019c-.57-3.06-1.71-6.473-3.044-9.127a.613.613 0 01.272-.823l2.87 9.931z"/><path d="M26.983 18.823h0a.613.613 0 01.82.28s0 0 0 0l-.09.044a.513.513 0 01-.234.687l-.496-1.01zm0 0l-5.966 2.932h0a.613.613 0 00-.28.82m6.246-3.752l-6.246 3.753m0 0s0 0 0 0l.09-.045-.09.045zM8.187 7.593h0c.268.206.32.59.115.858m-.115-.858L5.24 25.398M8.187 7.593a.613.613 0 00-.859.115h0m.859-.115l-.859.115m.974.743s0 0 0 0l-.08-.06.08.06h0zm0 0h0v.002l-.003.003-.01.015-.04.054a12.717 12.717 0 00-.64 1.045c-.4.73-.911 1.803-1.356 3.182-.82 2.54-1.579 6.673-.532 11.925a.613.613 0 01-.48.72m0 0a.612.612 0 01-.121.013m.12-.012l-.12.012M7.328 7.708c-.056.073-1.27 1.683-2.225 4.618-.876 2.69-1.686 7.058-.583 12.59l.098-.019m2.71-17.189l-2.71 17.19m0 0l-.098.019a.613.613 0 00.6.493m-.502-.513l.502.513m11.069-9.044a.612.612 0 00-.793-.347h0a.613.613 0 00-.348.794s0 0 0 0 0 0 0 0v.001l.002.004.006.016.021.059.076.223a13.855 13.855 0 01.635 3.582c.116 2.877-.74 5.219-2.537 6.972h0a.613.613 0 00-.01.867h0a.611.611 0 00.866.01c2.039-1.99 3.041-4.735 2.904-7.932-.101-2.383-.79-4.168-.822-4.249zm0 0l-.093.037.093-.037s0 0 0 0zm-4.321-5.108h0a.614.614 0 01.633.59m-.633-.59l.633.59m-.633-.59h-.001m0 0h0m.634.59l.236 6.644m-.236-6.643l.236 6.643m-.87-7.234a.613.613 0 00-.59.634h0m.59-.634l-.59.634m0 0l.236 6.644h0m-.237-6.644l.237 6.644m0 0a.613.613 0 00.633.59h0m-.633-.59l.634.59m0 0a.613.613 0 00.59-.634h0m-.59.634l.59-.634m-7.046 9.202c.048.053 1.181 1.296 2.611 1.816a.61.61 0 00.785-.366.612.612 0 00-.366-.785c-.563-.205-1.09-.571-1.479-.892a7.522 7.522 0 01-.629-.581l-.01-.01-.002-.003h0v-.001h0l-.866-.043.067.074-.067-.074a.613.613 0 00-.044.865zm0 0l.075-.067-.075.067s0 0 0 0zm6.724-7.748a.613.613 0 00-.613.613v.047a.613.613 0 101.225 0v-.047a.613.613 0 00-.612-.613zm-1.265 1.351a.613.613 0 00-.612.613v.046a.613.613 0 101.226 0v-.046a.613.613 0 00-.613-.613zm1.632 2.297a.613.613 0 00-.613.612v.047a.613.613 0 001.226 0v-.047a.613.613 0 00-.613-.612z"/></g><defs><clipPath id="clip0_14_30"><path fill="#fff" d="M0 0h35v35H0z"/></clipPath></defs></svg>