<svg width="35" height="35" fill="none" xmlns="http://www.w3.org/2000/svg"><g clip-path="url(#clip0_14_30)" fill="#84BE51" stroke="#84BE51" stroke-width=".2"><path d="M28.91 24.976h0a.613.613 0 00-.865-.023c-2.382 2.26-5.142 4.264-7.029 5.108h0a8.914 8.914 0 01-5.587.581 10.286 10.286 0 002.23-1.846c4.151-.544 7.123-3.53 7.25-3.66h0a.613.613 0 00-.008-.866h0a.613.613 0 00-.867.008h0l-.002.002-.006.006-.021.02a9.937 9.937 0 01-.388.353c-.268.231-.655.545-1.142.882-.924.641-2.204 1.367-3.699 1.78a10.147 10.147 0 001.542-5.389c0-.37-.02-.785-.061-1.231a.614.614 0 00-.665-.556h0a.613.613 0 00-.555.666c.037.41.055.788.055 1.121 0 4.954-4.03 8.984-8.983 8.984-4.954 0-8.984-4.03-8.984-8.984 0-2.712 1.16-7.328 2.76-10.971.965-2.198 2.02-3.922 3.087-5.094 1.07-1.175 2.14-1.783 3.137-1.783.907 0 1.771.483 2.548 1.187.775.702 1.452 1.615 1.982 2.452l.084-.053-.084.053a.613.613 0 101.035-.655l-.084.053.084-.053c-1.753-2.77-3.623-4.21-5.565-4.21-1.436 0-2.848.802-4.197 2.35-1.124 1.289-2.183 3.06-3.15 5.26C1.08 14.3-.1 19.012-.1 21.932c0 5.63 4.58 10.21 10.209 10.21 1.308 0 2.559-.248 3.71-.698 1.147.422 2.338.634 3.528.634 1.42 0 2.836-.3 4.17-.898 2.043-.915 4.866-2.962 7.371-5.338h0a.613.613 0 00.023-.866z"/><path d="M16.79 9.054h0c.34.674.666 1.394.974 2.144 3.256-.645 6.847-.88 9.71-.625 3.858.342 6.398 1.533 7.275 3.491.749 1.67.21 3.644-.774 5.477-.986 1.839-2.435 3.565-3.555 4.761M16.79 9.054l13.557 15.18M16.79 9.054a.613.613 0 00-.823-.272l.823.272zm13.63 15.248l-.073-.068m.073.068s0 0 0 0l-.073-.068m.073.068a.611.611 0 01-.866.028h0a.613.613 0 01-.028-.866m.82.77a.512.512 0 11-.747-.701m-.073-.069l.073.069m-.073-.069s0 0 0 0l.073.069m-.073-.069c1.75-1.867 2.994-3.616 3.692-5.139.698-1.526.839-2.808.413-3.76l.088-.04-.088.04c-.421-.94-1.374-1.58-2.54-2.014-1.164-.433-2.522-.651-3.724-.758-2.689-.238-6.059-.027-9.149.565m11.38 11.175c3.508-3.745 5.011-7.029 4.124-9.009-.875-1.952-3.934-2.616-6.346-2.83-2.704-.24-6.091-.027-9.194.57l.036.094m0 0c.264.71.51 1.436.736 2.168m-.736-2.168l-.1.02c.266.713.515 1.445.741 2.182l.095-.034m0 0c5.792-2.02 10.038-1.062 10.232-1.016m-10.232 1.017l.03.095c5.77-2.013 9.997-1.058 10.18-1.015a.513.513 0 01.38.617m-.358-.714l-9.34 5.015a35.079 35.079 0 00-.671-2.883c5.55-1.976 9.712-1.047 9.753-1.037a.513.513 0 00.617-.382m-.359-.713c.33.077.534.407.456.736l-.097-.023m-.359-.713s0 0 0 0l-.023.096.023-.096zm0 0l-9.89 2.195m10.249-1.482l.097.023a.613.613 0 01-.736.456h0-.004l-.01-.003-.039-.008a10.276 10.276 0 00-.698-.107 16.248 16.248 0 00-2.037-.105c-1.712.013-4.095.268-6.822 1.226m0 0c.259.946.478 1.889.649 2.802h0a.613.613 0 01-.49.715s0 0 0 0l-.159-3.517z"/><path d="M20.737 22.576a.613.613 0 00.82.28s0 0 0 0l5.966-2.933h0a.613.613 0 00-.54-1.1h0l-5.966 2.932h0a.613.613 0 00-.28.82zm0 0l.09-.045m-.09.045s0 0 0 0l.09-.045m0 0a.513.513 0 01.234-.686l.452.92a.512.512 0 01-.686-.234zM5.24 25.398a.613.613 0 00.481-.72c-1.047-5.253-.288-9.386.532-11.926A18.37 18.37 0 017.609 9.57a12.717 12.717 0 01.64-1.046l.04-.054.01-.015.002-.003.001-.002-.08-.06.08.06a.613.613 0 00-.115-.858h0a.613.613 0 00-.859.115h0c-.056.073-1.27 1.683-2.225 4.618-.876 2.69-1.686 7.058-.583 12.59l.079-.015-.08.016a.613.613 0 00.721.48zm0 0l-.02-.098.02.098s0 0 0 0zm10.156-9.378h0a.612.612 0 01.793.346l-.793-.347zm0 0a.613.613 0 00-.348.793h0s0 0 0 0v.001l.002.004.006.016.021.059.076.223a13.855 13.855 0 01.635 3.582c.116 2.877-.74 5.219-2.537 6.972h0m2.145-11.65L13.25 27.67m0 0a.613.613 0 00-.01.867h0m.01-.866l-.01.866m0 0a.611.611 0 00.866.01c2.039-1.99 3.041-4.735 2.904-7.932-.101-2.383-.79-4.168-.822-4.249l-2.948 12.17zm-1.372-17.279h0-.001a.613.613 0 00-.59.634h0l.236 6.644h0a.613.613 0 00.633.59h0a.613.613 0 00.591-.634l-.236-6.643s0 0 0 0a.614.614 0 00-.633-.59zM6.6 26.872h0s0 0 0 0l.001.001.003.003.01.01a3.796 3.796 0 00.164.166c.11.108.27.256.464.415.39.32.916.687 1.48.892M6.6 26.872l2.393 2.238.094.034a.612.612 0 00-.366-.785m-2.12-1.487a.613.613 0 00-.866-.043l.865.043zm2.12 1.487l-.034.093.034-.093s0 0 0 0zm-3.03-.665c.049.053 1.182 1.296 2.611 1.816l-2.5-2.607a.513.513 0 00-.036.724l-.075.067s0 0 0 0zm6.724-7.748a.613.613 0 00-.613.613v.047a.613.613 0 101.225 0v-.047a.613.613 0 00-.612-.613zm-1.265 1.351a.613.613 0 00-.612.613v.046a.613.613 0 101.226 0v-.046a.613.613 0 00-.613-.613zm1.632 2.297a.613.613 0 00-.613.612v.047a.613.613 0 001.226 0v-.047a.613.613 0 00-.613-.612z"/></g><defs><clipPath id="clip0_14_30"><path fill="#fff" d="M0 0h35v35H0z"/></clipPath></defs></svg>