<svg width="40" height="40" fill="none" xmlns="http://www.w3.org/2000/svg"><g clip-path="url(#clip0_25_1205)"><path d="M27.908 15.343a.513.513 0 00-.4-.22l-9.924-.427a.513.513 0 10-.044 1.026l9.253.398-1.82 5.677h-8.096l-1.463-7.965a.513.513 0 00-.317-.385l-2.396-.94a.514.514 0 00-.375.955l2.13.837 1.488 8.104c.045.244.257.42.505.42h.247l-.564 1.567a.427.427 0 00.403.572h.395a1.531 1.531 0 00-.395 1.027 1.54 1.54 0 003.08 0c0-.395-.15-.754-.395-1.027h3.357a1.53 1.53 0 00-.395 1.027 1.54 1.54 0 003.08 0c0-.395-.15-.754-.395-1.027h.48a.428.428 0 100-.855h-8.203l.462-1.284h7.741a.515.515 0 00.49-.356l2.138-6.674a.512.512 0 00-.067-.45zm-9.833 11.33a.685.685 0 11.001-1.37.685.685 0 01-.001 1.37zm5.647 0a.685.685 0 11.001-1.37.685.685 0 01-.001 1.37z" fill="#8C3213"/></g><circle cx="20" cy="20" r="19.5" stroke="#8C3213"/><defs><clipPath id="clip0_25_1205"><path fill="#fff" transform="translate(12 12)" d="M0 0h16v16H0z"/></clipPath></defs></svg>