<svg width="63" height="63" fill="none" xmlns="http://www.w3.org/2000/svg"><g filter="url(#filter0_d_1_651)"><rect x="8" y="8" width="47" height="47" rx="23.5" fill="#fff"/></g><g clip-path="url(#clip0_1_651)"><path d="M39.908 27.343a.513.513 0 00-.4-.22l-9.924-.427a.513.513 0 10-.044 1.026l9.253.398-1.82 5.677h-8.096l-1.463-7.965a.513.513 0 00-.317-.385l-2.396-.94a.514.514 0 00-.375.955l2.13.837 1.488 8.104c.045.244.258.42.505.42h.247l-.564 1.567a.427.427 0 00.403.572h.395a1.532 1.532 0 00-.395 1.027 1.54 1.54 0 003.08 0c0-.395-.15-.754-.395-1.027h3.357a1.53 1.53 0 00-.395 1.027 1.54 1.54 0 003.08 0c0-.395-.15-.754-.395-1.027h.48a.428.428 0 100-.855h-8.203l.462-1.284h7.741a.515.515 0 00.49-.356l2.138-6.674a.512.512 0 00-.067-.45zm-9.833 11.33a.685.685 0 11.001-1.37.685.685 0 01-.001 1.37zm5.647 0a.685.685 0 11.001-1.37.685.685 0 01-.001 1.37z" fill="#8C3213"/></g><defs><clipPath id="clip0_1_651"><path fill="#fff" transform="translate(24 24)" d="M0 0h16v16H0z"/></clipPath><filter id="filter0_d_1_651" x="0" y="0" width="63" height="63" filterUnits="userSpaceOnUse" color-interpolation-filters="sRGB"><feFlood flood-opacity="0" result="BackgroundImageFix"/><feColorMatrix in="SourceAlpha" values="0 0 0 0 0 0 0 0 0 0 0 0 0 0 0 0 0 0 127 0" result="hardAlpha"/><feOffset/><feGaussianBlur stdDeviation="4"/><feComposite in2="hardAlpha" operator="out"/><feColorMatrix values="0 0 0 0 0 0 0 0 0 0 0 0 0 0 0 0 0 0 0.15 0"/><feBlend in2="BackgroundImageFix" result="effect1_dropShadow_1_651"/><feBlend in="SourceGraphic" in2="effect1_dropShadow_1_651" result="shape"/></filter></defs></svg>