<svg width="20" height="20" fill="none" xmlns="http://www.w3.org/2000/svg"><g clip-path="url(#clip0_118_6484)"><path d="M10 0C4.486 0 0 4.486 0 10s4.486 10 10 10 10-4.486 10-10S15.514 0 10 0zm3.55 17.815a8.534 8.534 0 01-3.55.77 8.533 8.533 0 01-3.55-.77v-3.46a1.77 1.77 0 011.768-1.77h3.564a1.77 1.77 0 011.769 1.77v3.46zm1.416-.817v-2.644a3.188 3.188 0 00-3.184-3.184h-.177a3.726 3.726 0 002.116-3.358A3.726 3.726 0 0010 4.092a3.726 3.726 0 00-3.721 3.72c0 1.478.865 2.757 2.116 3.357h-.177a3.188 3.188 0 00-3.184 3.185v2.644A8.58 8.58 0 011.416 10c0-4.733 3.85-8.584 8.584-8.584 4.733 0 8.584 3.85 8.584 8.584a8.58 8.58 0 01-3.618 6.998zM10 10.118a2.308 2.308 0 01-2.306-2.306A2.308 2.308 0 0110 5.507a2.308 2.308 0 012.306 2.305A2.308 2.308 0 0110 10.118z" fill="#fff"/></g><defs><clipPath id="clip0_118_6484"><path fill="#fff" d="M0 0h20v20H0z"/></clipPath></defs></svg>