<svg width="50" height="50" fill="none" xmlns="http://www.w3.org/2000/svg"><path d="M39.642 6.55H35.12V4.528c0-.654-.714-.952-1.369-.952H30.24c-.835-2.381-2.918-3.572-5.3-3.572a5.416 5.416 0 00-5.297 3.571h-3.452c-.655 0-1.31.298-1.31.952v2.024H10.36a5.06 5.06 0 00-5 4.82v34.106c0 2.618 2.381 4.523 5 4.523h29.283c2.62 0 5-1.905 5-4.523V11.372a5.06 5.06 0 00-5-4.821zm-22.379-.594h3.274a1.31 1.31 0 001.13-1.072 3.452 3.452 0 013.274-2.678 3.392 3.392 0 013.214 2.678 1.31 1.31 0 001.19 1.072h3.393v4.761H17.263V5.956zm24.998 39.52c0 1.31-1.31 2.143-2.619 2.143H10.36c-1.31 0-2.619-.833-2.619-2.142V11.372a2.678 2.678 0 012.619-2.44h4.524v3.035a1.25 1.25 0 001.309 1.131H33.75a1.31 1.31 0 001.369-1.13V8.931h4.523a2.679 2.679 0 012.62 2.44v34.105z" fill="#84C551"/><path d="M20.42 26.609a1.19 1.19 0 00-1.667-.06l-3.81 3.631-1.606-1.666a1.19 1.19 0 00-1.667-.06 1.25 1.25 0 000 1.726l2.44 2.5c.212.236.517.367.834.357a1.19 1.19 0 00.833-.357l4.642-4.404a1.13 1.13 0 000-1.667zm17.08 2.559H23.812a1.19 1.19 0 100 2.381h13.69a1.19 1.19 0 000-2.38zM20.42 17.086a1.19 1.19 0 00-1.667-.06l-3.81 3.631-1.606-1.666a1.19 1.19 0 00-1.667-.06 1.25 1.25 0 000 1.726l2.44 2.5c.212.236.517.367.834.357a1.19 1.19 0 00.833-.357l4.642-4.404a1.13 1.13 0 000-1.667zm17.08 2.559H23.812a1.19 1.19 0 100 2.381h13.69a1.19 1.19 0 100-2.38zM20.42 36.132a1.19 1.19 0 00-1.667-.06l-3.81 3.631-1.606-1.667a1.19 1.19 0 00-1.667-.06 1.25 1.25 0 000 1.727l2.44 2.5c.212.236.517.367.834.357a1.19 1.19 0 00.833-.357l4.642-4.405a1.13 1.13 0 000-1.666zm17.08 2.559H23.812a1.19 1.19 0 100 2.381h13.69a1.19 1.19 0 000-2.38z" fill="#84C551"/></svg>