<svg width="50" height="50" fill="none" xmlns="http://www.w3.org/2000/svg"><path d="M30.127 50H5.225a2.2 2.2 0 01-2.198-2.197v-36.65a2.2 2.2 0 012.198-2.198h4.21a.732.732 0 110 1.465h-4.21a.733.733 0 00-.733.732v36.65c0 .405.329.733.733.733h24.902a.733.733 0 00.732-.732V30.762H14.014a2.2 2.2 0 01-2.198-2.198V2.197A2.2 2.2 0 0114.014 0h21.972a2.2 2.2 0 012.198 2.197v7.324a.732.732 0 11-1.465 0V2.197a.733.733 0 00-.733-.732H14.014a.733.733 0 00-.733.732v26.367c0 .404.329.733.733.733h21.972a.733.733 0 00.733-.733V12.451c0-.404.328-.732.732-.732h4.395a.732.732 0 110 1.465h-3.662v2.93h3.662a.732.732 0 110 1.464h-3.662v2.93h3.662a.732.732 0 110 1.465h-3.662v2.93h3.662a.732.732 0 010 1.464h-3.662v2.197c0 .257-.045.504-.126.733h3.788a.732.732 0 110 1.465h-9.522v2.93h9.522a.732.732 0 110 1.464h-9.522v4.59h12.451a.733.733 0 00.733-.732V6.758a.733.733 0 00-.733-.733h-4.394a.732.732 0 110-1.464h4.394a2.2 2.2 0 012.198 2.197v32.256a2.2 2.2 0 01-2.198 2.197h-12.45v4.395h8.056a.733.733 0 00.732-.733v-1.465a.732.732 0 111.465 0v1.465a2.2 2.2 0 01-2.197 2.197h-8.057v.733A2.2 2.2 0 0130.127 50zm4.395-22.168H15.479a.732.732 0 01-.733-.732v-2.545c0-3.763 2.488-4.624 4.305-5.253 1.5-.52 2.351-.869 2.501-1.997a6.125 6.125 0 01-2.68-5.062v-3.02A6.134 6.134 0 0125 3.096a6.134 6.134 0 016.127 6.127v3.02a6.125 6.125 0 01-2.68 5.062c.15 1.128 1.002 1.478 2.502 1.997 1.817.629 4.305 1.49 4.305 5.253V27.1a.732.732 0 01-.732.732zM16.21 26.367h17.578v-1.812c0-2.72-1.538-3.253-3.32-3.869-1.315-.455-2.9-1.004-3.372-2.686-.654.24-1.36.37-2.097.37-.736 0-1.443-.13-2.097-.37-.471 1.682-2.057 2.23-3.373 2.686-1.78.616-3.32 1.149-3.32 3.87v1.811zM25 4.561a4.667 4.667 0 00-4.662 4.662v3.02A4.667 4.667 0 0025 16.905a4.667 4.667 0 004.662-4.662v-3.02A4.667 4.667 0 0025 4.56z" fill="#84C551"/></svg>