<svg width="50" height="50" fill="none" xmlns="http://www.w3.org/2000/svg"><path d="M34.725 31.349a1.71 1.71 0 01-1.71-1.71v-.74a1.71 1.71 0 113.42 0v.74a1.71 1.71 0 01-1.71 1.71zm-7.73 2.778H12.858a1.71 1.71 0 110-3.42h14.137a1.71 1.71 0 110 3.42zm0 7.996H12.858a1.71 1.71 0 110-3.418h14.137a1.71 1.71 0 110 3.418z" fill="#84C551"/><g fill="#84C551"><path d="M11.15 24.527c0 .944.765 1.71 1.709 1.71h14.137c.675 0 1.258-.393 1.535-.962a13.07 13.07 0 004.924.958c7.237 0 13.125-5.884 13.125-13.116C46.58 5.884 40.692 0 33.455 0c-5.006 0-9.365 2.815-11.578 6.944H6.623a3.209 3.209 0 00-3.205 3.205v36.646A3.209 3.209 0 006.623 50h26.608a3.209 3.209 0 003.206-3.205V34.729a1.71 1.71 0 10-3.42 0v11.852H6.838V10.363H20.62a13.169 13.169 0 00-.18 4.458h-7.582a1.71 1.71 0 100 3.418h8.513a13.178 13.178 0 003.258 4.579h-11.77a1.71 1.71 0 00-1.71 1.709zm12.598-11.41c0-5.348 4.355-9.698 9.707-9.698s9.706 4.35 9.706 9.698c0 5.347-4.354 9.697-9.706 9.697-5.352 0-9.707-4.35-9.707-9.697z"/><path d="M37.148 16.685c-.258 0-.52-.059-.767-.183l-3.694-1.858a1.71 1.71 0 01-.94-1.527V6.059a1.71 1.71 0 113.418 0v6.004l2.753 1.385c1.567.789.99 3.237-.77 3.237.626 0-.258 0 0 0z"/></g></svg>