<svg width="50" height="50" fill="none" xmlns="http://www.w3.org/2000/svg"><path d="M35.938 18.75h-18.75v-5.14a7.36 7.36 0 017.359-7.36h.906a7.36 7.36 0 017.36 7.36 1.562 1.562 0 103.124 0A10.5 10.5 0 0025.453 3.124h-.906a10.5 10.5 0 00-10.485 10.484v5.141a4.688 4.688 0 00-4.687 4.688v14.53a8.922 8.922 0 008.906 8.907H31.72a8.922 8.922 0 008.906-8.906V23.437a4.688 4.688 0 00-4.688-4.687zM37.5 37.969a5.781 5.781 0 01-5.781 5.781H18.28a5.781 5.781 0 01-5.781-5.781V23.437a1.563 1.563 0 011.563-1.562h21.874a1.563 1.563 0 011.563 1.563v14.53zm-10.938-5.594V37.5a1.563 1.563 0 01-3.125 0v-5.125a3.125 3.125 0 113.125 0z" fill="#84C551"/></svg>