<svg width="32" height="25" fill="none" xmlns="http://www.w3.org/2000/svg"><path d="M.043.007c.11-.01.22-.01.33 0h13.505c4.78.174 8.371 1.36 10.777 3.557.114.101.224.202.33.313a10.81 10.81 0 012.82 5.075L32 25H18.141c-4.757-.174-8.338-1.35-10.743-3.528-.115-.1-.225-.207-.335-.313a10.813 10.813 0 01-2.867-5.104L0 .007h.043zm12.454 13.894a6.234 6.234 0 002.002 3.205l.201.159a6.011 6.011 0 003.23 1.229h3.609l-2.003-7.383a6.28 6.28 0 00-1.63-2.892 7.2 7.2 0 00-.343-.313l-.23-.188a6.01 6.01 0 00-3.23-1.229H10.49l2.007 7.412z" fill="#84C551"/></svg>