<svg width="32" height="25" fill="none" xmlns="http://www.w3.org/2000/svg"><path d="M31.957.007c-.11-.01-.22-.01-.33 0H18.122c-4.78.174-8.371 1.36-10.777 3.557a5.083 5.083 0 00-.33.313 10.81 10.81 0 00-2.82 5.075L0 25h13.859c4.757-.174 8.338-1.35 10.743-3.528.115-.1.225-.207.335-.313a10.813 10.813 0 002.867-5.104L32 .007h-.043zM19.503 13.901a6.234 6.234 0 01-2.002 3.205l-.201.159a6.011 6.011 0 01-3.23 1.229h-3.61l2.002-7.383a6.28 6.28 0 011.63-2.892 7.2 7.2 0 01.344-.313l.23-.188a6.01 6.01 0 013.23-1.229h3.613l-2.007 7.412z" fill="#84C551"/></svg>