<svg width="20" height="20" viewBox="0 0 20 20" fill="none" xmlns="http://www.w3.org/2000/svg">
<g id="back-in-time 1" clip-path="url(#clip0_111_6474)">
<g id="Group">
<path id="Vector" d="M17.2695 3.13107L18.4839 3.02914L18.3858 1.86069L15.0644 2.13944L15.3432 5.46086L16.5116 5.3628L16.3895 3.90789C17.9505 5.53954 18.8274 7.70322 18.8274 9.99994C18.8274 12.3578 17.9092 14.5746 16.242 16.2419C14.5747 17.9092 12.3579 18.8274 10 18.8274C7.64213 18.8274 5.42533 17.9092 3.75804 16.242C2.09074 14.5747 1.17256 12.3579 1.17256 10C1.17256 7.64213 2.09078 5.42533 3.75804 3.75804C5.4253 2.09074 7.64209 1.17256 10 1.17256V0C7.32894 0 4.81772 1.04017 2.92896 2.92896C1.04017 4.81768 0 7.3289 0 10C0 12.6711 1.04017 15.1823 2.92896 17.0711C4.81772 18.9598 7.32894 20 10 20C12.6711 20 15.1823 18.9599 17.0711 17.0711C18.9598 15.1823 20 12.6711 20 10C20 7.41348 19.0184 4.9757 17.2695 3.13107Z" fill="#8C3213"/>
<path id="Vector_2" d="M9.41445 5.19745V3.82349C6.46036 4.10169 4.10243 6.45959 3.82422 9.41372H5.19818V10.5863H3.82422C4.10243 13.5404 6.46032 15.8983 9.41445 16.1765V14.8026H10.587V16.1765C13.5411 15.8983 15.899 13.5404 16.1772 10.5863H14.8033V9.41372H16.1772C15.899 6.45963 13.5411 4.10169 10.587 3.82349V5.19745H9.41445ZM10.587 10.2729L8.38081 12.1292L7.62588 11.232L9.41445 9.72711V6.43043H10.587V10.2729Z" fill="#8C3213"/>
</g>
</g>
<defs>
<clipPath id="clip0_111_6474">
<rect width="20" height="20" fill="white"/>
</clipPath>
</defs>
</svg>
