<svg width="25" height="23" viewBox="0 0 25 23" fill="none" xmlns="http://www.w3.org/2000/svg">
<g clip-path="url(#clip0_44_999)">
<path d="M14.4666 11.5001L21.1432 4.9851C21.3268 4.80576 21.4281 4.5665 21.4284 4.31136C21.4284 4.05609 21.3271 3.81654 21.1432 3.63749L20.5581 3.06673C20.3741 2.88697 20.1289 2.78851 19.8672 2.78851C19.6058 2.78851 19.3606 2.88697 19.1767 3.06673L12.5002 9.58128L5.82332 3.06673C5.63967 2.88697 5.39431 2.78851 5.1327 2.78851C4.87138 2.78851 4.62602 2.88697 4.44237 3.06673L3.857 3.63749C3.47605 4.0092 3.47605 4.61381 3.857 4.9851L10.5337 11.5001L3.857 18.0148C3.67321 18.1944 3.57201 18.4337 3.57201 18.6888C3.57201 18.9439 3.67321 19.1832 3.857 19.3627L4.44222 19.9334C4.62588 20.113 4.87138 20.2116 5.13256 20.2116C5.39417 20.2116 5.63952 20.113 5.82318 19.9334L12.5 13.4187L19.1765 19.9334C19.3605 20.113 19.6057 20.2116 19.867 20.2116H19.8673C20.1288 20.2116 20.374 20.113 20.5579 19.9334L21.143 19.3627C21.3267 19.1833 21.428 18.9439 21.428 18.6888C21.428 18.4337 21.3267 18.1944 21.143 18.0149L14.4666 11.5001Z" fill="#84BE51"/>
<path d="M1.40067 0C0.628123 0 0 0.613199 0 1.36671C0 2.12053 0.628123 2.73343 1.40067 2.73343C2.17291 2.73343 2.80134 2.12053 2.80134 1.36671C2.80134 0.613199 2.17291 0 1.40067 0Z" fill="#84C551"/>
<path d="M23.5437 0C22.7712 0 22.1431 0.613199 22.1431 1.36671C22.1431 2.12053 22.7712 2.73343 23.5437 2.73343C24.316 2.73343 24.9444 2.12053 24.9444 1.36671C24.9444 0.613199 24.316 0 23.5437 0Z" fill="#84C551"/>
<path d="M23.5437 20.2121C22.7712 20.2121 22.1431 20.8253 22.1431 21.5788C22.1431 22.3327 22.7712 22.9456 23.5437 22.9456C24.316 22.9456 24.9444 22.3327 24.9444 21.5788C24.9444 20.8253 24.316 20.2121 23.5437 20.2121Z" fill="#84C551"/>
<path d="M1.40067 20.2121C0.628123 20.2121 0 20.8253 0 21.5788C0 22.3327 0.628123 22.9456 1.40067 22.9456C2.17291 22.9456 2.80134 22.3327 2.80134 21.5788C2.80134 20.8253 2.17291 20.2121 1.40067 20.2121Z" fill="#84C551"/>
</g>
<defs>
<clipPath id="clip0_44_999">
<rect width="25" height="23" fill="white"/>
</clipPath>
</defs>
</svg>
