<svg width="12" height="12" viewBox="0 0 12 12" fill="none" xmlns="http://www.w3.org/2000/svg">
<g id="cancel (23) 3" clip-path="url(#clip0_84_4015)">
<g id="Group">
<g id="Group_2">
<path id="Vector" d="M7.32166 5.99998L11.8083 1.51315C11.9317 1.38964 11.9998 1.22485 12 1.04915C12 0.873342 11.9319 0.708367 11.8083 0.585049L11.4151 0.191976C11.2915 0.0681711 11.1267 0.000366211 10.9508 0.000366211C10.7752 0.000366211 10.6104 0.0681711 10.4868 0.191976L6.0002 4.67851L1.51337 0.191976C1.38995 0.0681711 1.22507 0.000366211 1.04927 0.000366211C0.873659 0.000366211 0.70878 0.0681711 0.585366 0.191976L0.192 0.585049C-0.064 0.841049 -0.064 1.25744 0.192 1.51315L4.67873 5.99998L0.192 10.4866C0.0684878 10.6103 0.000487805 10.7751 0.000487805 10.9508C0.000487805 11.1265 0.0684878 11.2913 0.192 11.4149L0.585268 11.808C0.708683 11.9317 0.873658 11.9996 1.04917 11.9996C1.22498 11.9996 1.38985 11.9317 1.51327 11.808L6.0001 7.32134L10.4867 11.808C10.6103 11.9317 10.7751 11.9996 10.9507 11.9996H10.9509C11.1266 11.9996 11.2914 11.9317 11.415 11.808L11.8082 11.4149C11.9316 11.2914 11.9997 11.1265 11.9997 10.9508C11.9997 10.7751 11.9316 10.6103 11.8082 10.4867L7.32166 5.99998Z" fill="black" fill-opacity="0.5"/>
</g>
</g>
</g>
<defs>
<clipPath id="clip0_84_4015">
<rect width="12" height="12" fill="white"/>
</clipPath>
</defs>
</svg>
