<svg width="16" height="16" viewBox="0 0 16 16" fill="none" xmlns="http://www.w3.org/2000/svg">
<g id="comparison 1" clip-path="url(#clip0_1_581)">
<g id="Group">
<g id="Group_2">
<path id="Vector" d="M15.9331 9.76746L13.2374 5.27437L15.6566 4.60237C15.9061 4.53309 16.0521 4.27471 15.9828 4.02528C15.9135 3.77584 15.6551 3.62978 15.4057 3.69909L12.3985 4.5344C12.3983 4.53446 12.3981 4.53453 12.3978 4.53459L8.46877 5.62596V0.468994C8.46877 0.210119 8.25889 0.000244141 8.00002 0.000244141C7.74114 0.000244141 7.53127 0.210119 7.53127 0.468994V5.88637L3.36118 7.04468C3.36096 7.04475 3.36074 7.04481 3.36052 7.04484L0.343425 7.8829C0.0939564 7.95218 -0.0520436 8.21056 0.0172064 8.46C0.0748627 8.66747 0.263269 8.8034 0.468581 8.8034C0.510113 8.8034 0.552363 8.79784 0.5943 8.78618L2.47511 8.26375L0.0669876 12.2778C0.0233001 12.3506 0.000175152 12.434 0.000175152 12.5189C0.000175152 14.4384 1.56183 16 3.48133 16C5.40089 16 6.96252 14.4384 6.96252 12.5189C6.96252 12.434 6.93943 12.3506 6.89571 12.2778L4.20002 7.78465L11.5124 5.7535L9.1043 9.76746C9.06061 9.84031 9.03749 9.92368 9.03749 10.0086C9.03749 11.9281 10.5991 13.4897 12.5186 13.4897C13.4485 13.4897 14.3227 13.1276 14.9802 12.4701C15.6378 11.8126 15.9999 10.9384 15.9998 10.0086C15.9999 9.92365 15.9768 9.84028 15.9331 9.76746ZM3.48133 15.0625C2.23892 15.0625 1.20218 14.167 0.981456 12.9877H5.98121C5.76052 14.167 4.72377 15.0625 3.48133 15.0625ZM5.66596 12.0502H1.29677L3.48133 8.4089L5.66596 12.0502ZM12.5186 5.89862L14.7033 9.53984H10.3341L12.5186 5.89862ZM12.5187 12.5522C11.2763 12.5522 10.2395 11.6567 10.0188 10.4774H15.0186C14.7979 11.6567 13.7611 12.5522 12.5187 12.5522Z" fill="#8C3213"/>
</g>
</g>
</g>
<defs>
<clipPath id="clip0_1_581">
<rect width="16" height="16" fill="white"/>
</clipPath>
</defs>
</svg>
