<svg width="24" height="24" viewBox="0 0 24 24" fill="none" xmlns="http://www.w3.org/2000/svg">
<g id="farmer 2" clip-path="url(#clip0_25_1137)">
<path id="Vector" d="M11.3998 6C11.0684 6 10.7998 6.26856 10.7998 6.6C10.7998 6.93145 11.0684 7.20001 11.3998 7.20001C11.7313 7.20001 11.9998 6.93145 11.9998 6.6C11.9998 6.26856 11.7313 6 11.3998 6Z" fill="#84BE51"/>
<path id="Vector_2" d="M14.9999 6C14.6685 6 14.3999 6.26856 14.3999 6.6C14.3999 6.93145 14.6685 7.20001 14.9999 7.20001C15.3313 7.20001 15.5999 6.93145 15.5999 6.6C15.5999 6.26856 15.3313 6 14.9999 6Z" fill="#84BE51"/>
<path id="Vector_3" d="M9.6001 17.6H10.4001V18.4H9.6001V17.6Z" fill="#84BE51"/>
<path id="Vector_4" d="M16 17.6H16.8V18.4H16V17.6Z" fill="#84BE51"/>
<path id="Vector_5" d="M9.6001 22.8C9.6001 22.9061 9.64229 23.0078 9.71729 23.0828L10.5173 23.8828C10.5923 23.9578 10.694 24 10.8001 24H15.6001C15.7062 24 15.8079 23.9578 15.8829 23.8828L16.6829 23.0828C16.7579 23.0078 16.8001 22.9061 16.8001 22.8V19.6C16.8001 19.3791 16.621 19.2 16.4001 19.2H10.0001C9.7792 19.2 9.6001 19.3791 9.6001 19.6V22.8ZM10.4001 20H16.0001V22.6344L15.4345 23.2H10.9657L10.4001 22.6344V20Z" fill="#84BE51"/>
<path id="Vector_6" d="M3.60001 18H3.20001C2.97911 18 2.80001 18.1791 2.80001 18.4V22.4C2.80001 22.6209 2.97911 22.8 3.20001 22.8H3.60001V24H4.40001V22.8H5.20001V24H6.00001V23.9725C6.77404 23.8742 7.48537 23.4961 8.00001 22.9096V24H8.80001V16.8H17.6V24H18.4V21.2H20.4V24H21.2V21.2H21.6C21.8209 21.2 22 21.0209 22 20.8V19.2C22 18.9791 21.8209 18.8 21.6 18.8H21.2V15.2C21.1981 13.4336 19.7664 12.002 18 12H16V11.6488C16.6664 10.9949 17.0834 10.1287 17.1789 9.2H17.2C17.9072 9.19746 18.5287 8.73008 18.7272 8.05117C19.4512 7.55645 19.7684 6.64785 19.5098 5.80996C19.251 4.97227 18.4768 4.40059 17.6 4.4H17.2V2.5916C17.2 1.51152 16.8721 0.767189 16.1965 0.316798C15.8865 0.109767 15.5223 -0.00038959 15.1496 1.0353e-06H14.8504C14.4778 -0.00038959 14.1135 0.109767 13.8035 0.316798C13.4383 0.561134 12.9617 0.561134 12.5965 0.316798C12.2865 0.109767 11.9223 -0.00038959 11.5496 1.0353e-06H11.2504C10.8777 -0.00038959 10.5135 0.109767 10.2035 0.316798C9.52794 0.767189 9.20001 1.51113 9.20001 2.5916V4.4H8.80001C8.36583 4.40156 7.94415 4.54571 7.60001 4.81035V2.33047C7.59826 1.71172 7.84415 1.11797 8.28283 0.681642L7.7172 0.117189C7.12794 0.703126 6.79767 1.50059 6.80001 2.33164V5.6C6.79787 6.10664 6.47775 6.55742 6.00001 6.72637V2.33164C5.99826 1.71289 6.24415 1.11914 6.68283 0.682814L6.1172 0.117189C5.52794 0.703126 5.19767 1.50059 5.20001 2.33164V6.8H4.40001V2.33164C4.39826 1.71289 4.64415 1.11914 5.08283 0.682814L4.5172 0.117189C3.92794 0.703126 3.59767 1.50059 3.60001 2.33164V6.72637C3.12228 6.55742 2.80216 6.10664 2.80001 5.6V2.33164C2.79825 1.71289 3.04415 1.11914 3.48283 0.682814L2.9172 0.117189C2.32794 0.703126 1.99767 1.50059 2.00001 2.33164V5.6C2.00118 6.55 2.66954 7.36856 3.60001 7.55996V18ZM4.40001 9.2H5.20001V18H4.40001V9.2ZM6.80001 19.6H8.00001V20.4H6.80001V19.6ZM8.00001 16.4V18.8H6.72638C6.60548 18.4611 6.33888 18.1945 6.00001 18.0736V15.2C6.00216 14.0301 6.84669 13.032 8.00001 12.8359V16.4ZM4.00001 22H3.60001V18.8H5.60001C5.82091 18.8 6.00001 18.9791 6.00001 19.2V21.6C6.00001 21.8209 5.82091 22 5.60001 22H4.00001ZM6.00001 23.1637V22.7264C6.47775 22.5574 6.79787 22.1066 6.80001 21.6V21.2H7.96681C7.79435 22.2057 7.00587 22.9928 6.00001 23.1637ZM8.80001 16V12.8H9.60001V16H8.80001ZM10.5199 12.8C10.6717 13.3051 10.9629 13.757 11.36 14.1039L12.4944 16H10.4V12.8H10.5199ZM13.2 14C12.0959 13.9986 11.2014 13.1041 11.2 12V10.4C11.2 9.29551 12.0955 8.4 13.2 8.4C14.3045 8.4 15.2 9.29551 15.2 10.4V12C15.1986 13.1041 14.3041 13.9986 13.2 14ZM13.7129 14.7508L13.2 15.6188L12.6801 14.7492C12.8514 14.7824 13.0254 14.7994 13.2 14.8C13.3721 14.7992 13.5438 14.7828 13.7129 14.7508ZM21.2 20.4H18.4V19.6H21.2V20.4ZM20.4 15.2V18.8H18.4V12.8359C19.5533 13.032 20.3979 14.0301 20.4 15.2ZM17.6 12.8V16H16.8V12.8H17.6ZM16 12.8V16H13.9024L15.0092 14.1332C15.4229 13.7826 15.7262 13.3195 15.882 12.8H16ZM15.9973 10.3477C15.9715 8.8211 14.7266 7.59727 13.2 7.59727C11.6735 7.59727 10.4287 8.8211 10.4027 10.3477C10.1397 9.87422 10.0012 9.3416 10 8.8V5.2H16.4V8.8C16.3988 9.3416 16.2604 9.87422 15.9973 10.3477ZM17.2 8.4V6.8C17.6418 6.8 18 7.15821 18 7.6C18 8.0418 17.6418 8.4 17.2 8.4ZM17.6 5.2C18.0197 5.2002 18.4088 5.41973 18.626 5.77891C18.8432 6.13809 18.857 6.58457 18.6625 6.95645C18.4074 6.37598 17.834 6.00098 17.2 6V5.2H17.6ZM10.6473 0.982814C10.8258 0.863478 11.0358 0.799806 11.2504 0.800001H11.5496C11.7645 0.799806 11.9744 0.863478 12.1528 0.982814C12.7867 1.40664 13.6135 1.40664 14.2473 0.982814C14.4258 0.863478 14.6358 0.799806 14.8504 0.800001H15.1496C15.3645 0.799806 15.5744 0.863478 15.7528 0.982814C16.0305 1.16758 16.4 1.53594 16.4 2.5916V2.8H10V2.5916C10 1.53594 10.3695 1.16758 10.6473 0.982814ZM10 3.6H16.4V4.4H10V3.6ZM8.80001 5.2H9.20001V6C8.56857 6.00117 7.99708 6.37364 7.74083 6.95078C7.54259 6.58047 7.55451 6.13321 7.77189 5.77383C7.98927 5.41446 8.38009 5.19629 8.80001 5.2ZM8.40001 7.6C8.40001 7.15821 8.75822 6.8 9.20001 6.8V8.4C8.75822 8.4 8.40001 8.0418 8.40001 7.6ZM6.92599 7.08555C7.06915 7.475 7.32951 7.81035 7.6713 8.04551C7.86759 8.72735 8.49044 9.19766 9.20001 9.2H9.2213C9.31662 10.1287 9.73361 10.9949 10.4 11.6488V12H8.40001C7.48029 12.0006 6.60548 12.3981 6.00001 13.0904V7.55996C6.34533 7.48692 6.66505 7.32324 6.92599 7.08555ZM5.20001 8.4H4.40001V7.6H5.20001V8.4Z" fill="#84BE51"/>
<path id="Vector_7" d="M12.6845 9.31995L12.1157 9.8801C12.3802 10.208 12.7788 10.3989 13.2001 10.3989C13.6214 10.3989 14.02 10.208 14.2845 9.8801L13.7157 9.31995C13.6022 9.49456 13.4083 9.60002 13.2001 9.60002C12.9919 9.60002 12.7979 9.49456 12.6845 9.31995Z" fill="#84BE51"/>
</g>
<defs>
<clipPath id="clip0_25_1137">
<rect width="24" height="24" fill="white"/>
</clipPath>
</defs>
</svg>
