<svg width="24" height="24" viewBox="0 0 24 24" fill="none" xmlns="http://www.w3.org/2000/svg">
<g id="fertilizer 2" clip-path="url(#clip0_25_1128)">
<g id="Group">
<path id="Vector" d="M18.6447 21.1181H18.5447C18.5447 21.2317 18.5898 21.3406 18.6701 21.4209C18.7504 21.5011 18.8593 21.5463 18.9728 21.5463C19.0863 21.5463 19.1952 21.5011 19.2755 21.4209C19.3558 21.3406 19.4009 21.2317 19.4009 21.1181L19.4009 21.118C19.4004 20.7115 19.2388 20.3219 18.9514 20.0344C18.6639 19.747 18.2743 19.5854 17.8678 19.5849H17.8677C17.7541 19.5849 17.6452 19.63 17.5649 19.7103C17.4847 19.7906 17.4396 19.8995 17.4396 20.013C17.4396 20.1265 17.4847 20.2354 17.5649 20.3157C17.6452 20.396 17.7541 20.4411 17.8677 20.4411V20.3411M18.6447 21.1181L18.5447 21.1182C18.5445 20.9387 18.473 20.7666 18.3461 20.6397C18.2192 20.5128 18.0471 20.4413 17.8676 20.4411L17.8677 20.3411M18.6447 21.1181C18.6444 20.9121 18.5625 20.7146 18.4168 20.569C18.2712 20.4233 18.0737 20.3414 17.8677 20.3411M18.6447 21.1181C18.6447 21.2052 18.6792 21.2886 18.7408 21.3501C18.8023 21.4117 18.8858 21.4463 18.9728 21.4463C19.0598 21.4463 19.1433 21.4117 19.2048 21.3501C19.2664 21.2886 19.3009 21.2052 19.3009 21.1181C19.3005 20.7381 19.1493 20.3738 18.8806 20.1052C18.612 19.8365 18.2477 19.6853 17.8677 19.6849C17.7807 19.6849 17.6972 19.7194 17.6357 19.781C17.5741 19.8425 17.5396 19.926 17.5396 20.013C17.5396 20.1 17.5741 20.1835 17.6357 20.245C17.6972 20.3066 17.7807 20.3411 17.8677 20.3411" fill="#84BE51" stroke="#84BE51" stroke-width="0.2"/>
<path id="Vector_2" d="M15.9576 18.7978V18.8978C16.0712 18.8978 16.1801 18.8527 16.2604 18.7724C16.3407 18.6921 16.3858 18.5832 16.3858 18.4697C16.3858 18.3561 16.3407 18.2472 16.2604 18.1669C16.1801 18.0866 16.0712 18.0415 15.9576 18.0415L15.9575 18.0415L15.166 19.5896L15.266 19.5897C15.266 19.5897 15.266 19.5897 15.266 19.5897C15.2662 19.4062 15.3391 19.2304 15.4688 19.1007C15.5985 18.971 15.7743 18.898 15.9578 18.8978L15.9576 18.7978ZM15.9576 18.7978C16.0447 18.7978 16.1281 18.7632 16.1897 18.7017C16.2512 18.6402 16.2858 18.5567 16.2858 18.4697C16.2858 18.3826 16.2512 18.2992 16.1897 18.2376C16.1281 18.1761 16.0447 18.1415 15.9576 18.1415V18.7978Z" fill="#84BE51" stroke="#84BE51" stroke-width="0.2"/>
<path id="Vector_3" d="M12.1339 12.0266V12.0264C12.1339 11.9129 12.0888 11.804 12.0085 11.7237C11.9282 11.6434 11.8193 11.5983 11.7058 11.5983L11.7057 11.5983C11.3249 11.5986 10.9485 11.6798 10.6014 11.8365C10.3309 11.9587 10.0831 12.1246 9.86759 12.327V12.0192C10.3115 11.5109 10.5484 10.8537 10.5302 10.1781C10.5117 9.48968 10.2296 8.83459 9.74225 8.34797C9.66194 8.26775 9.55307 8.22269 9.43956 8.22269C9.32604 8.22269 9.21716 8.26776 9.13685 8.34799L9.1367 8.34813C8.65087 8.8355 8.36987 9.49025 8.35129 10.1782C8.33307 10.8532 8.56892 11.51 9.01134 12.019V12.3269C8.79593 12.1245 8.54814 11.9586 8.27768 11.8364C7.93063 11.6796 7.5542 11.5985 7.17339 11.5983H7.17334C7.05979 11.5983 6.9509 11.6434 6.87061 11.7237C6.79032 11.804 6.74521 11.9129 6.74521 12.0264L6.74521 12.0266C6.74628 12.6815 6.98571 13.3137 7.41879 13.8051C7.8324 14.2743 8.39563 14.5845 9.01134 14.684V15.3493C9.01134 15.4628 9.05645 15.5717 9.13673 15.652C9.21702 15.7323 9.32592 15.7774 9.43946 15.7774C9.55301 15.7774 9.66191 15.7323 9.74219 15.652C9.82248 15.5717 9.86759 15.4628 9.86759 15.3493V14.684C10.4833 14.5845 11.0466 14.2744 11.4603 13.8051C11.8934 13.3138 12.1328 12.6816 12.1339 12.0266ZM9.20753 8.41873C8.73972 8.88802 8.46914 9.51848 8.45126 10.1809C8.43337 10.8432 8.66954 11.4874 9.11134 11.9812L9.20753 8.41873ZM9.20448 10.2535C9.20445 9.93721 9.28581 9.62712 9.43953 9.35266C9.59366 9.62715 9.67526 9.93744 9.67526 10.254C9.67526 10.5703 9.59378 10.8804 9.43987 11.1547C9.28598 10.8802 9.2045 10.57 9.20448 10.2535ZM10.4065 12.9936C10.6301 12.7699 10.9068 12.6082 11.2095 12.5228C11.1242 12.8255 10.9625 13.1023 10.7389 13.3259C10.5154 13.5496 10.2386 13.7113 9.93594 13.7968C10.0213 13.494 10.1829 13.2173 10.4065 12.9936ZM8.47254 12.9941C8.69606 13.2176 8.8577 13.4942 8.9431 13.7967C8.64056 13.7113 8.36397 13.5497 8.14045 13.3262C7.91693 13.1027 7.75529 12.8261 7.66989 12.5235C7.97243 12.6089 8.24902 12.7706 8.47254 12.9941Z" fill="#84BE51" stroke="#84BE51" stroke-width="0.2"/>
<path id="Vector_4" d="M4.29209 11.9999L4.29209 12C4.29205 13.0181 4.59393 14.0134 5.15955 14.86C5.72517 15.7065 6.52913 16.3664 7.46975 16.756C8.41038 17.1456 9.44542 17.2476 10.444 17.049C11.4426 16.8504 12.3598 16.3601 13.0797 15.6402C13.7997 14.9202 14.2899 14.003 14.4886 13.0044C14.6872 12.0058 14.5852 10.9708 14.1956 10.0302C13.8059 9.08955 13.1461 8.2856 12.2996 7.71998C11.453 7.15436 10.4577 6.85248 9.43959 6.85251L9.43947 6.85251C8.07478 6.85408 6.76644 7.3969 5.80146 8.36188C4.83647 9.32686 4.29366 10.6352 4.29209 11.9999ZM9.43965 7.70876C10.2884 7.70878 11.118 7.96045 11.8237 8.43197C12.5294 8.9035 13.0794 9.5737 13.4042 10.3578C13.729 11.1419 13.814 12.0048 13.6484 12.8372C13.4828 13.6696 13.0741 14.4342 12.474 15.0344C11.8738 15.6345 11.1092 16.0432 10.2768 16.2088C9.44435 16.3744 8.58152 16.2894 7.7974 15.9646C7.01328 15.6398 6.34307 15.0898 5.87155 14.3841C5.40003 13.6784 5.14835 12.8488 5.14834 12.0001C5.14966 10.8624 5.60221 9.77161 6.4067 8.96712C7.21119 8.16263 8.30193 7.71009 9.43965 7.70876Z" fill="#84BE51" stroke="#84BE51" stroke-width="0.2"/>
<g id="Vector_5">
<mask id="path-5-outside-1_25_1128" maskUnits="userSpaceOnUse" x="-0.145508" y="-0.145569" width="24" height="24" fill="black">
<rect fill="white" x="-0.145508" y="-0.145569" width="24" height="24"/>
<path d="M21.874 20.9812C21.8387 20.5399 21.666 20.1208 21.3801 19.7828C21.0942 19.4447 20.7096 19.2049 20.2802 19.0969C20.2802 19.0804 20.2802 19.0639 20.2802 19.0476C20.2795 18.5183 20.0794 18.0087 19.7198 17.6203C19.3602 17.2319 18.8675 16.9933 18.3398 16.9519C18.3229 16.8782 18.3023 16.8067 18.2779 16.7362C18.4828 15.1914 18.5921 13.6354 18.6053 12.0771V11.9229C18.6053 7.98131 17.6783 3.51749 17.5887 3.09543V1.18256C17.5887 1.09553 17.5541 1.01207 17.4926 0.950537C17.431 0.889001 17.3476 0.854431 17.2606 0.854431H2.19924C2.15615 0.854407 2.11347 0.862877 2.07365 0.879358C2.03382 0.895839 1.99764 0.920008 1.96717 0.950482C1.93669 0.980956 1.91253 1.01714 1.89604 1.05696C1.87956 1.09678 1.87109 1.13946 1.87112 1.18256V3.09506C1.7813 3.51806 0.854492 7.98149 0.854492 11.9229V12.0771C0.854492 16.0185 1.7813 20.4819 1.87112 20.9046V22.8171C1.87109 22.8602 1.87956 22.9028 1.89604 22.9427C1.91253 22.9825 1.93669 23.0187 1.96717 23.0491C1.99764 23.0796 2.03382 23.1038 2.07365 23.1203C2.11347 23.1367 2.15615 23.1452 2.19924 23.1452H22.8175C22.8606 23.1452 22.9033 23.1367 22.9431 23.1203C22.9829 23.1038 23.0191 23.0796 23.0496 23.0491C23.08 23.0187 23.1042 22.9825 23.1207 22.9427C23.1372 22.9028 23.1456 22.8602 23.1456 22.8171C23.1475 22.4176 23.0265 22.0272 22.799 21.6988C22.5715 21.3704 22.2486 21.1199 21.874 20.9812ZM2.52737 1.51068H16.9324V2.80199H2.52737V1.51068ZM1.51074 11.9229C1.51074 8.41987 2.25793 4.48574 2.46699 3.45824H16.9934C17.2015 4.48574 17.9496 8.41987 17.9496 11.9229V12.0771C17.9412 13.3365 17.8651 14.5945 17.7218 15.8458C17.4337 15.5633 17.0757 15.3625 16.6844 15.2641C16.2931 15.1657 15.8826 15.1732 15.4952 15.2858C15.1077 15.3984 14.7572 15.6121 14.4796 15.9049C14.202 16.1977 14.0073 16.5591 13.9156 16.9521C13.3882 16.9941 12.896 17.2331 12.5369 17.6215C12.1778 18.0099 11.978 18.5193 11.9774 19.0483C11.9774 19.0646 11.9774 19.0811 11.9774 19.0976C11.6223 19.1873 11.2965 19.3675 11.0318 19.6205C10.767 19.8735 10.5722 20.1908 10.4665 20.5414H2.46624C2.25793 19.5139 1.50999 15.5797 1.50999 12.0767L1.51074 11.9229ZM2.52737 21.198H9.96531C9.74722 21.346 9.56151 21.5367 9.41945 21.7587C9.2774 21.9807 9.18198 22.2293 9.13899 22.4893H2.52737V21.198ZM13.4091 22.4893C13.4746 22.3249 13.5879 22.1839 13.7343 22.0844C13.8807 21.9849 14.0536 21.9316 14.2306 21.9313C14.3176 21.9313 14.401 21.8967 14.4626 21.8352C14.5241 21.7737 14.5587 21.6902 14.5587 21.6032C14.5587 21.5162 14.5241 21.4327 14.4626 21.3712C14.401 21.3096 14.3176 21.2751 14.2306 21.2751C13.8787 21.2756 13.5376 21.3963 13.2637 21.6171C12.9897 21.8379 12.7994 22.1456 12.7242 22.4893H9.80856C9.86803 22.2576 9.99049 22.0468 10.1624 21.8804C10.3343 21.7139 10.5489 21.5983 10.7824 21.5464C10.8577 21.5293 10.9245 21.4862 10.9712 21.4247C11.0179 21.3632 11.0414 21.2873 11.0376 21.2102L11.0354 21.174C11.0354 21.162 11.0335 21.1498 11.0335 21.1376C11.0352 20.7752 11.1724 20.4264 11.4182 20.16C11.6639 19.8935 12.0004 19.7286 12.3616 19.6976C12.4073 19.6939 12.4518 19.6807 12.4921 19.6588C12.5324 19.6368 12.5677 19.6067 12.5956 19.5703C12.6236 19.5338 12.6436 19.492 12.6543 19.4473C12.665 19.4027 12.6663 19.3563 12.658 19.3112C12.6415 19.2246 12.633 19.1368 12.6327 19.0487C12.6331 18.6652 12.7856 18.2975 13.0568 18.0264C13.3279 17.7552 13.6956 17.6027 14.0791 17.6023C14.1012 17.6023 14.1229 17.604 14.1447 17.6055L14.173 17.6074C14.258 17.6127 14.3417 17.5847 14.4065 17.5294C14.4712 17.4742 14.512 17.3959 14.5201 17.3111C14.5587 16.9117 14.7447 16.541 15.0418 16.2712C15.3389 16.0014 15.7258 15.852 16.1271 15.852C16.5284 15.852 16.9153 16.0014 17.2124 16.2712C17.5095 16.541 17.6955 16.9117 17.7342 17.3111C17.7422 17.3961 17.783 17.4747 17.848 17.53C17.9131 17.5854 17.9972 17.6131 18.0824 17.6074L18.1067 17.6057C18.1304 17.604 18.154 17.6021 18.178 17.6021C18.3904 17.6012 18.6004 17.6474 18.793 17.7372C18.9855 17.827 19.1558 17.9583 19.2916 18.1216C19.4274 18.285 19.5254 18.4764 19.5786 18.6821C19.6317 18.8878 19.6387 19.1027 19.5991 19.3114C19.5907 19.3565 19.592 19.4029 19.6027 19.4475C19.6134 19.4921 19.6334 19.534 19.6613 19.5704C19.6892 19.6069 19.7245 19.637 19.7648 19.659C19.8051 19.6809 19.8496 19.6941 19.8953 19.6978C20.2565 19.7288 20.593 19.8937 20.8388 20.1601C21.0845 20.4266 21.2218 20.7753 21.2236 21.1378C21.2236 21.1498 21.2236 21.1614 21.2219 21.1732L21.2194 21.2107C21.2157 21.2878 21.2391 21.3638 21.2858 21.4252C21.3324 21.4867 21.3992 21.5298 21.4744 21.5469C21.708 21.5989 21.9226 21.7145 22.0945 21.8809C22.2664 22.0473 22.3889 22.2581 22.4483 22.4899L13.4091 22.4893Z"/>
</mask>
<path d="M21.874 20.9812C21.8387 20.5399 21.666 20.1208 21.3801 19.7828C21.0942 19.4447 20.7096 19.2049 20.2802 19.0969C20.2802 19.0804 20.2802 19.0639 20.2802 19.0476C20.2795 18.5183 20.0794 18.0087 19.7198 17.6203C19.3602 17.2319 18.8675 16.9933 18.3398 16.9519C18.3229 16.8782 18.3023 16.8067 18.2779 16.7362C18.4828 15.1914 18.5921 13.6354 18.6053 12.0771V11.9229C18.6053 7.98131 17.6783 3.51749 17.5887 3.09543V1.18256C17.5887 1.09553 17.5541 1.01207 17.4926 0.950537C17.431 0.889001 17.3476 0.854431 17.2606 0.854431H2.19924C2.15615 0.854407 2.11347 0.862877 2.07365 0.879358C2.03382 0.895839 1.99764 0.920008 1.96717 0.950482C1.93669 0.980956 1.91253 1.01714 1.89604 1.05696C1.87956 1.09678 1.87109 1.13946 1.87112 1.18256V3.09506C1.7813 3.51806 0.854492 7.98149 0.854492 11.9229V12.0771C0.854492 16.0185 1.7813 20.4819 1.87112 20.9046V22.8171C1.87109 22.8602 1.87956 22.9028 1.89604 22.9427C1.91253 22.9825 1.93669 23.0187 1.96717 23.0491C1.99764 23.0796 2.03382 23.1038 2.07365 23.1203C2.11347 23.1367 2.15615 23.1452 2.19924 23.1452H22.8175C22.8606 23.1452 22.9033 23.1367 22.9431 23.1203C22.9829 23.1038 23.0191 23.0796 23.0496 23.0491C23.08 23.0187 23.1042 22.9825 23.1207 22.9427C23.1372 22.9028 23.1456 22.8602 23.1456 22.8171C23.1475 22.4176 23.0265 22.0272 22.799 21.6988C22.5715 21.3704 22.2486 21.1199 21.874 20.9812ZM2.52737 1.51068H16.9324V2.80199H2.52737V1.51068ZM1.51074 11.9229C1.51074 8.41987 2.25793 4.48574 2.46699 3.45824H16.9934C17.2015 4.48574 17.9496 8.41987 17.9496 11.9229V12.0771C17.9412 13.3365 17.8651 14.5945 17.7218 15.8458C17.4337 15.5633 17.0757 15.3625 16.6844 15.2641C16.2931 15.1657 15.8826 15.1732 15.4952 15.2858C15.1077 15.3984 14.7572 15.6121 14.4796 15.9049C14.202 16.1977 14.0073 16.5591 13.9156 16.9521C13.3882 16.9941 12.896 17.2331 12.5369 17.6215C12.1778 18.0099 11.978 18.5193 11.9774 19.0483C11.9774 19.0646 11.9774 19.0811 11.9774 19.0976C11.6223 19.1873 11.2965 19.3675 11.0318 19.6205C10.767 19.8735 10.5722 20.1908 10.4665 20.5414H2.46624C2.25793 19.5139 1.50999 15.5797 1.50999 12.0767L1.51074 11.9229ZM2.52737 21.198H9.96531C9.74722 21.346 9.56151 21.5367 9.41945 21.7587C9.2774 21.9807 9.18198 22.2293 9.13899 22.4893H2.52737V21.198ZM13.4091 22.4893C13.4746 22.3249 13.5879 22.1839 13.7343 22.0844C13.8807 21.9849 14.0536 21.9316 14.2306 21.9313C14.3176 21.9313 14.401 21.8967 14.4626 21.8352C14.5241 21.7737 14.5587 21.6902 14.5587 21.6032C14.5587 21.5162 14.5241 21.4327 14.4626 21.3712C14.401 21.3096 14.3176 21.2751 14.2306 21.2751C13.8787 21.2756 13.5376 21.3963 13.2637 21.6171C12.9897 21.8379 12.7994 22.1456 12.7242 22.4893H9.80856C9.86803 22.2576 9.99049 22.0468 10.1624 21.8804C10.3343 21.7139 10.5489 21.5983 10.7824 21.5464C10.8577 21.5293 10.9245 21.4862 10.9712 21.4247C11.0179 21.3632 11.0414 21.2873 11.0376 21.2102L11.0354 21.174C11.0354 21.162 11.0335 21.1498 11.0335 21.1376C11.0352 20.7752 11.1724 20.4264 11.4182 20.16C11.6639 19.8935 12.0004 19.7286 12.3616 19.6976C12.4073 19.6939 12.4518 19.6807 12.4921 19.6588C12.5324 19.6368 12.5677 19.6067 12.5956 19.5703C12.6236 19.5338 12.6436 19.492 12.6543 19.4473C12.665 19.4027 12.6663 19.3563 12.658 19.3112C12.6415 19.2246 12.633 19.1368 12.6327 19.0487C12.6331 18.6652 12.7856 18.2975 13.0568 18.0264C13.3279 17.7552 13.6956 17.6027 14.0791 17.6023C14.1012 17.6023 14.1229 17.604 14.1447 17.6055L14.173 17.6074C14.258 17.6127 14.3417 17.5847 14.4065 17.5294C14.4712 17.4742 14.512 17.3959 14.5201 17.3111C14.5587 16.9117 14.7447 16.541 15.0418 16.2712C15.3389 16.0014 15.7258 15.852 16.1271 15.852C16.5284 15.852 16.9153 16.0014 17.2124 16.2712C17.5095 16.541 17.6955 16.9117 17.7342 17.3111C17.7422 17.3961 17.783 17.4747 17.848 17.53C17.9131 17.5854 17.9972 17.6131 18.0824 17.6074L18.1067 17.6057C18.1304 17.604 18.154 17.6021 18.178 17.6021C18.3904 17.6012 18.6004 17.6474 18.793 17.7372C18.9855 17.827 19.1558 17.9583 19.2916 18.1216C19.4274 18.285 19.5254 18.4764 19.5786 18.6821C19.6317 18.8878 19.6387 19.1027 19.5991 19.3114C19.5907 19.3565 19.592 19.4029 19.6027 19.4475C19.6134 19.4921 19.6334 19.534 19.6613 19.5704C19.6892 19.6069 19.7245 19.637 19.7648 19.659C19.8051 19.6809 19.8496 19.6941 19.8953 19.6978C20.2565 19.7288 20.593 19.8937 20.8388 20.1601C21.0845 20.4266 21.2218 20.7753 21.2236 21.1378C21.2236 21.1498 21.2236 21.1614 21.2219 21.1732L21.2194 21.2107C21.2157 21.2878 21.2391 21.3638 21.2858 21.4252C21.3324 21.4867 21.3992 21.5298 21.4744 21.5469C21.708 21.5989 21.9226 21.7145 22.0945 21.8809C22.2664 22.0473 22.3889 22.2581 22.4483 22.4899L13.4091 22.4893Z" fill="#84BE51"/>
<path d="M21.874 20.9812C21.8387 20.5399 21.666 20.1208 21.3801 19.7828C21.0942 19.4447 20.7096 19.2049 20.2802 19.0969C20.2802 19.0804 20.2802 19.0639 20.2802 19.0476C20.2795 18.5183 20.0794 18.0087 19.7198 17.6203C19.3602 17.2319 18.8675 16.9933 18.3398 16.9519C18.3229 16.8782 18.3023 16.8067 18.2779 16.7362C18.4828 15.1914 18.5921 13.6354 18.6053 12.0771V11.9229C18.6053 7.98131 17.6783 3.51749 17.5887 3.09543V1.18256C17.5887 1.09553 17.5541 1.01207 17.4926 0.950537C17.431 0.889001 17.3476 0.854431 17.2606 0.854431H2.19924C2.15615 0.854407 2.11347 0.862877 2.07365 0.879358C2.03382 0.895839 1.99764 0.920008 1.96717 0.950482C1.93669 0.980956 1.91253 1.01714 1.89604 1.05696C1.87956 1.09678 1.87109 1.13946 1.87112 1.18256V3.09506C1.7813 3.51806 0.854492 7.98149 0.854492 11.9229V12.0771C0.854492 16.0185 1.7813 20.4819 1.87112 20.9046V22.8171C1.87109 22.8602 1.87956 22.9028 1.89604 22.9427C1.91253 22.9825 1.93669 23.0187 1.96717 23.0491C1.99764 23.0796 2.03382 23.1038 2.07365 23.1203C2.11347 23.1367 2.15615 23.1452 2.19924 23.1452H22.8175C22.8606 23.1452 22.9033 23.1367 22.9431 23.1203C22.9829 23.1038 23.0191 23.0796 23.0496 23.0491C23.08 23.0187 23.1042 22.9825 23.1207 22.9427C23.1372 22.9028 23.1456 22.8602 23.1456 22.8171C23.1475 22.4176 23.0265 22.0272 22.799 21.6988C22.5715 21.3704 22.2486 21.1199 21.874 20.9812ZM2.52737 1.51068H16.9324V2.80199H2.52737V1.51068ZM1.51074 11.9229C1.51074 8.41987 2.25793 4.48574 2.46699 3.45824H16.9934C17.2015 4.48574 17.9496 8.41987 17.9496 11.9229V12.0771C17.9412 13.3365 17.8651 14.5945 17.7218 15.8458C17.4337 15.5633 17.0757 15.3625 16.6844 15.2641C16.2931 15.1657 15.8826 15.1732 15.4952 15.2858C15.1077 15.3984 14.7572 15.6121 14.4796 15.9049C14.202 16.1977 14.0073 16.5591 13.9156 16.9521C13.3882 16.9941 12.896 17.2331 12.5369 17.6215C12.1778 18.0099 11.978 18.5193 11.9774 19.0483C11.9774 19.0646 11.9774 19.0811 11.9774 19.0976C11.6223 19.1873 11.2965 19.3675 11.0318 19.6205C10.767 19.8735 10.5722 20.1908 10.4665 20.5414H2.46624C2.25793 19.5139 1.50999 15.5797 1.50999 12.0767L1.51074 11.9229ZM2.52737 21.198H9.96531C9.74722 21.346 9.56151 21.5367 9.41945 21.7587C9.2774 21.9807 9.18198 22.2293 9.13899 22.4893H2.52737V21.198ZM13.4091 22.4893C13.4746 22.3249 13.5879 22.1839 13.7343 22.0844C13.8807 21.9849 14.0536 21.9316 14.2306 21.9313C14.3176 21.9313 14.401 21.8967 14.4626 21.8352C14.5241 21.7737 14.5587 21.6902 14.5587 21.6032C14.5587 21.5162 14.5241 21.4327 14.4626 21.3712C14.401 21.3096 14.3176 21.2751 14.2306 21.2751C13.8787 21.2756 13.5376 21.3963 13.2637 21.6171C12.9897 21.8379 12.7994 22.1456 12.7242 22.4893H9.80856C9.86803 22.2576 9.99049 22.0468 10.1624 21.8804C10.3343 21.7139 10.5489 21.5983 10.7824 21.5464C10.8577 21.5293 10.9245 21.4862 10.9712 21.4247C11.0179 21.3632 11.0414 21.2873 11.0376 21.2102L11.0354 21.174C11.0354 21.162 11.0335 21.1498 11.0335 21.1376C11.0352 20.7752 11.1724 20.4264 11.4182 20.16C11.6639 19.8935 12.0004 19.7286 12.3616 19.6976C12.4073 19.6939 12.4518 19.6807 12.4921 19.6588C12.5324 19.6368 12.5677 19.6067 12.5956 19.5703C12.6236 19.5338 12.6436 19.492 12.6543 19.4473C12.665 19.4027 12.6663 19.3563 12.658 19.3112C12.6415 19.2246 12.633 19.1368 12.6327 19.0487C12.6331 18.6652 12.7856 18.2975 13.0568 18.0264C13.3279 17.7552 13.6956 17.6027 14.0791 17.6023C14.1012 17.6023 14.1229 17.604 14.1447 17.6055L14.173 17.6074C14.258 17.6127 14.3417 17.5847 14.4065 17.5294C14.4712 17.4742 14.512 17.3959 14.5201 17.3111C14.5587 16.9117 14.7447 16.541 15.0418 16.2712C15.3389 16.0014 15.7258 15.852 16.1271 15.852C16.5284 15.852 16.9153 16.0014 17.2124 16.2712C17.5095 16.541 17.6955 16.9117 17.7342 17.3111C17.7422 17.3961 17.783 17.4747 17.848 17.53C17.9131 17.5854 17.9972 17.6131 18.0824 17.6074L18.1067 17.6057C18.1304 17.604 18.154 17.6021 18.178 17.6021C18.3904 17.6012 18.6004 17.6474 18.793 17.7372C18.9855 17.827 19.1558 17.9583 19.2916 18.1216C19.4274 18.285 19.5254 18.4764 19.5786 18.6821C19.6317 18.8878 19.6387 19.1027 19.5991 19.3114C19.5907 19.3565 19.592 19.4029 19.6027 19.4475C19.6134 19.4921 19.6334 19.534 19.6613 19.5704C19.6892 19.6069 19.7245 19.637 19.7648 19.659C19.8051 19.6809 19.8496 19.6941 19.8953 19.6978C20.2565 19.7288 20.593 19.8937 20.8388 20.1601C21.0845 20.4266 21.2218 20.7753 21.2236 21.1378C21.2236 21.1498 21.2236 21.1614 21.2219 21.1732L21.2194 21.2107C21.2157 21.2878 21.2391 21.3638 21.2858 21.4252C21.3324 21.4867 21.3992 21.5298 21.4744 21.5469C21.708 21.5989 21.9226 21.7145 22.0945 21.8809C22.2664 22.0473 22.3889 22.2581 22.4483 22.4899L13.4091 22.4893Z" stroke="#84BE51" stroke-width="0.4" mask="url(#path-5-outside-1_25_1128)"/>
</g>
<path id="Vector_6" d="M3.83398 5.14376H6.56267C6.67622 5.14376 6.78511 5.09866 6.8654 5.01837C6.94569 4.93808 6.9908 4.82918 6.9908 4.71564C6.9908 4.60209 6.94569 4.4932 6.8654 4.41291C6.78511 4.33262 6.67622 4.28751 6.56267 4.28751H3.83398C3.72044 4.28751 3.61154 4.33262 3.53125 4.41291C3.45096 4.4932 3.40586 4.60209 3.40586 4.71564C3.40586 4.82918 3.45096 4.93808 3.53125 5.01837C3.61154 5.09866 3.72044 5.14376 3.83398 5.14376Z" fill="#84BE51" stroke="#84BE51" stroke-width="0.2"/>
<path id="Vector_7" d="M7.87891 5.14376H8.62497C8.73851 5.14376 8.84741 5.09866 8.9277 5.01837C9.00799 4.93808 9.05309 4.82918 9.05309 4.71564C9.05309 4.60209 9.00799 4.4932 8.9277 4.41291C8.84741 4.33262 8.73851 4.28751 8.62497 4.28751H7.87891C7.76536 4.28751 7.65646 4.33262 7.57618 4.41291C7.49589 4.4932 7.45078 4.60209 7.45078 4.71564C7.45078 4.82918 7.49589 4.93808 7.57618 5.01837C7.65647 5.09866 7.76536 5.14376 7.87891 5.14376Z" fill="#84BE51" stroke="#84BE51" stroke-width="0.2"/>
</g>
</g>
<defs>
<clipPath id="clip0_25_1128">
<rect width="24" height="24" fill="white"/>
</clipPath>
</defs>
</svg>
