<svg width="65" height="132" viewBox="0 0 65 132" fill="none" xmlns="http://www.w3.org/2000/svg">
<rect width="65" height="188" rx="30" fill="#84C551"/>
<g clip-path="url(#clip0_44_593)">
<path d="M30.5961 48.7979C30.5828 48.716 30.5767 48.6332 30.5778 48.5504V34.4408L30.4347 34.7484C30.2923 35.0492 30.0986 35.3228 29.8623 35.5569L25.9056 39.5136C25.4081 40.0347 24.6079 40.1223 24.0095 39.7211C23.3719 39.2542 23.2334 38.3588 23.7003 37.7211C23.7381 37.6696 23.7792 37.6207 23.8235 37.5746L30.9784 30.4197C31.537 29.8605 32.443 29.86 33.0022 30.4186C33.0025 30.4189 33.0029 30.4193 33.0033 30.4197L40.1582 37.5746C40.7163 38.1342 40.715 39.0403 40.1554 39.5984C40.1114 39.6423 40.0645 39.6833 40.0151 39.7211C39.4168 40.1223 38.6165 40.0347 38.1191 39.5136L34.1552 35.5641C33.9451 35.3541 33.7688 35.1128 33.6329 34.8486L33.4397 34.4193V48.4716C33.4669 49.2026 32.9563 49.844 32.2377 49.9813C31.4576 50.1078 30.7227 49.578 30.5961 48.7979Z" fill="white"/>
</g>
<defs>
<clipPath id="clip0_44_593">
<rect width="20" height="20" fill="white" transform="matrix(0 1 1 0 22 30)"/>
</clipPath>
</defs>
</svg>
