<svg width="68" height="68" viewBox="0 0 68 68" fill="none" xmlns="http://www.w3.org/2000/svg">
<g filter="url(#filter0_d_25_1188)">
<circle cx="34" cy="29" r="19.5" stroke="#8C3213" shape-rendering="crispEdges"/>
</g>
<rect width="18.4" height="16" transform="translate(25 21)" fill="white"/>
<path d="M33.7998 22.8475C32.9078 21.9405 31.6947 21.4281 30.4092 21.4281C27.7847 21.4281 25.6498 23.563 25.6498 26.1875C25.6498 27.7345 26.2279 29.3316 27.3521 30.9329L27.3521 30.9329C27.4741 31.1067 27.7138 31.1486 27.8876 31.0266C27.8876 31.0266 27.8876 31.0266 27.8876 31.0266L27.8014 30.9039C27.9073 30.8295 27.9329 30.6833 27.8585 30.5774C26.8035 29.0746 26.2686 27.5977 26.2686 26.1875C26.2686 23.9043 28.126 22.0469 30.4092 22.0469C31.6578 22.0469 32.8275 22.6024 33.6182 23.571C33.6628 23.6256 33.7294 23.6572 33.7998 23.6572C33.8702 23.6572 33.9369 23.6256 33.9814 23.571C34.7721 22.6024 35.9418 22.0469 37.1904 22.0469C39.4736 22.0469 41.3311 23.9046 41.3311 26.188L33.7998 22.8475ZM33.7998 22.8475C34.6918 21.9405 35.9049 21.4281 37.1904 21.4281C39.8149 21.4281 41.9498 23.5633 41.9498 26.1881C41.9495 27.5207 41.5189 28.8955 40.6799 30.2731C40.0161 31.3631 39.0949 32.4598 37.9445 33.5334C35.9942 35.3535 34.0162 36.5063 33.9924 36.5201L33.9924 36.5201C33.9328 36.5547 33.8662 36.5719 33.7998 36.5719C33.7349 36.5719 33.6699 36.5554 33.6114 36.5225M33.7998 22.8475L41.1811 26.188C41.1808 27.5292 40.6776 28.8183 39.9529 29.9785C39.2285 31.1382 38.288 32.1606 37.4266 32.9652C35.8889 34.4015 34.332 35.4095 33.7987 35.739C33.7455 35.7078 33.6851 35.6731 33.6181 35.6347C32.8215 35.178 31.0837 34.1816 29.3312 32.0184C29.1975 31.8534 28.9554 31.8282 28.7905 31.9617L28.7905 31.9617C28.6256 32.0954 28.6002 32.3374 28.7339 32.5024M28.7339 32.5024C28.7339 32.5024 28.7339 32.5024 28.7339 32.5024L28.8504 32.4079L28.7339 32.5024ZM28.7339 32.5024C29.8929 33.9329 31.1037 34.9329 32.0296 35.5781C32.4926 35.9008 32.8846 36.1349 33.1636 36.2898C33.3032 36.3673 33.4144 36.425 33.4922 36.464C33.531 36.4836 33.5614 36.4984 33.5827 36.5087L33.6071 36.5204C33.6091 36.5214 33.6105 36.5221 33.6114 36.5225M33.6114 36.5225C33.6132 36.5234 33.6132 36.5234 33.6123 36.5229C33.6114 36.5225 33.6094 36.5214 33.6073 36.5202L33.6824 36.3903L33.6073 36.5201C33.6086 36.5209 33.61 36.5217 33.6114 36.5225ZM37.1904 22.1969C39.3907 22.1969 41.181 23.9874 41.1811 26.188L34.0976 23.6659C34.8599 22.7321 35.9869 22.1969 37.1904 22.1969Z" fill="#8C3213" stroke="#8C3213" stroke-width="0.3"/>
<defs>
<filter id="filter0_d_25_1188" x="0" y="0" width="68" height="68" filterUnits="userSpaceOnUse" color-interpolation-filters="sRGB">
<feFlood flood-opacity="0" result="BackgroundImageFix"/>
<feColorMatrix in="SourceAlpha" type="matrix" values="0 0 0 0 0 0 0 0 0 0 0 0 0 0 0 0 0 0 127 0" result="hardAlpha"/>
<feOffset dy="5"/>
<feGaussianBlur stdDeviation="7"/>
<feComposite in2="hardAlpha" operator="out"/>
<feColorMatrix type="matrix" values="0 0 0 0 0.54902 0 0 0 0 0.196078 0 0 0 0 0.0745098 0 0 0 0.3 0"/>
<feBlend mode="normal" in2="BackgroundImageFix" result="effect1_dropShadow_25_1188"/>
<feBlend mode="normal" in="SourceGraphic" in2="effect1_dropShadow_25_1188" result="shape"/>
</filter>
</defs>
</svg>
