<svg width="42" height="42" viewBox="0 0 42 42" fill="none" xmlns="http://www.w3.org/2000/svg">
<circle cx="21" cy="21" r="20.5" stroke="#8C3213"/>
<path d="M20.8008 14.8475C19.9087 13.9405 18.6957 13.4281 17.4102 13.4281C14.7857 13.4281 12.6508 15.563 12.6508 18.1875C12.6508 19.7345 13.2289 21.3316 14.3531 22.9329L14.3531 22.9329C14.4751 23.1067 14.7148 23.1486 14.8885 23.0266C14.8885 23.0266 14.8885 23.0266 14.8886 23.0266L14.8023 22.9039C14.9083 22.8295 14.9339 22.6833 14.8595 22.5774C13.8045 21.0746 13.2695 19.5977 13.2695 18.1875C13.2695 15.9043 15.127 14.0469 17.4102 14.0469C18.6588 14.0469 19.8285 14.6024 20.6192 15.571C20.6637 15.6256 20.7304 15.6572 20.8008 15.6572C20.8712 15.6572 20.9378 15.6256 20.9823 15.571C21.7731 14.6024 22.9427 14.0469 24.1914 14.0469C26.4746 14.0469 28.332 15.9046 28.332 18.188L20.8008 14.8475ZM20.8008 14.8475C21.6928 13.9405 22.9058 13.4281 24.1914 13.4281C26.8159 13.4281 28.9508 15.5633 28.9508 18.1881C28.9505 19.5207 28.5198 20.8955 27.6809 22.2731C27.017 23.3631 26.0959 24.4598 24.9455 25.5334C22.9952 27.3535 21.0172 28.5063 20.9934 28.5201L20.9934 28.5201C20.9338 28.5547 20.8672 28.5719 20.8008 28.5719C20.7359 28.5719 20.6709 28.5554 20.6124 28.5225M20.8008 14.8475L28.182 18.188C28.1818 19.5292 27.6786 20.8183 26.9539 21.9785C26.2295 23.1382 25.289 24.1606 24.4276 24.9652C22.8899 26.4015 21.333 27.4095 20.7997 27.739C20.7465 27.7078 20.6861 27.6731 20.619 27.6347C19.8225 27.178 18.0847 26.1816 16.3321 24.0184C16.1985 23.8534 15.9564 23.8282 15.7915 23.9617L15.7915 23.9617C15.6266 24.0954 15.6012 24.3374 15.7348 24.5024M15.7348 24.5024C15.7348 24.5024 15.7348 24.5024 15.7348 24.5024L15.8514 24.4079L15.7348 24.5024ZM15.7348 24.5024C16.8938 25.9329 18.1047 26.9329 19.0305 27.5781C19.4936 27.9008 19.8856 28.1349 20.1646 28.2898C20.3041 28.3673 20.4154 28.425 20.4931 28.464C20.532 28.4836 20.5624 28.4984 20.5836 28.5087L20.608 28.5204C20.61 28.5214 20.6115 28.5221 20.6124 28.5225M20.6124 28.5225C20.6142 28.5234 20.6142 28.5234 20.6133 28.5229C20.6124 28.5225 20.6104 28.5214 20.6083 28.5202L20.6834 28.3903L20.6082 28.5201C20.6096 28.5209 20.611 28.5217 20.6124 28.5225ZM24.1914 14.1969C26.3917 14.1969 28.182 15.9874 28.182 18.188L21.0985 15.6659C21.8608 14.7321 22.9879 14.1969 24.1914 14.1969Z" fill="#8C3213" stroke="#8C3213" stroke-width="0.3"/>
</svg>
