<svg width="19" height="16" viewBox="0 0 19 16" fill="none" xmlns="http://www.w3.org/2000/svg">
<path d="M8.7998 1.84752C7.90776 0.940494 6.69474 0.428125 5.40918 0.428125C2.78471 0.428125 0.649805 2.563 0.649805 5.1875C0.649805 6.7345 1.22788 8.33163 2.3521 9.93291L2.35211 9.93292C2.47411 10.1067 2.71384 10.1486 2.88756 10.0266C2.88756 10.0266 2.88757 10.0266 2.88757 10.0266L2.80137 9.90388C2.9073 9.8295 2.9329 9.68331 2.85852 9.57738C1.80349 8.07463 1.26855 6.59766 1.26855 5.1875C1.26855 2.90434 3.12602 1.04688 5.40918 1.04688C6.65784 1.04688 7.82749 1.60241 8.61824 2.57103C8.66277 2.62556 8.72943 2.65719 8.7998 2.65719C8.87018 2.65719 8.93687 2.62556 8.98137 2.57103C9.77212 1.60238 10.9418 1.04688 12.1904 1.04688C14.4736 1.04688 16.3311 2.90462 16.3311 5.18803L8.7998 1.84752ZM8.7998 1.84752C9.69185 0.940524 10.9049 0.428125 12.1904 0.428125C14.8149 0.428125 16.9498 2.56333 16.9498 5.18812C16.9495 6.52069 16.5189 7.89552 15.6799 9.27312C15.0161 10.3631 14.0949 11.4598 12.9445 12.5334C10.9942 14.3535 9.0162 15.5063 8.99243 15.5201L8.99239 15.5201C8.93279 15.5547 8.86623 15.5719 8.7998 15.5719C8.73491 15.5719 8.66993 15.5554 8.61142 15.5225M8.7998 1.84752L16.1811 5.18803C16.1808 6.52921 15.6776 7.81835 14.9529 8.97851C14.2285 10.1382 13.288 11.1606 12.4266 11.9652C10.8889 13.4015 9.33203 14.4095 8.79873 14.739C8.74555 14.7078 8.68514 14.6731 8.61805 14.6347C7.82151 14.178 6.08372 13.1816 4.33117 11.0184C4.19748 10.8534 3.9554 10.8282 3.79054 10.9617L3.79053 10.9617C3.62558 11.0954 3.60019 11.3374 3.73386 11.5024M3.73386 11.5024C3.73386 11.5024 3.73385 11.5024 3.73385 11.5024L3.8504 11.4079L3.73386 11.5024ZM3.73386 11.5024C4.89285 12.9329 6.10369 13.9329 7.02957 14.5781C7.4926 14.9008 7.88461 15.1349 8.16364 15.2898C8.30317 15.3673 8.41443 15.425 8.49216 15.464C8.53103 15.4836 8.56144 15.4984 8.58266 15.5087L8.60705 15.5204C8.60907 15.5214 8.61049 15.5221 8.61142 15.5225M8.61142 15.5225C8.61318 15.5234 8.61324 15.5234 8.61233 15.5229C8.6114 15.5225 8.60944 15.5214 8.60728 15.5202L8.68243 15.3903L8.60725 15.5201C8.60864 15.5209 8.61003 15.5217 8.61142 15.5225ZM12.1904 1.19688C14.3907 1.19688 16.181 2.98743 16.1811 5.188L9.09757 2.66589C9.85987 1.73207 10.9869 1.19688 12.1904 1.19688Z" fill="#8C3213" stroke="#8C3213" stroke-width="0.3"/>
</svg>
