<svg width="68" height="68" viewBox="0 0 68 68" fill="none" xmlns="http://www.w3.org/2000/svg">
<g filter="url(#filter0_d_25_1188)">
<circle cx="34" cy="29" r="20" fill="#8C3213"/>
<circle cx="34" cy="29" r="19.5" stroke="#8C3213"/>
</g>
<path d="M33.7998 22.8475C34.6918 21.9405 35.9049 21.4281 37.1904 21.4281C39.8149 21.4281 41.9498 23.5633 41.9498 26.1881C41.9495 27.5207 41.5189 28.8955 40.6799 30.2731C40.0161 31.3631 39.0949 32.4598 37.9445 33.5334C35.9942 35.3535 34.0162 36.5063 33.9924 36.5201L33.9924 36.5201C33.9328 36.5547 33.8662 36.5719 33.7998 36.5719C33.7349 36.5719 33.6699 36.5554 33.6114 36.5225M33.7998 22.8475L33.6824 36.3903M33.7998 22.8475C32.9078 21.9405 31.6947 21.4281 30.4092 21.4281C27.7847 21.4281 25.6498 23.563 25.6498 26.1875C25.6498 27.7345 26.2279 29.3316 27.3521 30.9329L27.3521 30.9329C27.4741 31.1067 27.7138 31.1486 27.8876 31.0266L33.7998 22.8475ZM33.6114 36.5225C33.61 36.5217 33.6087 36.521 33.6073 36.5202M33.6114 36.5225C33.6131 36.5234 33.6132 36.5234 33.6124 36.523C33.6116 36.5225 33.6095 36.5215 33.6073 36.5202M33.6114 36.5225C33.6105 36.5221 33.6091 36.5214 33.607 36.5204L33.5827 36.5087C33.5614 36.4984 33.531 36.4836 33.4922 36.464C33.4144 36.425 33.3032 36.3673 33.1636 36.2898C32.8846 36.1349 32.4926 35.9008 32.0296 35.5781C31.1037 34.9329 29.8929 33.9329 28.7339 32.5024M33.6073 36.5202C33.6073 36.5202 33.6073 36.5202 33.6073 36.5201L33.6824 36.3903M33.6073 36.5202L33.6824 36.3903M28.7339 32.5024L28.8504 32.4079M28.7339 32.5024C28.7339 32.5024 28.7339 32.5024 28.7339 32.5024L28.8504 32.4079M28.7339 32.5024C28.6002 32.3374 28.6256 32.0954 28.7905 31.9617L28.7905 31.9617C28.9554 31.8282 29.1975 31.8534 29.3312 32.0184L29.2146 32.1128L29.3312 32.0184C31.0837 34.1816 32.8215 35.178 33.618 35.6347C33.6851 35.6731 33.7455 35.7078 33.7987 35.739C34.332 35.4095 35.8889 34.4015 37.4266 32.9652C38.288 32.1606 39.2285 31.1382 39.9529 29.9785C40.6776 28.8183 41.1808 27.5292 41.1811 26.188L28.8504 32.4079M28.8504 32.4079C31.052 35.1253 33.4421 36.2746 33.6658 36.3822C33.6754 36.3868 33.6811 36.3896 33.6824 36.3903M34.0976 23.6659C34.8599 22.7321 35.9869 22.1969 37.1904 22.1969C39.3907 22.1969 41.181 23.9874 41.1811 26.188L34.0976 23.6659Z" fill="white" stroke="white" stroke-width="0.3"/>
<defs>
<filter id="filter0_d_25_1188" x="0" y="0" width="68" height="68" filterUnits="userSpaceOnUse" color-interpolation-filters="sRGB">
<feFlood flood-opacity="0" result="BackgroundImageFix"/>
<feColorMatrix in="SourceAlpha" type="matrix" values="0 0 0 0 0 0 0 0 0 0 0 0 0 0 0 0 0 0 127 0" result="hardAlpha"/>
<feOffset dy="5"/>
<feGaussianBlur stdDeviation="7"/>
<feComposite in2="hardAlpha" operator="out"/>
<feColorMatrix type="matrix" values="0 0 0 0 0.54902 0 0 0 0 0.196078 0 0 0 0 0.0745098 0 0 0 0.3 0"/>
<feBlend mode="normal" in2="BackgroundImageFix" result="effect1_dropShadow_25_1188"/>
<feBlend mode="normal" in="SourceGraphic" in2="effect1_dropShadow_25_1188" result="shape"/>
</filter>
</defs>
</svg>
