<svg width="40" height="40" viewBox="0 0 40 40" fill="none" xmlns="http://www.w3.org/2000/svg">
<path d="M12.875 17.6562C12.875 13.7291 16.0717 10.5 19.9922 10.5C23.9127 10.5 27.1094 13.7291 27.1094 17.6562C27.1094 19.209 26.6195 20.6813 25.6922 21.9188L19.9922 29.1896L14.299 21.9273C13.3647 20.681 12.875 19.2086 12.875 17.6562ZM15.3906 17.6562C15.3906 20.1937 17.4547 22.2578 19.9922 22.2578C22.5297 22.2578 24.5938 20.1937 24.5938 17.6562C24.5938 15.1188 22.5297 13.0547 19.9922 13.0547C17.4547 13.0547 15.3906 15.1188 15.3906 17.6562Z" stroke="#8C3213"/>
<path d="M17.5625 17.6562C17.5625 16.3172 18.6531 15.2266 19.9922 15.2266C21.3313 15.2266 22.4219 16.3172 22.4219 17.6562C22.4219 18.9953 21.3313 20.0859 19.9922 20.0859C18.6531 20.0859 17.5625 18.9953 17.5625 17.6562Z" stroke="#8C3213"/>
<circle cx="20" cy="20" r="19.5" stroke="#8C3213"/>
</svg>
