<svg width="40" height="40" viewBox="0 0 40 40" fill="none" xmlns="http://www.w3.org/2000/svg">
<path d="M24.1993 26.5455L22.0059 22.6764C21.9891 22.6515 21.9777 22.6234 21.9723 22.5938C21.9669 22.5643 21.9677 22.534 21.9745 22.5048C21.9814 22.4755 21.9942 22.4481 22.0122 22.424C22.0302 22.4 22.0529 22.3799 22.079 22.3651C22.1051 22.3502 22.134 22.3409 22.1638 22.3377C22.1936 22.3345 22.2238 22.3375 22.2525 22.3466C22.2811 22.3556 22.3076 22.3704 22.3302 22.3901C22.3528 22.4098 22.3712 22.434 22.384 22.4611L24.5775 26.3302L24.1993 26.5455Z" fill="#8C3213"/>
<path d="M19.1677 17.4546C19.1293 17.4541 19.0917 17.4437 19.0585 17.4243C19.0253 17.405 18.9978 17.3773 18.9786 17.344L16.7852 13.4778L17.1633 13.2596L19.3568 17.1287C19.3841 17.1782 19.3909 17.2364 19.3757 17.2909C19.3604 17.3453 19.3244 17.3916 19.2753 17.4196C19.2428 17.4397 19.2059 17.4517 19.1677 17.4546Z" fill="#8C3213"/>
<path d="M22.0542 27.1971C21.7321 27.2026 21.4105 27.1674 21.0971 27.0924C17.9699 26.2284 13.8622 18.9818 14.7262 15.8575C15.1195 14.7504 15.8736 13.8078 16.8673 13.1811C17.0593 13.0676 17.2542 12.9658 17.4491 12.8727C17.628 12.7913 17.8309 12.7799 18.0178 12.8407C18.2047 12.9016 18.362 13.0303 18.4586 13.2015L20.1022 16.1105C20.1568 16.2058 20.1907 16.3116 20.2017 16.4208C20.2128 16.5301 20.2007 16.6404 20.1662 16.7447C20.1312 16.8492 20.0748 16.9453 20.0007 17.027C19.9266 17.1086 19.8363 17.1739 19.7357 17.2189C19.5757 17.2887 19.4186 17.3615 19.2673 17.44C18.607 17.7716 18.2288 18.0713 18.1415 18.3331C17.9408 18.9556 18.1793 20.0087 18.7495 21.0153C19.3197 22.0218 20.0877 22.7607 20.7306 22.8975C20.9197 22.9411 21.3124 22.8975 22.0746 22.3942C22.2201 22.304 22.3655 22.2051 22.5081 22.1033C22.5976 22.0398 22.6995 21.9957 22.8072 21.974C22.9148 21.9523 23.0258 21.9534 23.133 21.9773C23.2401 22.0011 23.3411 22.0472 23.4294 22.1125C23.5177 22.1778 23.5913 22.2609 23.6455 22.3564L25.2921 25.2655C25.3904 25.4365 25.4208 25.6383 25.3771 25.8308C25.3335 26.0232 25.219 26.1921 25.0564 26.304C24.879 26.4204 24.6899 26.5367 24.4921 26.6444C23.736 27.0227 22.8995 27.2123 22.0542 27.1971ZM17.7721 13.2335C17.7238 13.2344 17.6762 13.2452 17.6324 13.2655C17.4521 13.3498 17.2688 13.4487 17.0884 13.5564C16.193 14.1258 15.51 14.9744 15.1451 15.9709C14.7786 17.3004 15.4215 19.712 16.783 22.112C18.1444 24.512 19.8841 26.304 21.2135 26.6735C22.2548 26.8733 23.3329 26.7261 24.2826 26.2545C24.4688 26.1527 24.6462 26.0451 24.8121 25.9345C24.8833 25.8844 24.9333 25.8095 24.9521 25.7245C24.9709 25.6394 24.9573 25.5504 24.9139 25.4749L23.2673 22.5658C23.2432 22.5235 23.2106 22.4867 23.1716 22.4577C23.1325 22.4286 23.0878 22.408 23.0404 22.3971C22.9906 22.3856 22.9389 22.3849 22.8887 22.3949C22.8385 22.4049 22.7911 22.4255 22.7495 22.4553C22.6011 22.56 22.4586 22.6618 22.3015 22.7462C21.5626 23.2233 21.0302 23.4007 20.6259 23.3105C19.855 23.136 19.0084 22.3535 18.3626 21.216C17.8593 20.3433 17.4288 19.0749 17.7197 18.1847C17.8448 17.7978 18.2724 17.4313 19.0608 17.0211C19.2179 16.9396 19.3837 16.864 19.5495 16.7913C19.5948 16.7712 19.6356 16.7419 19.6691 16.7054C19.7026 16.6689 19.7283 16.6258 19.7444 16.5789C19.7605 16.5311 19.7662 16.4805 19.7612 16.4303C19.7562 16.3802 19.7406 16.3316 19.7153 16.288L18.0688 13.3789C18.0347 13.3328 17.9898 13.2957 17.9381 13.2708C17.8864 13.246 17.8294 13.2341 17.7721 13.2364V13.2335Z" fill="#8C3213"/>
<circle cx="20" cy="20" r="19.5" stroke="#8C3213"/>
</svg>
