<svg width="40" height="40" viewBox="0 0 40 40" fill="none" xmlns="http://www.w3.org/2000/svg">
<g clip-path="url(#clip0_114_6274)">
<path d="M27.866 13.8257H28.484C28.6996 13.8257 28.8744 13.6508 28.8744 13.4353C28.8744 13.2197 28.6996 13.0449 28.484 13.0449H27.0006C26.785 13.0449 26.6102 13.2197 26.6102 13.4353V14.9187C26.6102 15.1342 26.785 15.3091 27.0006 15.3091C27.2162 15.3091 27.391 15.1342 27.391 14.9187V14.4892C28.5754 16.0749 29.2193 17.9989 29.2193 20C29.2193 25.0835 25.0835 29.2193 20 29.2193C14.9165 29.2193 10.7807 25.0835 10.7807 20C10.7807 14.9165 14.9165 10.7807 20 10.7807C20.376 10.7807 20.7543 10.8036 21.1247 10.8486C21.3385 10.8744 21.5334 10.7222 21.5594 10.5082C21.5854 10.2942 21.433 10.0995 21.219 10.0735C20.8174 10.0247 20.4073 10 20 10C17.3289 10 14.8177 11.0402 12.9289 12.9289C11.0402 14.8177 10 17.3289 10 20C10 22.6711 11.0402 25.1823 12.9289 27.0711C14.8177 28.9598 17.3289 30 20 30C22.6711 30 25.1823 28.9598 27.0711 27.0711C28.9598 25.1823 30 22.6711 30 20C30 17.746 29.247 15.5821 27.866 13.8257Z" fill="#8C3213"/>
<path d="M14.233 15.8951C14.0508 15.7798 13.8097 15.834 13.6943 16.0161C12.8032 17.4236 12.4087 19.1163 12.5835 20.7825C12.7609 22.4733 13.522 24.0678 14.7264 25.2723C16.1799 26.7258 18.0893 27.4526 19.9986 27.4526C21.908 27.4526 23.8173 26.7259 25.2709 25.2723C28.178 22.3652 28.178 17.6349 25.2709 14.7279C24.0683 13.5253 22.4764 12.7645 20.7884 12.5858C19.1253 12.4095 17.4344 12.8009 16.0275 13.6877C15.8451 13.8027 15.7905 14.0437 15.9054 14.2261C16.0204 14.4085 16.2614 14.4631 16.4438 14.3482C19.0959 12.6767 22.4986 13.0597 24.7188 15.2799C27.3215 17.8826 27.3215 22.1175 24.7188 24.7202C22.1161 27.3229 17.8812 27.3229 15.2785 24.7202C13.089 22.5307 12.7002 19.0458 14.354 16.4338C14.4693 16.2516 14.4152 16.0105 14.233 15.8951Z" fill="#8C3213"/>
<path d="M25.074 20.3967H25.5554C25.7709 20.3967 25.9457 20.2219 25.9457 20.0063C25.9457 19.7908 25.7709 19.616 25.5554 19.616H25.074C24.8584 19.616 24.6836 19.7908 24.6836 20.0063C24.6836 20.2219 24.8584 20.3967 25.074 20.3967Z" fill="#8C3213"/>
<path d="M14.0547 19.9937C14.0547 20.2093 14.2295 20.3841 14.4451 20.3841H14.9265C15.142 20.3841 15.3168 20.2093 15.3168 19.9937C15.3168 19.7781 15.142 19.6033 14.9265 19.6033H14.4451C14.2295 19.6033 14.0547 19.7781 14.0547 19.9937Z" fill="#8C3213"/>
<path d="M20.3979 14.9252V14.4438C20.3979 14.2282 20.2231 14.0534 20.0076 14.0534C19.792 14.0534 19.6172 14.2282 19.6172 14.4438V14.9252C19.6172 15.1407 19.792 15.3155 20.0076 15.3155C20.2231 15.3155 20.3979 15.1407 20.3979 14.9252Z" fill="#8C3213"/>
<path d="M19.6016 25.0748V25.5562C19.6016 25.7718 19.7764 25.9466 19.9919 25.9466C20.2075 25.9466 20.3823 25.7718 20.3823 25.5562V25.0748C20.3823 24.8593 20.2075 24.6844 19.9919 24.6844C19.7764 24.6844 19.6016 24.8592 19.6016 25.0748Z" fill="#8C3213"/>
<path d="M18.0414 17.4912C17.889 17.3388 17.6418 17.3388 17.4893 17.4912C17.3369 17.6437 17.3369 17.8908 17.4893 18.0433L18.8123 19.3663C18.711 19.5553 18.6533 19.771 18.6533 20C18.6533 20.7415 19.2566 21.3448 19.9981 21.3448C20.7397 21.3448 21.3429 20.7415 21.3429 20C21.3429 19.771 21.2852 19.5553 21.1839 19.3663L23.8534 16.6969C24.0058 16.5444 24.0058 16.2972 23.8534 16.1448C23.7009 15.9924 23.4538 15.9924 23.3013 16.1448L20.6318 18.8142C20.4429 18.7128 20.2271 18.6552 19.9981 18.6552C19.7691 18.6552 19.5534 18.7129 19.3644 18.8142L18.0414 17.4912ZM20.5622 20C20.5622 20.311 20.3092 20.5641 19.9981 20.5641C19.6871 20.5641 19.434 20.311 19.434 20C19.434 19.689 19.6871 19.4359 19.9981 19.4359C20.3092 19.4359 20.5622 19.689 20.5622 20Z" fill="#8C3213"/>
<path d="M15.2796 15.2796C15.3526 15.207 15.3944 15.1063 15.3944 15.0037C15.3944 14.901 15.3526 14.8007 15.2796 14.7277C15.207 14.6551 15.1067 14.6133 15.0036 14.6133C14.901 14.6133 14.8003 14.6551 14.7277 14.7277C14.6551 14.8003 14.6133 14.901 14.6133 15.0037C14.6133 15.1067 14.6551 15.207 14.7277 15.2796C14.8003 15.3522 14.901 15.394 15.0036 15.394C15.1067 15.394 15.207 15.3522 15.2796 15.2796Z" fill="#8C3213"/>
<path d="M22.7029 11.1664C22.806 11.1664 22.9067 11.1249 22.9793 11.052C23.0519 10.9794 23.0937 10.879 23.0937 10.776C23.0937 10.6733 23.0519 10.5726 22.9793 10.5C22.9067 10.4274 22.806 10.3856 22.7029 10.3856C22.6002 10.3856 22.4995 10.4274 22.4269 10.5C22.3543 10.5726 22.3125 10.6733 22.3125 10.776C22.3125 10.879 22.3543 10.9794 22.4269 11.052C22.4995 11.1249 22.6002 11.1664 22.7029 11.1664Z" fill="#8C3213"/>
</g>
<circle cx="20" cy="20" r="19.5" stroke="#8C3213"/>
<defs>
<clipPath id="clip0_114_6274">
<rect width="20" height="20" fill="white" transform="translate(10 10)"/>
</clipPath>
</defs>
</svg>
