<svg width="20" height="20" viewBox="0 0 20 20" fill="none" xmlns="http://www.w3.org/2000/svg">
<g id="log-out (1) 1">
<g id="Group">
<path id="Vector" fill-rule="evenodd" clip-rule="evenodd" d="M3.33317 13.3333V15C3.33317 16.8417 4.82567 18.3333 6.6665 18.3333H14.9998C16.8415 18.3333 18.3332 16.8417 18.3332 15C18.3332 12.2258 18.3332 7.77499 18.3332 4.99999C18.3332 3.15916 16.8415 1.66666 14.9998 1.66666C12.6173 1.66666 9.04984 1.66666 6.6665 1.66666C4.82567 1.66666 3.33317 3.15916 3.33317 4.99999V6.66666C3.33317 7.12666 3.7065 7.49999 4.1665 7.49999C4.6265 7.49999 4.99984 7.12666 4.99984 6.66666C4.99984 6.66666 4.99984 5.88582 4.99984 4.99999C4.99984 4.07999 5.7465 3.33332 6.6665 3.33332H14.9998C15.9207 3.33332 16.6665 4.07999 16.6665 4.99999V15C16.6665 15.9208 15.9207 16.6667 14.9998 16.6667C12.6173 16.6667 9.04984 16.6667 6.6665 16.6667C5.7465 16.6667 4.99984 15.9208 4.99984 15C4.99984 14.115 4.99984 13.3333 4.99984 13.3333C4.99984 12.8742 4.6265 12.5 4.1665 12.5C3.7065 12.5 3.33317 12.8742 3.33317 13.3333ZM9.65484 9.16666L8.57734 8.08998C8.25234 7.76415 8.25234 7.23666 8.57734 6.91082C8.90317 6.58582 9.43067 6.58582 9.75567 6.91082L12.2557 9.41082C12.5815 9.73666 12.5815 10.2642 12.2557 10.59L9.75567 13.09C9.43067 13.415 8.90317 13.415 8.57734 13.09C8.25234 12.7642 8.25234 12.2367 8.57734 11.9108L9.65484 10.8333H2.49984C2.03984 10.8333 1.6665 10.46 1.6665 9.99999C1.6665 9.54082 2.03984 9.16666 2.49984 9.16666H9.65484Z" fill="#84BE51"/>
</g>
</g>
</svg>
