<svg width="158" height="71" viewBox="0 0 158 71" fill="none" xmlns="http://www.w3.org/2000/svg">
<g id="Logo" clip-path="url(#clip0_25_1215)">
<g id="Group 135">
<path id="Vector" d="M-2.52179e-06 45.1728V3.25837C-0.0102702 2.82805 0.0670683 2.40017 0.227337 2.00111C0.387606 1.60204 0.62738 1.24023 0.931851 0.937985C1.22229 0.636008 1.57101 0.397035 1.95659 0.235723C2.34217 0.0744121 2.75643 -0.00584043 3.17395 -4.25122e-05H21.8677C31.5462 -4.25122e-05 38.5856 1.94654 42.9858 5.83965C47.386 9.73277 49.5883 15.8451 49.593 24.1768C49.593 32.4896 47.3906 38.5879 42.9858 42.4716C38.5809 46.3553 31.5416 48.2972 21.8677 48.2972H3.17395C2.75995 48.3045 2.34863 48.2291 1.96378 48.0753C1.57892 47.9216 1.2282 47.6925 0.931851 47.4015C0.626295 47.1194 0.384834 46.7743 0.224002 46.3896C0.0631696 46.005 -0.0132095 45.5899 -2.52179e-06 45.1728ZM12.612 38.7407H21.5034C27.5011 38.7407 31.5812 37.6405 33.744 35.44C35.9067 33.2395 36.9881 29.4781 36.9881 24.1556C36.9881 18.8237 35.9067 15.0623 33.744 12.8712C31.5812 10.6802 27.5011 9.57527 21.5034 9.55646H12.612V38.7407Z" fill="#1F1B1C"/>
<path id="Vector_2" d="M67.6143 36.6179V36.6531H73.2896C73.8992 36.6531 74.4947 36.6531 75.0833 36.6179H67.6143Z" fill="#84C551"/>
<path id="Vector_3" d="M109.206 6.36154V3.19487C109.192 2.7716 109.265 2.34999 109.42 1.95616C109.574 1.56233 109.808 1.20463 110.105 0.90518C110.403 0.605725 110.758 0.370887 111.149 0.215187C111.54 0.0594866 111.959 -0.0137742 112.38 -4.61343e-05H154.819C155.24 -0.0148172 155.659 0.0577462 156.051 0.213077C156.443 0.368408 156.798 0.603185 157.096 0.902855C157.394 1.20252 157.627 1.56065 157.781 1.95496C157.936 2.34926 158.008 2.77133 157.993 3.19487V6.36154C158.006 6.78168 157.933 7.19997 157.778 7.59057C157.624 7.98117 157.392 8.33581 157.096 8.63255C156.795 8.92665 156.438 9.15685 156.047 9.3095C155.656 9.46215 155.238 9.53411 154.819 9.52116H139.902V45.1728C139.91 45.5838 139.833 45.992 139.675 46.371C139.517 46.75 139.281 47.0914 138.984 47.3733C138.692 47.6647 138.345 47.8941 137.964 48.048C137.582 48.2019 137.174 48.277 136.763 48.2689H130.457C130.045 48.2775 129.635 48.2027 129.253 48.0488C128.87 47.8949 128.522 47.6652 128.229 47.3733C127.932 47.0914 127.696 46.75 127.538 46.371C127.38 45.992 127.303 45.5838 127.311 45.1728V9.54234H112.394C111.975 9.55514 111.559 9.48305 111.169 9.33038C110.779 9.17771 110.423 8.94757 110.124 8.65369C109.82 8.35709 109.582 7.99997 109.424 7.60525C109.266 7.21052 109.192 6.7869 109.206 6.36154Z" fill="#1F1B1C"/>
<path id="Vector_4" d="M0.938933 67.7275V58.6718C0.937469 58.5778 0.954672 58.4844 0.989567 58.3972C1.02446 58.31 1.07637 58.2307 1.14215 58.164C1.20513 58.0997 1.28046 58.049 1.36359 58.015C1.44673 57.9811 1.53587 57.9645 1.62557 57.9665H3.04093C3.12951 57.9651 3.21748 57.9819 3.2994 58.0158C3.38132 58.0498 3.45551 58.1002 3.51742 58.164C3.5832 58.2307 3.63502 58.31 3.66992 58.3972C3.70481 58.4844 3.72202 58.5778 3.72055 58.6718V66.3381H10.0265C10.1169 66.3358 10.2068 66.3528 10.2901 66.388C10.3735 66.4233 10.4485 66.476 10.51 66.5426C10.6352 66.6734 10.7054 66.8477 10.7062 67.0293V67.7346C10.7037 67.9137 10.6336 68.0851 10.51 68.2141C10.4471 68.2784 10.3717 68.3292 10.2885 68.3631C10.2054 68.3971 10.1162 68.4136 10.0265 68.4116H1.6396C1.46017 68.4128 1.28716 68.3446 1.15618 68.2212C1.08497 68.161 1.02833 68.0853 0.990679 67.9997C0.953031 67.9142 0.935337 67.821 0.938933 67.7275Z" fill="#84C551"/>
<path id="Vector_5" d="M12.3598 67.4807C11.6389 66.6245 11.2432 65.5386 11.2432 64.4163C11.2432 63.2939 11.6389 62.208 12.3598 61.3519C13.249 60.661 14.3405 60.2863 15.4637 60.2863C16.587 60.2863 17.6786 60.661 18.5677 61.3519C18.9537 61.7421 19.2526 62.2106 19.4447 62.7262C19.6368 63.2418 19.7176 63.7927 19.6818 64.3422V64.7583C19.6838 64.8789 19.6384 64.9955 19.5556 65.0827C19.5134 65.125 19.463 65.1581 19.4076 65.1799C19.3521 65.2018 19.2928 65.2119 19.2333 65.2097H13.7891C13.7937 65.6912 13.976 66.1537 14.3006 66.5074C14.7001 66.8162 15.2004 66.9622 15.702 66.9164C15.9388 66.9448 16.1791 66.9204 16.4055 66.8448C16.632 66.7692 16.8391 66.6444 17.0122 66.4792C17.1159 66.3439 17.2484 66.2338 17.4 66.1569C17.5516 66.08 17.7183 66.0383 17.888 66.0348H18.9671C19.0266 66.0326 19.0859 66.0428 19.1414 66.0646C19.1968 66.0865 19.2471 66.1196 19.2894 66.1618C19.331 66.2046 19.3636 66.2553 19.3853 66.3111C19.407 66.3668 19.4173 66.4264 19.4155 66.4862C19.4155 67.8968 18.0983 68.6021 15.4637 68.6021C14.3231 68.6519 13.2086 68.2493 12.3598 67.4807ZM13.7612 63.644H17.1243C17.0753 62.5015 16.5217 61.9302 15.4497 61.9302C14.3777 61.9302 13.8452 62.5015 13.7821 63.644H13.7612Z" fill="#84C551"/>
<path id="Vector_6" d="M24.7613 66.8177L25.7563 66.726H26.0226C26.082 66.7242 26.1412 66.7346 26.1965 66.7564C26.2519 66.7782 26.3024 66.8111 26.3449 66.853C26.3863 66.8944 26.4189 66.9439 26.4406 66.9985C26.4623 67.0531 26.4726 67.1115 26.4709 67.1703V67.9532C26.4703 68.0064 26.4588 68.0589 26.4371 68.1074C26.4154 68.156 26.384 68.1995 26.3449 68.2353C26.258 68.3224 26.1444 68.3771 26.0226 68.3904C25.3864 68.5011 24.7412 68.5507 24.0957 68.5386C22.0311 68.5386 20.9964 67.4478 20.9918 65.2661V58.4108C20.9898 58.2902 21.0351 58.1736 21.1179 58.0864C21.1594 58.0456 21.2088 58.0139 21.2631 57.9933C21.3173 57.9726 21.3753 57.9635 21.4332 57.9665H23.0518C23.1097 57.9635 23.1675 57.9726 23.2218 57.9933C23.2761 58.0139 23.3255 58.0456 23.367 58.0864C23.4498 58.1736 23.4951 58.2902 23.4931 58.4108V60.844H25.5041C25.6207 60.8412 25.7337 60.8842 25.8194 60.9639C25.8613 61.0064 25.8942 61.0571 25.9159 61.1129C25.9376 61.1687 25.9476 61.2285 25.9454 61.2884V62.1488C25.9476 62.2087 25.9376 62.2684 25.9159 62.3242C25.8942 62.38 25.8613 62.4307 25.8194 62.4732C25.7779 62.514 25.7284 62.5457 25.6741 62.5664C25.6199 62.587 25.562 62.5961 25.5041 62.5931H23.4931V65.2591C23.4653 65.6693 23.5874 66.0756 23.8365 66.4016C23.9488 66.5375 24.0906 66.6457 24.2509 66.7178C24.4112 66.7899 24.5858 66.8241 24.7613 66.8177Z" fill="#84C551"/>
<path id="Vector_7" d="M29.2526 57.9665C29.8691 57.9665 30.1844 58.1922 30.1844 58.6718C30.1783 58.8253 30.1426 58.9762 30.0793 59.1161L29.2175 61.3095C29.122 61.543 28.9674 61.7473 28.769 61.9019C28.5709 62.0625 28.3227 62.1474 28.0684 62.1417H27.7812C27.4799 62.1417 27.2907 62.0782 27.2066 61.9513C27.1312 61.8333 27.0899 61.6966 27.0874 61.5563C27.0802 61.4248 27.0802 61.2929 27.0874 61.1614L27.5149 58.8199C27.5678 58.5782 27.7107 58.3662 27.9143 58.2275C28.1161 58.0738 28.3618 57.9897 28.6149 57.9877L29.2526 57.9665Z" fill="#84C551"/>
<path id="Vector_8" d="M31.2144 62.6284C31.2144 61.0533 32.4709 60.2681 34.9839 60.2728C37.6184 60.2728 38.9427 60.9781 38.9427 62.3886C38.9437 62.4472 38.9329 62.5054 38.9111 62.5598C38.8892 62.6141 38.8567 62.6635 38.8155 62.7049C38.7743 62.7464 38.7253 62.7791 38.6713 62.801C38.6173 62.823 38.5595 62.8339 38.5013 62.8329H37.4222C37.2525 62.834 37.0848 62.7951 36.9327 62.7191C36.7806 62.6432 36.6483 62.5324 36.5464 62.3957C36.3592 62.2235 36.1365 62.095 35.8943 62.0194C35.6521 61.9439 35.3962 61.923 35.1451 61.9584C34.2109 61.9584 33.7437 62.1935 33.7437 62.6637C33.7437 62.8823 33.933 63.0586 34.3043 63.2068C34.7587 63.3772 35.2278 63.5047 35.7056 63.5876C36.2471 63.6989 36.7827 63.8378 37.3102 64.0037C37.835 64.1574 38.3155 64.4356 38.7115 64.8148C38.8958 64.9988 39.0405 65.219 39.1369 65.4616C39.2334 65.7042 39.2793 65.9641 39.272 66.2253C39.272 67.791 37.9455 68.5738 35.2923 68.5738C32.6391 68.5738 31.3148 67.8686 31.3195 66.4581C31.3175 66.3983 31.3278 66.3387 31.3497 66.283C31.3715 66.2274 31.4044 66.1768 31.4465 66.1345C31.4885 66.0922 31.5387 66.059 31.594 66.037C31.6493 66.015 31.7085 66.0047 31.7679 66.0067H32.847C33.0172 66.007 33.1851 66.0473 33.3371 66.1244C33.4892 66.2016 33.6213 66.3134 33.7228 66.451C33.9111 66.6215 34.1338 66.7489 34.3757 66.8244C34.6177 66.8999 34.873 66.9217 35.1241 66.8883C36.2242 66.8883 36.7777 66.6555 36.7777 66.183C36.7777 65.9644 36.5885 65.781 36.2171 65.6399C35.7612 65.4709 35.2926 65.3388 34.8158 65.245C34.2693 65.1321 33.7368 64.9911 33.2043 64.8289C32.6924 64.6738 32.2258 64.3954 31.845 64.0178C31.6489 63.8437 31.4915 63.63 31.3829 63.3907C31.2742 63.1513 31.2168 62.8916 31.2144 62.6284Z" fill="#84C551"/>
<path id="Vector_9" d="M46.258 66.7895C45.9112 66.4224 45.6427 65.9877 45.4692 65.5122C45.2957 65.0367 45.2207 64.5305 45.249 64.0248C45.2216 63.5077 45.3108 62.991 45.5098 62.5135C45.7087 62.036 46.0124 61.6099 46.3981 61.2672C47.3406 60.5466 48.5102 60.1934 49.6912 60.2727C50.4237 60.2784 51.1538 60.3588 51.8702 60.5125C52.4622 60.6139 53.0346 60.8091 53.5659 61.0909V67.8262C53.6006 68.2829 53.5222 68.741 53.3375 69.1596C53.1528 69.5781 52.8677 69.944 52.5079 70.2242C51.6183 70.7913 50.5741 71.0626 49.523 71C48.5144 71.0477 47.5072 70.8819 46.5662 70.5133C46.2509 70.3881 45.9818 70.1677 45.7961 69.8822C45.6104 69.5968 45.5172 69.2603 45.5293 68.9194C45.5271 68.8595 45.5372 68.7998 45.5589 68.744C45.5805 68.6882 45.6133 68.6374 45.6553 68.595C45.6978 68.553 45.7483 68.5202 45.8036 68.4984C45.859 68.4765 45.9182 68.4663 45.9777 68.4681H47.0567C47.2153 68.4631 47.373 68.4947 47.5176 68.5608C47.6621 68.6268 47.7897 68.7254 47.8905 68.8488C48.0718 69.0327 48.2919 69.1733 48.5345 69.2599C48.777 69.3466 49.0359 69.3773 49.2918 69.3496C49.7837 69.4029 50.2788 69.2833 50.6932 69.011C50.8339 68.8507 50.9397 68.6624 51.0036 68.4583C51.0676 68.2542 51.0884 68.0389 51.0645 67.8262V67.4877C50.3602 67.6765 49.6352 67.776 48.9064 67.7839C48.4213 67.8053 47.9368 67.7283 47.4818 67.5574C47.0268 67.3866 46.6107 67.1255 46.258 66.7895ZM49.5441 62.0359C48.402 62.0359 47.8275 62.6918 47.8275 64.0248C47.8275 65.3578 48.388 66.0207 49.5021 66.0207C50.0298 66.0129 50.5546 65.9394 51.0645 65.8021V62.1981C50.5675 62.0744 50.0558 62.0198 49.5441 62.0359Z" fill="#84C551"/>
<path id="Vector_10" d="M60.8247 62.2687L59.7106 62.2264C59.3392 62.2529 58.9786 62.3638 58.6558 62.5507C58.333 62.7376 58.0564 62.9956 57.8468 63.3054V67.9532C57.8485 68.0119 57.8382 68.0704 57.8165 68.125C57.7948 68.1796 57.7622 68.2292 57.7208 68.2706C57.6793 68.3114 57.6298 68.3431 57.5755 68.3637C57.5213 68.3844 57.4634 68.3934 57.4054 68.3904H55.7869C55.7289 68.3948 55.6705 68.3863 55.616 68.3656C55.5616 68.3449 55.5123 68.3125 55.4716 68.2706C55.4301 68.2292 55.3976 68.1796 55.3759 68.125C55.3542 68.0704 55.3439 68.0119 55.3455 67.9532V60.9004C55.3433 60.8406 55.3534 60.7808 55.3751 60.725C55.3968 60.6692 55.4296 60.6185 55.4716 60.576C55.5127 60.5343 55.562 60.5015 55.6162 60.4797C55.6704 60.4578 55.7285 60.4474 55.7869 60.4491H57.4054C57.4639 60.447 57.5221 60.4572 57.5764 60.4791C57.6307 60.5009 57.6799 60.5339 57.7208 60.576C57.7628 60.6185 57.7956 60.6692 57.8172 60.725C57.8389 60.7808 57.849 60.8406 57.8468 60.9004V61.3588C58.2761 61.0307 58.7475 60.7627 59.2482 60.5619C59.8241 60.371 60.4288 60.2827 61.0349 60.3009C61.1543 60.3011 61.2694 60.3464 61.3572 60.4279C61.398 60.4698 61.4301 60.5194 61.4518 60.5739C61.4734 60.6284 61.4842 60.6866 61.4833 60.7453V61.8526C61.4863 61.9115 61.4765 61.9703 61.4548 62.0251C61.433 62.0799 61.3997 62.1293 61.3572 62.1699C61.3147 62.2119 61.2643 62.2447 61.209 62.2665C61.1536 62.2883 61.0944 62.2987 61.0349 62.2969L60.8247 62.2687Z" fill="#84C551"/>
<path id="Vector_11" d="M63.2138 67.4948C62.4857 66.6337 62.0859 65.5399 62.0859 64.4092C62.0859 63.2785 62.4857 62.1847 63.2138 61.3236C64.1579 60.64 65.2915 60.2722 66.4544 60.2722C67.6174 60.2722 68.7509 60.64 69.695 61.3236C70.4231 62.1847 70.8229 63.2785 70.8229 64.4092C70.8229 65.5399 70.4231 66.6337 69.695 67.4948C68.7477 68.1704 67.6154 68.5333 66.4544 68.5333C65.2934 68.5333 64.1611 68.1704 63.2138 67.4948ZM65.0426 62.5155C64.7477 63.1001 64.5941 63.7465 64.5941 64.4021C64.5941 65.0577 64.7477 65.7042 65.0426 66.2888C65.4144 66.6626 65.9184 66.8725 66.4439 66.8725C66.9694 66.8725 67.4734 66.6626 67.8452 66.2888C68.14 65.7042 68.2936 65.0577 68.2936 64.4021C68.2936 63.7465 68.14 63.1001 67.8452 62.5155C67.4699 62.1485 66.9672 61.9431 66.4439 61.9431C65.9206 61.9431 65.4179 62.1485 65.0426 62.5155Z" fill="#84C551"/>
<path id="Vector_12" d="M71.4045 61.0627C71.3691 60.96 71.3456 60.8535 71.3345 60.7453C71.3345 60.5337 71.4606 60.4279 71.6988 60.4209H73.0441C73.2591 60.4184 73.4704 60.4771 73.6537 60.5902C73.825 60.7014 73.9535 60.8681 74.0181 61.0627L75.2022 64.984L76.3723 61.0627C76.412 60.8743 76.5169 60.7064 76.6684 60.5888C76.8199 60.4712 77.008 60.4117 77.199 60.4209H78.4743C78.666 60.4087 78.8556 60.4671 79.0077 60.5852C79.1598 60.7032 79.264 60.8729 79.301 61.0627L80.4712 64.984L81.6553 61.0627C81.7201 60.8662 81.8516 60.6989 82.0266 60.5902C82.2092 60.4753 82.421 60.4165 82.6362 60.4209H83.9745C84.2127 60.4209 84.3319 60.5337 84.3389 60.7453C84.3356 60.8539 84.3142 60.9612 84.2757 61.0627L82.0827 67.7558C82.0206 67.9478 81.8943 68.1122 81.7254 68.2212C81.5587 68.331 81.364 68.3898 81.1648 68.3905H80.1489C79.9465 68.3899 79.7488 68.3285 79.5813 68.2141C79.4138 68.1084 79.2896 67.9458 79.231 67.7558L77.8297 63.4183L76.4283 67.7558C76.3669 67.9463 76.2402 68.1087 76.071 68.2141C75.9064 68.3291 75.7108 68.3907 75.5105 68.3905H74.5085C74.3115 68.39 74.1189 68.3312 73.955 68.2212C73.7842 68.1126 73.6556 67.9483 73.5906 67.7558L71.4045 61.0627Z" fill="#84C551"/>
<path id="Vector_13" d="M94.3234 66.8177L95.3183 66.726H95.5845C95.644 66.7242 95.7032 66.7346 95.7586 66.7564C95.8139 66.7782 95.8644 66.8111 95.9069 66.853C95.9483 66.8944 95.9809 66.9439 96.0026 66.9985C96.0243 67.0531 96.0346 67.1115 96.0329 67.1703V67.9532C96.0323 68.0064 96.0208 68.0589 95.9991 68.1074C95.9774 68.156 95.946 68.1995 95.9069 68.2353C95.8201 68.3224 95.7063 68.3771 95.5845 68.3904C94.9483 68.5011 94.3032 68.5507 93.6577 68.5386C91.593 68.5386 90.5584 67.4478 90.5538 65.2661V58.4108C90.5518 58.2902 90.597 58.1736 90.6798 58.0864C90.7213 58.0456 90.7708 58.0139 90.8251 57.9933C90.8793 57.9726 90.9373 57.9635 90.9952 57.9665H92.6137C92.6716 57.9635 92.7295 57.9726 92.7838 57.9933C92.8381 58.0139 92.8875 58.0456 92.929 58.0864C93.0119 58.1736 93.0571 58.2902 93.0551 58.4108V60.844H95.073C95.1872 60.843 95.2975 60.8859 95.3814 60.9639C95.4243 61.0061 95.4582 61.0566 95.4811 61.1123C95.504 61.1681 95.5153 61.228 95.5145 61.2884V62.1488C95.5153 62.2092 95.504 62.269 95.4811 62.3248C95.4582 62.3806 95.4243 62.4311 95.3814 62.4732C95.3407 62.5131 95.2924 62.5443 95.2394 62.5649C95.1864 62.5855 95.1298 62.5951 95.073 62.5931H93.0551V65.2591C93.0273 65.6693 93.1494 66.0756 93.3984 66.4016C93.5108 66.5375 93.6526 66.6457 93.8129 66.7178C93.9732 66.7899 94.1479 66.8241 94.3234 66.8177Z" fill="#84C551"/>
<path id="Vector_14" d="M97.8267 67.4948C97.0986 66.6337 96.6987 65.5399 96.6987 64.4092C96.6987 63.2785 97.0986 62.1847 97.8267 61.3236C98.7708 60.64 99.9043 60.2722 101.067 60.2722C102.23 60.2722 103.364 60.64 104.308 61.3236C105.036 62.1847 105.436 63.2785 105.436 64.4092C105.436 65.5399 105.036 66.6337 104.308 67.4948C103.361 68.1704 102.228 68.5333 101.067 68.5333C99.9063 68.5333 98.774 68.1704 97.8267 67.4948ZM99.6554 62.5155C99.3606 63.1001 99.207 63.7465 99.207 64.4021C99.207 65.0577 99.3606 65.7042 99.6554 66.2888C99.823 66.4958 100.038 66.6586 100.282 66.763C100.527 66.8675 100.792 66.9105 101.057 66.8883C101.321 66.9087 101.586 66.8648 101.83 66.7605C102.074 66.6562 102.289 66.4944 102.458 66.2888C102.757 65.7055 102.913 65.0586 102.913 64.4021C102.913 63.7457 102.757 63.0988 102.458 62.5155C102.287 62.3134 102.071 62.1549 101.827 62.0531C101.584 61.9514 101.32 61.9093 101.057 61.9302C100.794 61.9069 100.529 61.948 100.285 62.0499C100.041 62.1518 99.8249 62.3115 99.6554 62.5155Z" fill="#84C551"/>
<path id="Vector_15" d="M107.321 66.7895C106.974 66.4224 106.706 65.9877 106.532 65.5122C106.359 65.0368 106.284 64.5306 106.312 64.0248C106.285 63.5077 106.374 62.9911 106.573 62.5135C106.772 62.036 107.075 61.6099 107.461 61.2672C108.405 60.545 109.578 60.1917 110.761 60.2728C111.491 60.2788 112.219 60.3592 112.933 60.5126C113.527 60.6154 114.102 60.8105 114.636 61.0909V67.8263C114.67 68.2835 114.59 68.742 114.404 69.1606C114.218 69.5792 113.932 69.9448 113.571 70.2242C112.683 70.7903 111.642 71.0616 110.593 71C109.584 71.049 108.577 70.8832 107.636 70.5133C107.32 70.389 107.051 70.1688 106.865 69.8831C106.679 69.5975 106.586 69.2606 106.599 68.9194C106.597 68.8596 106.608 68.8 106.629 68.7444C106.651 68.6887 106.684 68.6382 106.726 68.5958C106.768 68.5535 106.818 68.5204 106.874 68.4984C106.929 68.4764 106.988 68.4661 107.048 68.4681H108.141C108.3 68.462 108.458 68.4932 108.602 68.5593C108.747 68.6254 108.874 68.7246 108.974 68.8489C109.156 69.0319 109.377 69.1719 109.619 69.2585C109.861 69.3451 110.12 69.3763 110.376 69.3497C110.868 69.4066 111.364 69.2866 111.777 69.0111C111.919 68.8513 112.026 68.6632 112.091 68.4591C112.157 68.255 112.178 68.0394 112.155 67.8263V67.4877C111.449 67.6766 110.722 67.7761 109.99 67.7839C109.502 67.8082 109.013 67.7326 108.555 67.5617C108.096 67.3908 107.676 67.1281 107.321 66.7895ZM110.607 62.0359C109.465 62.0359 108.897 62.6918 108.897 64.0248C108.897 65.3578 109.451 66.0208 110.565 66.0208C111.095 66.013 111.622 65.9395 112.134 65.8021V62.1981C111.635 62.0746 111.121 62.02 110.607 62.0359Z" fill="#84C551"/>
<path id="Vector_16" d="M117.074 67.4807C116.353 66.6245 115.958 65.5386 115.958 64.4163C115.958 63.2939 116.353 62.208 117.074 61.3519C117.963 60.661 119.055 60.2863 120.178 60.2863C121.301 60.2863 122.393 60.661 123.282 61.3519C123.668 61.7421 123.967 62.2106 124.159 62.7262C124.351 63.2418 124.432 63.7927 124.396 64.3422V64.7583C124.398 64.8789 124.353 64.9955 124.27 65.0827C124.228 65.125 124.177 65.1581 124.122 65.1799C124.066 65.2018 124.007 65.2119 123.948 65.2097H118.504C118.508 65.6912 118.69 66.1537 119.015 66.5074C119.414 66.8162 119.915 66.9622 120.416 66.9164C120.653 66.9448 120.893 66.9204 121.12 66.8448C121.346 66.7692 121.553 66.6444 121.727 66.4792C121.83 66.3439 121.963 66.2338 122.114 66.1569C122.266 66.08 122.433 66.0383 122.602 66.0348H123.681C123.741 66.0329 123.8 66.0432 123.855 66.0652C123.911 66.0872 123.961 66.1204 124.003 66.1627C124.045 66.205 124.078 66.2556 124.1 66.3112C124.122 66.3669 124.132 66.4264 124.13 66.4862C124.13 67.8968 122.813 68.6021 120.178 68.6021C119.037 68.6519 117.923 68.2493 117.074 67.4807ZM118.475 63.644H121.839C121.79 62.5015 121.229 61.9302 120.164 61.9302C119.099 61.9302 118.56 62.5015 118.496 63.644H118.475Z" fill="#84C551"/>
<path id="Vector_17" d="M129.504 66.8177L130.492 66.726H130.765C130.885 66.724 131.001 66.7696 131.088 66.853C131.129 66.8944 131.162 66.9439 131.183 66.9985C131.205 67.0531 131.215 67.1116 131.214 67.1703V67.9532C131.213 68.0064 131.201 68.0589 131.18 68.1074C131.158 68.156 131.127 68.1995 131.088 68.2353C131 68.321 130.887 68.3755 130.765 68.3904C130.129 68.5008 129.484 68.5504 128.838 68.5386C126.769 68.5386 125.734 67.4478 125.734 65.2661V58.4108C125.732 58.2902 125.778 58.1736 125.861 58.0864C125.902 58.0456 125.951 58.0139 126.006 57.9933C126.06 57.9726 126.118 57.9635 126.176 57.9665H127.794C127.852 57.9635 127.91 57.9726 127.964 57.9933C128.019 58.0139 128.068 58.0456 128.11 58.0864C128.193 58.1736 128.238 58.2902 128.236 58.4108V60.844H130.247C130.363 60.8412 130.476 60.8842 130.562 60.9639C130.604 61.0064 130.637 61.0571 130.659 61.1129C130.68 61.1688 130.69 61.2285 130.688 61.2884V62.1488C130.69 62.2087 130.68 62.2684 130.659 62.3242C130.637 62.38 130.604 62.4307 130.562 62.4732C130.521 62.514 130.471 62.5457 130.417 62.5664C130.363 62.587 130.305 62.5961 130.247 62.5931H128.236V65.2591C128.208 65.6693 128.33 66.0757 128.579 66.4016C128.692 66.5375 128.833 66.6457 128.994 66.7178C129.154 66.79 129.329 66.8241 129.504 66.8177Z" fill="#84C551"/>
<path id="Vector_18" d="M132.398 67.9532V58.4108C132.396 58.2902 132.441 58.1736 132.524 58.0864C132.565 58.0456 132.615 58.0139 132.669 57.9933C132.723 57.9726 132.781 57.9635 132.839 57.9665H134.458C134.516 57.9635 134.573 57.9726 134.628 57.9933C134.682 58.0139 134.731 58.0456 134.773 58.0864C134.856 58.1736 134.901 58.2902 134.899 58.4108V61.3307C135.624 60.6651 136.566 60.2889 137.548 60.2728C137.967 60.2565 138.385 60.3248 138.777 60.4738C139.169 60.6228 139.528 60.8494 139.832 61.1402C140.149 61.4966 140.391 61.9143 140.543 62.3677C140.694 62.8212 140.753 63.301 140.715 63.778V67.9532C140.716 68.0109 140.706 68.0683 140.684 68.1217C140.662 68.1752 140.63 68.2234 140.589 68.2635C140.546 68.3058 140.496 68.3389 140.44 68.3607C140.385 68.3826 140.326 68.3926 140.266 68.3904H138.655C138.596 68.3921 138.538 68.3817 138.484 68.3599C138.43 68.338 138.38 68.3052 138.339 68.2635C138.298 68.2234 138.266 68.1752 138.244 68.1217C138.222 68.0683 138.212 68.0109 138.213 67.9532V63.778C138.213 62.6143 137.751 62.0359 136.812 62.0359C136.437 62.0735 136.074 62.1851 135.742 62.3642C135.41 62.5433 135.116 62.7864 134.878 63.0797V67.9532C134.88 68.0109 134.869 68.0683 134.847 68.1217C134.826 68.1752 134.793 68.2234 134.752 68.2635C134.711 68.3052 134.662 68.338 134.607 68.3599C134.553 68.3817 134.495 68.3921 134.437 68.3904H132.818C132.76 68.3921 132.702 68.3817 132.647 68.3599C132.593 68.338 132.544 68.3052 132.503 68.2635C132.465 68.2217 132.437 68.1726 132.419 68.1192C132.4 68.0659 132.393 68.0094 132.398 67.9532Z" fill="#84C551"/>
<path id="Vector_19" d="M143.174 67.4807C142.454 66.6239 142.06 65.5382 142.06 64.4163C142.06 63.2943 142.454 62.2087 143.174 61.3519C144.026 60.5925 145.142 60.2044 146.278 60.2728C147.407 60.2039 148.518 60.5809 149.375 61.3236C149.761 61.7139 150.06 62.1825 150.252 62.6981C150.444 63.2137 150.525 63.7645 150.489 64.314V64.7301C150.491 64.8508 150.446 64.9673 150.363 65.0546C150.321 65.0968 150.27 65.1299 150.215 65.1517C150.159 65.1736 150.1 65.1837 150.041 65.1815H144.575C144.577 65.6622 144.757 66.1248 145.08 66.4792C145.48 66.7867 145.98 66.9327 146.481 66.8883C146.719 66.9158 146.96 66.8909 147.188 66.8154C147.415 66.7399 147.623 66.6155 147.798 66.451C147.901 66.3146 148.033 66.2036 148.185 66.1266C148.337 66.0496 148.504 66.0086 148.674 66.0067H149.746C149.806 66.0045 149.865 66.0146 149.92 66.0365C149.976 66.0583 150.026 66.0913 150.069 66.1336C150.11 66.1763 150.143 66.2271 150.165 66.2829C150.186 66.3386 150.196 66.3982 150.195 66.458C150.195 67.8686 148.877 68.5738 146.243 68.5738C145.118 68.6221 144.018 68.2304 143.174 67.4807ZM144.575 63.644H147.932C147.883 62.5015 147.329 61.9302 146.257 61.9302C145.185 61.9302 144.638 62.5015 144.575 63.644Z" fill="#84C551"/>
<path id="Vector_20" d="M157.292 62.2687L156.178 62.2264C155.807 62.2535 155.446 62.3645 155.124 62.5514C154.801 62.7382 154.524 62.996 154.314 63.3054V67.9532C154.316 68.0119 154.306 68.0704 154.284 68.125C154.262 68.1796 154.23 68.2292 154.188 68.2706C154.147 68.3114 154.097 68.3431 154.043 68.3638C153.989 68.3844 153.931 68.3934 153.873 68.3904H152.283C152.224 68.3948 152.166 68.3864 152.112 68.3656C152.057 68.3449 152.008 68.3125 151.967 68.2706C151.926 68.2292 151.893 68.1796 151.871 68.125C151.85 68.0704 151.839 68.0119 151.841 67.9532V60.9005C151.839 60.8406 151.849 60.7809 151.871 60.7251C151.892 60.6692 151.925 60.6185 151.967 60.576C152.008 60.5343 152.058 60.5015 152.112 60.4797C152.166 60.4579 152.224 60.4474 152.283 60.4491H153.901C153.96 60.4461 154.018 60.4559 154.073 60.4778C154.127 60.4997 154.176 60.5332 154.216 60.576C154.258 60.6185 154.291 60.6692 154.313 60.7251C154.335 60.7809 154.345 60.8406 154.342 60.9005V61.3589C154.772 61.0308 155.243 60.7627 155.744 60.5619C156.32 60.3716 156.924 60.2833 157.53 60.301C157.65 60.3011 157.765 60.3465 157.853 60.4279C157.894 60.4698 157.926 60.5194 157.947 60.5739C157.969 60.6284 157.98 60.6866 157.979 60.7453V61.8526C157.982 61.9115 157.972 61.9704 157.95 62.0251C157.929 62.0799 157.895 62.1293 157.853 62.17C157.81 62.2119 157.76 62.2447 157.705 62.2665C157.649 62.2884 157.59 62.2987 157.53 62.2969L157.292 62.2687Z" fill="#84C551"/>
<path id="Vector_21" d="M54.7428 36.6179V36.6602L52.5147 45.1729C52.4419 45.5043 52.402 45.8421 52.3955 46.1814C52.4299 46.6727 52.6245 47.1388 52.9491 47.5073C53.1771 47.7762 53.4663 47.9859 53.792 48.1185C54.1176 48.251 54.4702 48.3027 54.8199 48.269H61.4132C62.3139 48.2572 63.1847 47.9418 63.8864 47.3733C64.6405 46.8217 65.1726 46.0157 65.3859 45.1023L67.614 36.639V36.6038L54.7428 36.6179Z" fill="#21603F"/>
<path id="Vector_22" d="M101.61 0.035293C101.449 0.021276 101.288 0.021276 101.127 0.035293H88.7811H81.326C74.3193 0.289192 69.0527 2.02417 65.5261 5.24022C65.3579 5.38833 65.1967 5.53641 65.0426 5.69863C63.0149 7.74632 61.5849 10.3153 60.9086 13.1252L54.7568 36.6108H75.0761C82.0501 36.3569 87.3004 34.636 90.8271 31.4482C90.9952 31.3001 91.1563 31.1449 91.3175 30.9898C93.3771 28.9387 94.8322 26.3535 95.5215 23.5209L101.673 0.035293H101.61ZM83.3509 20.3683C82.9389 21.9756 82.0981 23.4389 80.9196 24.6C80.7585 24.7551 80.5904 24.9103 80.4152 25.0584L80.1209 25.2912C78.7495 26.3418 77.1034 26.9668 75.3844 27.0896H70.0943L73.0301 16.2848C73.4333 14.6833 74.2588 13.2213 75.4194 12.0532C75.5806 11.898 75.7487 11.7428 75.9239 11.5947L76.2602 11.3197C77.6316 10.2691 79.2777 9.64405 80.9967 9.5212H86.2937L83.3509 20.3683Z" fill="#84C551"/>
<path id="Vector_23" d="M98.6466 23.6479C97.624 28.0042 95.0326 31.8239 91.3737 34.368V36.5896V45.0529C91.3581 45.4724 91.4285 45.8907 91.5806 46.2816C91.7327 46.6724 91.9633 47.0275 92.2579 47.3247C92.5524 47.6218 92.9046 47.8547 93.2926 48.0087C93.6806 48.1627 94.096 48.2345 94.5128 48.2196H100.819C101.233 48.2262 101.644 48.1504 102.028 47.9967C102.413 47.843 102.764 47.6144 103.061 47.3239C103.361 47.0439 103.6 46.7031 103.76 46.3239C103.921 45.9447 104 45.5356 103.993 45.1235V3.24426L98.6466 23.6479Z" fill="#1F1B1C"/>
</g>
</g>
<defs>
<clipPath id="clip0_25_1215">
<rect width="158" height="71" fill="white"/>
</clipPath>
</defs>
</svg>
