<svg width="28" height="28" viewBox="0 0 28 28" fill="none" xmlns="http://www.w3.org/2000/svg">
<g id="menu (42) 1">
<g id="Group">
<g id="Group_2">
<path id="Vector" d="M25.5391 3.33594H9.02344C7.66609 3.33594 6.5625 4.44008 6.5625 5.79688C6.5625 7.15422 7.66609 8.25781 9.02344 8.25781H25.5391C26.8959 8.25781 28 7.15422 28 5.79688C28 4.44008 26.8959 3.33594 25.5391 3.33594Z" fill="#84C551"/>
</g>
</g>
<g id="Group_3">
<g id="Group_4">
<path id="Vector_2" d="M25.5391 11.5391H9.02344C7.66609 11.5391 6.5625 12.6432 6.5625 14C6.5625 15.3573 7.66609 16.4609 9.02344 16.4609H25.5391C26.8959 16.4609 28 15.3573 28 14C28 12.6432 26.8959 11.5391 25.5391 11.5391Z" fill="#84C551"/>
</g>
</g>
<g id="Group_5">
<g id="Group_6">
<path id="Vector_3" d="M25.5391 19.7422H9.02344C7.66609 19.7422 6.5625 20.8463 6.5625 22.2031C6.5625 23.5605 7.66609 24.6641 9.02344 24.6641H25.5391C26.8959 24.6641 28 23.5605 28 22.2031C28 20.8463 26.8959 19.7422 25.5391 19.7422Z" fill="#84C551"/>
</g>
</g>
<g id="Group_7">
<g id="Group_8">
<path id="Vector_4" d="M2.46094 3.33594C1.10359 3.33594 0 4.44008 0 5.79688C0 7.15422 1.10359 8.25781 2.46094 8.25781C3.81773 8.25781 4.92188 7.15422 4.92188 5.79688C4.92188 4.44008 3.81773 3.33594 2.46094 3.33594Z" fill="#84C551"/>
</g>
</g>
<g id="Group_9">
<g id="Group_10">
<path id="Vector_5" d="M2.46094 11.5391C1.10359 11.5391 0 12.6432 0 14C0 15.3573 1.10359 16.4609 2.46094 16.4609C3.81773 16.4609 4.92188 15.3573 4.92188 14C4.92188 12.6432 3.81773 11.5391 2.46094 11.5391Z" fill="#84C551"/>
</g>
</g>
<g id="Group_11">
<g id="Group_12">
<path id="Vector_6" d="M2.46094 19.7422C1.10359 19.7422 0 20.8463 0 22.2031C0 23.5605 1.10359 24.6641 2.46094 24.6641C3.81773 24.6641 4.92188 23.5605 4.92188 22.2031C4.92188 20.8463 3.81773 19.7422 2.46094 19.7422Z" fill="#84C551"/>
</g>
</g>
</g>
</svg>
