<svg width="20" height="20" viewBox="0 0 20 20" fill="none" xmlns="http://www.w3.org/2000/svg">
<g id="clipboard 1">
<g id="Group">
<g id="Group_2">
<g id="Group_3">
<path id="Vector" d="M15.8558 2.62037H14.0465V1.81092C14.0465 1.54903 13.7608 1.43001 13.4989 1.43001H12.0943C11.761 0.477697 10.9277 0.00154151 9.97537 0.00154151C9.03354 -0.0338659 8.17688 0.543636 7.85648 1.43001H6.47564C6.21375 1.43001 5.95186 1.54903 5.95186 1.81092V2.62037H4.14244C3.07019 2.63181 2.19298 3.47767 2.14258 4.54878V18.1906C2.14258 19.2381 3.09489 20 4.14244 20H15.8558C16.9034 20 17.8557 19.2381 17.8557 18.1906V4.54883C17.8053 3.47767 16.9281 2.63181 15.8558 2.62037ZM6.90413 2.38232H8.21357C8.44214 2.35443 8.62574 2.18054 8.66593 1.95378C8.80692 1.33978 9.3456 0.899032 9.97537 0.882445C10.5993 0.901356 11.1299 1.34347 11.261 1.95378C11.3037 2.18837 11.4994 2.3645 11.7371 2.38232H13.0942V4.28694H6.90413V2.38232ZM16.9034 18.1906C16.9034 18.7144 16.3796 19.0477 15.8558 19.0477H4.14244C3.61866 19.0477 3.09489 18.7144 3.09489 18.1906V4.54883C3.14347 4.00363 3.59515 3.58271 4.14244 3.57273H5.95182V4.78693C5.97697 5.05369 6.20801 5.25324 6.47559 5.23929H13.4988C13.7713 5.25419 14.0096 5.05738 14.0464 4.78693V3.57268H15.8558C16.403 3.58271 16.8548 4.00359 16.9033 4.54878V18.1906H16.9034Z" fill="white"/>
<path id="Vector_2" d="M8.16544 10.6436C7.98685 10.4553 7.69038 10.4447 7.4988 10.6198L5.9751 12.072L5.33229 11.4054C5.15371 11.2171 4.85723 11.2066 4.66566 11.3816C4.48124 11.5748 4.48124 11.8788 4.66566 12.072L5.64176 13.0719C5.72624 13.1665 5.84828 13.2189 5.97505 13.2148C6.10064 13.213 6.22044 13.1617 6.30835 13.0719L8.16535 11.3102C8.34945 11.1413 8.36175 10.8551 8.19283 10.6711C8.18417 10.6615 8.17501 10.6523 8.16544 10.6436Z" fill="white"/>
<path id="Vector_3" d="M14.9988 11.6674H9.52303C9.26005 11.6674 9.04688 11.8805 9.04688 12.1435C9.04688 12.4065 9.26005 12.6197 9.52303 12.6197H14.9988C15.2618 12.6197 15.4749 12.4065 15.4749 12.1435C15.4749 11.8805 15.2618 11.6674 14.9988 11.6674Z" fill="white"/>
<path id="Vector_4" d="M8.16544 6.83436C7.98685 6.64611 7.69038 6.63549 7.4988 6.81057L5.9751 8.26283L5.33229 7.59619C5.15371 7.40795 4.85723 7.39733 4.66566 7.57241C4.48124 7.76562 4.48124 8.06962 4.66566 8.26283L5.64176 9.26277C5.72624 9.35737 5.84828 9.40969 5.97505 9.40563C6.10064 9.40385 6.22044 9.3525 6.30835 9.26277L8.16535 7.501C8.34945 7.33212 8.36175 7.04594 8.19283 6.86188C8.18417 6.85227 8.17501 6.84311 8.16544 6.83436Z" fill="white"/>
<path id="Vector_5" d="M14.9988 7.85803H9.52303C9.26005 7.85803 9.04688 8.0712 9.04688 8.33418C9.04688 8.59716 9.26005 8.81033 9.52303 8.81033H14.9988C15.2618 8.81033 15.4749 8.59716 15.4749 8.33418C15.4749 8.0712 15.2618 7.85803 14.9988 7.85803Z" fill="white"/>
<path id="Vector_6" d="M8.16544 14.4527C7.98685 14.2645 7.69038 14.2539 7.4988 14.429L5.9751 15.8812L5.33229 15.2146C5.15371 15.0263 4.85723 15.0158 4.66566 15.1908C4.48124 15.384 4.48124 15.688 4.66566 15.8812L5.64176 16.8812C5.72624 16.9758 5.84828 17.0281 5.97505 17.024C6.10064 17.0222 6.22044 16.9709 6.30835 16.8812L8.16535 15.1194C8.34945 14.9505 8.36175 14.6643 8.19283 14.4803C8.18417 14.4707 8.17501 14.4615 8.16544 14.4527Z" fill="white"/>
<path id="Vector_7" d="M14.9988 15.4766H9.52303C9.26005 15.4766 9.04688 15.6897 9.04688 15.9527C9.04688 16.2157 9.26005 16.4289 9.52303 16.4289H14.9988C15.2618 16.4289 15.4749 16.2157 15.4749 15.9527C15.4749 15.6897 15.2618 15.4766 14.9988 15.4766Z" fill="white"/>
</g>
</g>
</g>
</g>
</svg>
