<svg width="16" height="17" viewBox="0 0 16 17" fill="none" xmlns="http://www.w3.org/2000/svg">
<g id="shopping-cart-empty-side-view 2">
<g id="Group">
<path id="Vector" d="M15.9077 4.34289C15.8161 4.21162 15.6687 4.13049 15.5086 4.12365L5.58366 3.69584C5.29889 3.68338 5.06093 3.90323 5.04875 4.18667C5.03665 4.47 5.25614 4.7094 5.53955 4.72157L14.7926 5.12045L12.9732 10.7969H4.87696L3.41425 2.83256C3.38209 2.658 3.26225 2.51238 3.09697 2.44754L0.701302 1.50638C0.437269 1.40301 0.139327 1.53269 0.0356332 1.79641C-0.0678819 2.06026 0.0617715 2.35838 0.325661 2.46207L2.45579 3.29889L3.94432 11.403C3.98918 11.6467 4.20151 11.8236 4.44933 11.8236H4.69624L4.13241 13.3898C4.08522 13.521 4.10466 13.6667 4.18497 13.7806C4.26518 13.8946 4.39562 13.9624 4.53487 13.9624H4.93034C4.68529 14.2352 4.53487 14.5943 4.53487 14.9892C4.53487 15.8384 5.22589 16.5293 6.07495 16.5293C6.92402 16.5293 7.61504 15.8384 7.61504 14.9892C7.61504 14.5943 7.46462 14.2352 7.2196 13.9624H10.5774C10.3322 14.2352 10.1818 14.5943 10.1818 14.9892C10.1818 15.8384 10.8727 16.5293 11.7219 16.5293C12.5712 16.5293 13.262 15.8384 13.262 14.9892C13.262 14.5943 13.1116 14.2352 12.8666 13.9624H13.3476C13.5839 13.9624 13.7754 13.7709 13.7754 13.5347C13.7754 13.2984 13.5839 13.1069 13.3476 13.1069H5.14357L5.60554 11.8235H13.3475C13.5708 11.8235 13.7683 11.6792 13.8363 11.4668L15.9753 4.79308C16.0245 4.64076 15.9993 4.47423 15.9077 4.34289ZM6.07499 15.6738C5.69749 15.6738 5.39049 15.3669 5.39049 14.9894C5.39049 14.6119 5.69749 14.3049 6.07499 14.3049C6.45249 14.3049 6.75945 14.6119 6.75945 14.9894C6.75945 15.3669 6.45249 15.6738 6.07499 15.6738ZM11.7219 15.6738C11.3444 15.6738 11.0374 15.3669 11.0374 14.9894C11.0374 14.6119 11.3444 14.3049 11.7219 14.3049C12.0994 14.3049 12.4064 14.6119 12.4064 14.9894C12.4064 15.3669 12.0994 15.6738 11.7219 15.6738Z" fill="#E74E13"/>
</g>
</g>
</svg>
