<svg width="63" height="63" viewBox="0 0 63 63" fill="none" xmlns="http://www.w3.org/2000/svg">
<g filter="url(#filter0_d_1_651)">
<rect x="8" y="8" width="47" height="47" rx="23.5" fill="white"/>
</g>
<g clip-path="url(#clip0_1_651)">
<path d="M39.9077 27.3428C39.8161 27.2115 39.6687 27.1304 39.5086 27.1235L29.5837 26.6957C29.2989 26.6833 29.0609 26.9031 29.0488 27.1865C29.0367 27.4699 29.2561 27.7093 29.5395 27.7215L38.7926 28.1203L36.9732 33.7968H28.877L27.4142 25.8324C27.3821 25.6579 27.2623 25.5123 27.097 25.4474L24.7013 24.5063C24.4373 24.4029 24.1393 24.5326 24.0356 24.7963C23.9321 25.0601 24.0618 25.3583 24.3257 25.462L26.4558 26.2988L27.9443 34.4029C27.9892 34.6465 28.2015 34.8235 28.4493 34.8235H28.6962L28.1324 36.3896C28.0852 36.5208 28.1047 36.6665 28.185 36.7805C28.2652 36.8945 28.3956 36.9623 28.5349 36.9623H28.9303C28.6853 37.2351 28.5349 37.5942 28.5349 37.9891C28.5349 38.8383 29.2259 39.5291 30.075 39.5291C30.924 39.5291 31.615 38.8383 31.615 37.9891C31.615 37.5942 31.4646 37.2351 31.2196 36.9623H34.5774C34.3322 37.2351 34.1818 37.5942 34.1818 37.9891C34.1818 38.8383 34.8727 39.5291 35.7219 39.5291C36.5712 39.5291 37.262 38.8383 37.262 37.9891C37.262 37.5942 37.1116 37.2351 36.8666 36.9623H37.3476C37.5839 36.9623 37.7754 36.7708 37.7754 36.5345C37.7754 36.2982 37.5839 36.1067 37.3476 36.1067H29.1436L29.6055 34.8233H37.3475C37.5708 34.8233 37.7683 34.6791 37.8363 34.4667L39.9753 27.793C40.0245 27.6406 39.9993 27.4741 39.9077 27.3428ZM30.075 38.6737C29.6975 38.6737 29.3905 38.3667 29.3905 37.9892C29.3905 37.6117 29.6975 37.3047 30.075 37.3047C30.4525 37.3047 30.7595 37.6117 30.7595 37.9892C30.7595 38.3667 30.4525 38.6737 30.075 38.6737ZM35.7219 38.6737C35.3444 38.6737 35.0374 38.3667 35.0374 37.9892C35.0374 37.6117 35.3444 37.3047 35.7219 37.3047C36.0994 37.3047 36.4064 37.6117 36.4064 37.9892C36.4064 38.3667 36.0994 38.6737 35.7219 38.6737Z" fill="#8C3213"/>
</g>
<defs>
<filter id="filter0_d_1_651" x="0" y="0" width="63" height="63" filterUnits="userSpaceOnUse" color-interpolation-filters="sRGB">
<feFlood flood-opacity="0" result="BackgroundImageFix"/>
<feColorMatrix in="SourceAlpha" type="matrix" values="0 0 0 0 0 0 0 0 0 0 0 0 0 0 0 0 0 0 127 0" result="hardAlpha"/>
<feOffset/>
<feGaussianBlur stdDeviation="4"/>
<feComposite in2="hardAlpha" operator="out"/>
<feColorMatrix type="matrix" values="0 0 0 0 0 0 0 0 0 0 0 0 0 0 0 0 0 0 0.15 0"/>
<feBlend mode="normal" in2="BackgroundImageFix" result="effect1_dropShadow_1_651"/>
<feBlend mode="normal" in="SourceGraphic" in2="effect1_dropShadow_1_651" result="shape"/>
</filter>
<clipPath id="clip0_1_651">
<rect width="16" height="16" fill="white" transform="translate(24 24)"/>
</clipPath>
</defs>
</svg>
