<svg width="20" height="20" viewBox="0 0 20 20" fill="none" xmlns="http://www.w3.org/2000/svg">
<g id="placeholder-filled-point (23) 1">
<g id="Group">
<path id="Vector" d="M9.9995 0C5.93986 0 2.63672 3.30314 2.63672 7.3632C2.63672 8.42222 2.85348 9.43334 3.28065 10.3687C5.12155 14.3971 8.65107 18.6501 9.68921 19.8575C9.76699 19.9478 9.88038 19.9998 9.99971 19.9998C10.119 19.9998 10.2324 19.9478 10.3102 19.8575C11.3479 18.6503 14.8775 14.3975 16.719 10.3687C17.1464 9.43334 17.3629 8.42222 17.3629 7.3632C17.3625 3.30314 14.0594 0 9.9995 0ZM9.9995 11.1877C7.89068 11.1877 6.17483 9.47182 6.17483 7.36299C6.17483 5.25396 7.89068 3.53812 9.9995 3.53812C12.1083 3.53812 13.8242 5.25396 13.8242 7.36299C13.8244 9.47182 12.1085 11.1877 9.9995 11.1877Z" fill="#8C3213"/>
</g>
</g>
</svg>
