<svg width="35" height="35" viewBox="0 0 35 35" fill="none" xmlns="http://www.w3.org/2000/svg">
<g id="sapling 1">
<g id="Group">
<path id="Vector" d="M4.91217 27.8985L8.20312 29.5436V33.2227C8.20312 33.6002 8.50924 33.9063 8.88672 33.9063H16.1328C16.5103 33.9063 16.8164 33.6002 16.8164 33.2227V24.2983C16.8164 22.204 15.2453 20.4671 13.1666 20.2588C13.1586 20.2565 10.275 19.8063 8.93724 18.4685L7.40202 16.934C6.8855 16.4174 6.1989 16.1328 5.46875 16.1328V10.6641C5.46875 9.15633 4.24211 7.92969 2.73438 7.92969C1.22664 7.92969 0 9.15633 0 10.6641V19.95C0 21.6014 0.458965 23.217 1.3272 24.6218C2.19536 26.0267 3.43506 27.1597 4.91217 27.8985ZM1.36719 10.6641C1.36719 9.9102 1.98051 9.29688 2.73438 9.29688C3.48824 9.29688 4.10156 9.9102 4.10156 10.6641V16.4993C3.26785 16.9814 2.73438 17.8801 2.73438 18.8672C2.73438 19.5973 3.01889 20.2838 3.53548 20.8004L7.03616 24.3018C7.30297 24.5687 7.73589 24.5688 8.0029 24.3018C8.26984 24.0349 8.26991 23.6021 8.00297 23.3351L4.50229 19.8337C4.24389 19.5753 4.10156 19.2321 4.10156 18.8672C4.10156 18.2886 4.46776 17.7704 5.01293 17.5779C5.01313 17.5778 5.01334 17.5777 5.01355 17.5776H5.01361C5.48502 17.4105 6.04427 17.5096 6.43542 17.9008L7.97063 19.4354C9.55562 21.0203 13.0185 21.6167 13.0254 21.6187C14.4072 21.7571 15.4492 22.9092 15.4492 24.2983V32.5391H9.57031V29.1211C9.57031 28.8622 9.42395 28.6254 9.19242 28.5097L5.52364 26.6756C2.95989 25.3935 1.36719 22.8164 1.36719 19.95V10.6641Z" fill="#84BE51"/>
<path id="Vector_2" d="M16.8164 16.8164C16.8164 17.194 17.1225 17.5 17.5 17.5C17.8775 17.5 18.1836 17.194 18.1836 16.8164V14.7656H20.8004C24.6346 14.7656 27.7539 11.6463 27.7539 7.81211V4.51172C27.7539 4.23528 27.5873 3.98597 27.3319 3.88015C27.0765 3.77433 26.7824 3.83285 26.5869 4.02835C25.8344 4.78092 24.834 5.19532 23.7699 5.19532C21.4836 5.19532 19.4517 6.30458 18.1836 8.01302V1.77735C18.1836 1.3998 17.8775 1.09375 17.5 1.09375C17.1225 1.09375 16.8164 1.3998 16.8164 1.77735V5.27872C15.5483 3.57028 13.5164 2.46094 11.2301 2.46094C10.166 2.46094 9.16556 2.04655 8.41306 1.29398C8.21762 1.09847 7.92353 1.03989 7.66808 1.14578C7.41269 1.25166 7.24609 1.5009 7.24609 1.77735V5.07774C7.24609 8.91195 10.3654 12.0313 14.1996 12.0313H16.8164V16.8164ZM23.7699 6.5625C24.7013 6.5625 25.5965 6.32612 26.3867 5.88171V7.81211C26.3867 10.8925 23.8807 13.3984 20.8004 13.3984H19.5508L23.3789 10.5273C23.6809 10.3009 23.7421 9.87233 23.5156 9.57032C23.2892 9.26831 22.8607 9.20699 22.5586 9.4336L18.1836 12.7148V12.1488C18.1836 9.06856 20.6896 6.5625 23.7699 6.5625ZM8.61328 5.07774V3.14734C9.40358 3.59174 10.2987 3.82813 11.2301 3.82813C14.3104 3.82813 16.8164 6.33418 16.8164 9.41446V9.98047L12.4414 6.69922C12.1394 6.47275 11.7109 6.53393 11.4844 6.83594C11.2579 7.13795 11.3191 7.5665 11.6211 7.79297L15.4492 10.6641H14.1996C11.1193 10.6641 8.61328 8.15808 8.61328 5.07774Z" fill="#84BE51"/>
<path id="Vector_3" d="M31.377 26.9336C31.7545 26.9336 32.0605 26.6275 32.0605 26.25C32.0605 25.8725 31.7545 25.5664 31.377 25.5664C30.9994 25.5664 30.6934 25.8725 30.6934 26.25C30.6934 26.6275 30.9994 26.9336 31.377 26.9336Z" fill="#84BE51"/>
<path id="Vector_4" d="M32.2656 7.92969C30.7579 7.92969 29.5312 9.15633 29.5312 10.6641V16.1328C28.8011 16.1328 28.1145 16.4173 27.5981 16.9338L26.0626 18.4686C24.7544 19.7769 21.8452 20.2563 21.8383 20.2583C19.7547 20.4672 18.1836 22.204 18.1836 24.2984V33.2227C18.1836 33.6002 18.4897 33.9063 18.8672 33.9063H26.1133C26.4908 33.9063 26.7969 33.6002 26.7969 33.2227V29.5436L29.0343 28.4251C29.3719 28.2563 29.5088 27.8457 29.34 27.508C29.1713 27.1703 28.7608 27.0334 28.4229 27.2022L25.8076 28.5096C25.576 28.6255 25.4297 28.8622 25.4297 29.1211V32.5391H19.5508V24.2983C19.5508 22.9092 20.5928 21.7572 21.9795 21.6181C21.9864 21.6162 25.3583 21.1064 27.0292 19.4354L28.5647 17.9006C28.956 17.5093 29.5158 17.4107 29.9864 17.5775H29.9865C29.9867 17.5776 29.9869 17.5777 29.9871 17.5778C30.5322 17.7705 30.8984 18.2887 30.8984 18.8672C30.8984 19.2321 30.7561 19.5753 30.4978 19.8338L26.9971 23.3352C26.7302 23.6022 26.7302 24.035 26.9972 24.3019C27.264 24.5688 27.697 24.5688 27.9639 24.3018L31.4646 20.8005C31.9811 20.2839 32.2656 19.5973 32.2656 18.8672C32.2656 17.8801 31.7321 16.9814 30.8984 16.4993V10.6641C30.8984 9.9102 31.5118 9.29688 32.2656 9.29688C33.0195 9.29688 33.6328 9.9102 33.6328 10.6641V19.95C33.6328 21.2007 33.3172 22.4424 32.72 23.5408C32.5396 23.8725 32.6623 24.2875 32.9941 24.4679C33.3257 24.6481 33.7409 24.5255 33.9212 24.1938C34.627 22.8957 35 21.4282 35 19.95V10.6641C35 9.15633 33.7734 7.92969 32.2656 7.92969Z" fill="#84BE51"/>
</g>
</g>
</svg>
