<svg width="24" height="24" viewBox="0 0 24 24" fill="none" xmlns="http://www.w3.org/2000/svg">
<g id="sapling 2" clip-path="url(#clip0_25_1122)">
<g id="Group">
<path id="Vector" d="M3.36834 19.1304L5.625 20.2585V22.7813C5.625 23.0401 5.83491 23.25 6.09375 23.25H11.0625C11.3213 23.25 11.5312 23.0401 11.5312 22.7813V16.6617C11.5312 15.2256 10.4539 14.0346 9.02855 13.8917C9.02302 13.8902 7.04573 13.5815 6.12839 12.6641L5.07567 11.6119C4.72148 11.2576 4.25067 11.0625 3.75 11.0625V7.3125C3.75 6.27863 2.90887 5.4375 1.875 5.4375C0.841125 5.4375 0 6.27863 0 7.3125V13.68C0 14.8124 0.314719 15.9202 0.910078 16.8835C1.50539 17.8469 2.35547 18.6238 3.36834 19.1304ZM0.9375 7.3125C0.9375 6.79556 1.35806 6.375 1.875 6.375C2.39194 6.375 2.8125 6.79556 2.8125 7.3125V11.3138C2.24081 11.6444 1.875 12.2607 1.875 12.9375C1.875 13.4381 2.07009 13.9089 2.42433 14.2631L4.8248 16.6641C5.00775 16.8471 5.30461 16.8472 5.4877 16.6641C5.67075 16.4811 5.6708 16.1843 5.48775 16.0012L3.08728 13.6002C2.91009 13.4231 2.8125 13.1877 2.8125 12.9375C2.8125 12.5408 3.06361 12.1854 3.43744 12.0534C3.43758 12.0533 3.43772 12.0533 3.43786 12.0532H3.43791C3.76116 11.9386 4.14464 12.0066 4.41286 12.2748L5.46558 13.3271C6.55242 14.4139 8.92697 14.8229 8.9317 14.8242C9.87923 14.9192 10.5938 15.7092 10.5938 16.6617V22.3125H6.5625V19.9688C6.5625 19.7912 6.46214 19.6289 6.30338 19.5495L3.78764 18.2918C2.02964 17.4127 0.9375 15.6455 0.9375 13.68V7.3125Z" fill="#84BE51"/>
<path id="Vector_2" d="M11.5312 11.5313C11.5312 11.7902 11.7412 12 12 12C12.2588 12 12.4688 11.7902 12.4688 11.5313V10.125H14.2631C16.8923 10.125 19.0312 7.98606 19.0312 5.35689V3.09376C19.0312 2.9042 18.917 2.73325 18.7419 2.66069C18.5667 2.58812 18.3651 2.62825 18.231 2.76231C17.715 3.27836 17.029 3.56251 16.2994 3.56251C14.7316 3.56251 13.3383 4.32316 12.4688 5.49466V1.21876C12.4688 0.959874 12.2588 0.750015 12 0.750015C11.7412 0.750015 11.5312 0.959874 11.5312 1.21876V3.6197C10.6617 2.4482 9.26836 1.68751 7.70062 1.68751C6.97097 1.68751 6.28495 1.40336 5.76895 0.887311C5.63494 0.753249 5.43328 0.713077 5.25811 0.785686C5.08298 0.858296 4.96875 1.0292 4.96875 1.21876V3.48189C4.96875 6.11106 7.1077 8.25001 9.73688 8.25001H11.5312V11.5313ZM16.2994 4.50001C16.938 4.50001 17.5519 4.33792 18.0938 4.03319V5.35689C18.0938 7.46912 16.3754 9.18751 14.2631 9.18751H13.4062L16.0312 7.21876C16.2383 7.06347 16.2803 6.76961 16.125 6.56251C15.9697 6.35542 15.6759 6.31337 15.4688 6.46876L12.4688 8.71876V8.33064C12.4688 6.21845 14.1871 4.50001 16.2994 4.50001ZM5.90625 3.48189V2.15819C6.44817 2.46292 7.06195 2.62501 7.70062 2.62501C9.81286 2.62501 11.5312 4.34345 11.5312 6.45564V6.84376L8.53125 4.59376C8.32416 4.43847 8.03034 4.48042 7.875 4.68751C7.7197 4.89461 7.76166 5.18847 7.96875 5.34376L10.5938 7.31251H9.73688C7.62464 7.31251 5.90625 5.59412 5.90625 3.48189Z" fill="#84BE51"/>
<path id="Vector_3" d="M21.5156 18.4688C21.7745 18.4688 21.9844 18.2589 21.9844 18C21.9844 17.7411 21.7745 17.5312 21.5156 17.5312C21.2567 17.5312 21.0469 17.7411 21.0469 18C21.0469 18.2589 21.2567 18.4688 21.5156 18.4688Z" fill="#84BE51"/>
<path id="Vector_4" d="M22.125 5.4375C21.0911 5.4375 20.25 6.27863 20.25 7.3125V11.0625C19.7493 11.0625 19.2785 11.2576 18.9244 11.6117L17.8715 12.6642C16.9745 13.5613 14.9796 13.89 14.9748 13.8914C13.5461 14.0347 12.4688 15.2256 12.4688 16.6618V22.7813C12.4688 23.0401 12.6787 23.25 12.9375 23.25H17.9062C18.1651 23.25 18.375 23.0401 18.375 22.7813V20.2585L19.9092 19.4915C20.1407 19.3757 20.2346 19.0942 20.1189 18.8626C20.0032 18.6311 19.7217 18.5372 19.49 18.6529L17.6966 19.5494C17.5379 19.6289 17.4375 19.7912 17.4375 19.9688V22.3125H13.4062V16.6617C13.4062 15.7092 14.1208 14.9192 15.0717 14.8238C15.0764 14.8225 17.3885 14.473 18.5343 13.3271L19.5872 12.2747C19.8555 12.0064 20.2394 11.9388 20.5621 12.0532H20.5621C20.5623 12.0532 20.5624 12.0533 20.5626 12.0533C20.9364 12.1855 21.1875 12.5408 21.1875 12.9375C21.1875 13.1877 21.0899 13.4231 20.9128 13.6003L18.5123 16.0013C18.3292 16.1843 18.3293 16.4811 18.5123 16.6642C18.6953 16.8472 18.9922 16.8472 19.1752 16.6641L21.5757 14.2632C21.9299 13.9089 22.125 13.4381 22.125 12.9375C22.125 12.2607 21.7592 11.6444 21.1875 11.3138V7.3125C21.1875 6.79556 21.6081 6.375 22.125 6.375C22.6419 6.375 23.0625 6.79556 23.0625 7.3125V13.68C23.0625 14.5376 22.8461 15.3891 22.4366 16.1423C22.3129 16.3697 22.397 16.6543 22.6245 16.778C22.8519 16.9016 23.1366 16.8175 23.2602 16.59C23.7442 15.6999 24 14.6936 24 13.68V7.3125C24 6.27863 23.1589 5.4375 22.125 5.4375Z" fill="#84BE51"/>
</g>
</g>
<defs>
<clipPath id="clip0_25_1122">
<rect width="24" height="24" fill="white"/>
</clipPath>
</defs>
</svg>
