<svg width="40" height="40" viewBox="0 0 40 40" fill="none" xmlns="http://www.w3.org/2000/svg">
<g clip-path="url(#clip0_25_1194)">
<path d="M27.9331 21.7674L25.2374 17.2743L27.6566 16.6023C27.9061 16.533 28.0521 16.2746 27.9828 16.0252C27.9135 15.7757 27.6551 15.6297 27.4057 15.699L24.3985 16.5343C24.3983 16.5344 24.3981 16.5344 24.3978 16.5345L20.4688 17.6259V12.4689C20.4688 12.21 20.2589 12.0002 20 12.0002C19.7411 12.0002 19.5313 12.21 19.5313 12.4689V17.8863L15.3612 19.0446C15.361 19.0447 15.3607 19.0447 15.3605 19.0447L12.3434 19.8828C12.094 19.9521 11.948 20.2105 12.0172 20.4599C12.0749 20.6674 12.2633 20.8033 12.4686 20.8033C12.5101 20.8033 12.5524 20.7977 12.5943 20.7861L14.4751 20.2637L12.067 24.2777C12.0233 24.3505 12.0002 24.4339 12.0002 24.5188C12.0002 26.4383 13.5618 27.9999 15.4813 27.9999C17.4009 27.9999 18.9625 26.4383 18.9625 24.5188C18.9625 24.4339 18.9394 24.3505 18.8957 24.2777L16.2 19.7846L23.5124 17.7534L21.1043 21.7674C21.0606 21.8402 21.0375 21.9236 21.0375 22.0085C21.0375 23.928 22.5991 25.4896 24.5186 25.4896C25.4485 25.4896 26.3227 25.1275 26.9802 24.47C27.6378 23.8125 27.9999 22.9383 27.9998 22.0085C27.9999 21.9236 27.9768 21.8402 27.9331 21.7674ZM15.4813 27.0624C14.2389 27.0624 13.2022 26.1669 12.9815 24.9876H17.9812C17.7605 26.1669 16.7238 27.0624 15.4813 27.0624ZM17.666 24.0501H13.2968L15.4813 20.4088L17.666 24.0501ZM24.5186 17.8985L26.7033 21.5397H22.3341L24.5186 17.8985ZM24.5187 24.5522C23.2763 24.5522 22.2395 23.6566 22.0188 22.4773H27.0186C26.7979 23.6566 25.7611 24.5522 24.5187 24.5522Z" fill="#8C3213"/>
</g>
<circle cx="20" cy="20" r="19.5" stroke="#8C3213"/>
<defs>
<clipPath id="clip0_25_1194">
<rect width="16" height="16" fill="white" transform="translate(12 12)"/>
</clipPath>
</defs>
</svg>
