<svg width="35" height="35" viewBox="0 0 35 35" fill="none" xmlns="http://www.w3.org/2000/svg">
<g clip-path="url(#clip0_14_30)">
<path d="M28.9108 24.9757L28.9108 24.9757C28.6778 24.7302 28.2901 24.72 28.0446 24.953C25.663 27.2127 22.9027 29.2169 21.0163 30.0615L21.0163 30.0615C19.2388 30.8581 17.2962 31.0536 15.429 30.6422C16.2578 30.134 17.0088 29.5111 17.6598 28.7955C21.8102 28.2517 24.7821 25.2651 24.9086 25.1361L24.9087 25.1361C25.1456 24.8947 25.1421 24.5067 24.9006 24.2697L24.9005 24.2697C24.659 24.0327 24.2711 24.0363 24.0341 24.2778L24.034 24.278L24.0335 24.2784L24.0319 24.2801L24.0261 24.2858L24.0047 24.3068C23.9862 24.3249 23.9591 24.351 23.9238 24.3841C23.8533 24.4503 23.75 24.5446 23.6165 24.6598C23.3495 24.8903 22.9621 25.2038 22.475 25.5414C21.5507 26.1822 20.2706 26.908 18.7764 27.3202C19.7527 25.7554 20.3177 23.9086 20.3177 21.9324C20.3177 21.5612 20.2972 21.1467 20.2569 20.7005C20.2264 20.3631 19.9279 20.1162 19.592 20.1454L19.5916 20.1454C19.2546 20.1759 19.006 20.4737 19.0365 20.8108C19.0736 21.2217 19.0924 21.5989 19.0924 21.9324C19.0924 26.8858 15.0623 30.9159 10.1089 30.9159C5.15538 30.9158 1.12539 26.8858 1.12539 21.9323C1.12539 19.2203 2.28405 14.6035 3.88427 10.9609C4.85005 8.76266 5.90451 7.03906 6.97199 5.86674C8.04132 4.69239 9.11133 4.08426 10.1088 4.08426C11.016 4.08426 11.8803 4.5668 12.657 5.27058C13.4324 5.97324 14.1089 6.88623 14.6386 7.7232L14.7231 7.66972L14.6386 7.7232C14.8196 8.00914 15.1981 8.09434 15.484 7.91323C15.7699 7.73228 15.855 7.3538 15.6741 7.06787L15.5896 7.12134L15.6741 7.06786C13.9212 4.29815 12.051 2.8588 10.1089 2.8588C8.6732 2.8588 7.26132 3.66042 5.91182 5.208C4.78824 6.49652 3.72926 8.26727 2.76245 10.4679C1.07873 14.3004 -0.1 19.0122 -0.1 21.9323C-0.1 27.5615 4.4796 32.1412 10.1089 32.1412C11.4167 32.1412 12.668 31.8939 13.8184 31.4437C14.9658 31.8664 16.1575 32.0777 17.3474 32.0777C18.7672 32.0777 20.1835 31.7775 21.5174 31.1798C23.5602 30.2649 26.3832 28.2185 28.8881 25.8419L28.8881 25.8419C29.1335 25.609 29.1437 25.2212 28.9108 24.9757Z" fill="#84BE51" stroke="#84BE51" stroke-width="0.2"/>
<path d="M16.7907 9.05417L16.7907 9.05418C17.1295 9.72797 17.4559 10.4483 17.7643 11.1983C21.0195 10.5533 24.6107 10.3187 27.4749 10.5728C31.332 10.9148 33.8716 12.1062 34.7488 14.0641C35.4976 15.7349 34.9594 17.7076 33.9753 19.5415C32.9889 21.38 31.54 23.1063 30.4199 24.302M16.7907 9.05417L30.3469 24.2337M16.7907 9.05417C16.6386 8.75189 16.2705 8.62996 15.968 8.78206L16.7907 9.05417ZM30.4199 24.302L30.3469 24.2337M30.4199 24.302C30.4199 24.302 30.4199 24.302 30.4199 24.302L30.3469 24.2337M30.4199 24.302C30.2993 24.4308 30.1359 24.4959 29.9726 24.4959C29.8226 24.4959 29.672 24.441 29.5538 24.3304L29.5538 24.3304C29.3069 24.099 29.2942 23.7113 29.5256 23.4644M30.3469 24.2337C30.246 24.3414 30.1094 24.3959 29.9726 24.3959C29.847 24.3959 29.7211 24.35 29.6222 24.2574C29.4155 24.0638 29.4049 23.7393 29.5985 23.5327M29.5256 23.4644L29.5985 23.5327M29.5256 23.4644C29.5256 23.4643 29.5256 23.4643 29.5256 23.4643L29.5985 23.5327M29.5256 23.4644C31.2752 21.5965 32.5203 19.8484 33.2175 18.3252C33.916 16.7992 34.057 15.5165 33.6306 14.5651L33.7193 14.5253L33.6306 14.5651C33.2096 13.6255 32.2568 12.9843 31.0906 12.5509C29.9269 12.1185 28.5689 11.8999 27.3667 11.7933C24.6785 11.555 21.3081 11.7658 18.218 12.3581M29.5985 23.5327C33.1064 19.788 34.6093 16.5045 33.7218 14.5242C32.8473 12.5723 29.788 11.9076 27.3756 11.6937C24.6718 11.454 21.2848 11.6669 18.1824 12.2631C18.1943 12.2947 18.2062 12.3264 18.218 12.3581M18.218 12.3581C18.482 13.0673 18.7287 13.7942 18.9538 14.5265M18.218 12.3581C18.1847 12.3644 18.1516 12.3708 18.1184 12.3773C18.3844 13.0908 18.6329 13.8226 18.8594 14.5597C18.8909 14.5485 18.9224 14.5375 18.9538 14.5265M18.9538 14.5265C24.7462 12.5066 28.9921 13.4637 29.1863 13.5096M18.9538 14.5265C18.9636 14.5584 18.9734 14.5903 18.9831 14.6222C24.7542 12.6087 28.9815 13.564 29.1634 13.6069C29.439 13.6719 29.6098 13.9479 29.5449 14.2235M29.1863 13.5096L19.8463 18.5254C19.6711 17.5865 19.4438 16.6153 19.175 15.6418C24.7253 13.6664 28.8868 14.5954 28.9283 14.605C29.2038 14.6701 29.4799 14.4991 29.5449 14.2235M29.1863 13.5096C29.5157 13.5872 29.7198 13.9171 29.6422 14.2465L29.5449 14.2235M29.1863 13.5096C29.1863 13.5096 29.1863 13.5096 29.1864 13.5096L29.1635 13.6062L29.1863 13.5096ZM29.1863 13.5096L19.2961 15.705M29.5449 14.2235L29.6422 14.2465C29.5646 14.5756 29.2348 14.78 28.9056 14.7024L28.9055 14.7024L28.9053 14.7023L28.9047 14.7022L28.9018 14.7015L28.8915 14.6993L28.8532 14.6914C28.8199 14.6847 28.7712 14.6754 28.7077 14.6643C28.5808 14.6421 28.395 14.613 28.1555 14.5845C27.6765 14.5273 26.9832 14.4723 26.1182 14.479C24.4064 14.4923 22.0225 14.7472 19.2961 15.705M19.2961 15.705C19.5548 16.6509 19.7743 17.594 19.9446 18.5071L19.9446 18.5071C20.0066 18.8396 19.7873 19.1596 19.4546 19.2217C19.4546 19.2217 19.4546 19.2217 19.4546 19.2217L19.2961 15.705Z" fill="#84BE51" stroke="#84BE51" stroke-width="0.2"/>
<path d="M20.7373 22.5755C20.8439 22.7925 21.0616 22.9182 21.2876 22.9182C21.3785 22.9182 21.4707 22.8978 21.5575 22.8552C21.5575 22.8552 21.5575 22.8552 21.5575 22.8552L27.5234 19.9232L27.5234 19.9232C27.827 19.774 27.9523 19.4068 27.803 19.1031C27.6538 18.7993 27.2866 18.6741 26.9829 18.8234L26.9829 18.8234L21.017 21.7554L21.017 21.7554C20.7133 21.9046 20.5881 22.2718 20.7373 22.5755ZM20.7373 22.5755L20.8271 22.5314M20.7373 22.5755C20.7373 22.5755 20.7373 22.5755 20.7373 22.5755L20.8271 22.5314M20.8271 22.5314C20.7022 22.2773 20.807 21.97 21.0611 21.8451L21.5134 22.7655C21.4406 22.8012 21.3635 22.8182 21.2876 22.8182C21.0983 22.8182 20.9162 22.7129 20.8271 22.5314Z" fill="#84BE51" stroke="#84BE51" stroke-width="0.2"/>
<path d="M5.24033 25.3978C5.57216 25.3316 5.78758 25.009 5.72141 24.6771C4.67423 19.4246 5.43325 15.2917 6.25301 12.7516C6.69788 11.3731 7.20849 10.3003 7.60885 9.57085C7.80902 9.20614 7.9816 8.92732 8.10456 8.73912C8.16605 8.64502 8.21512 8.57359 8.24903 8.5254C8.26599 8.50131 8.27915 8.48303 8.28818 8.47064L8.29856 8.45649L8.30133 8.45277C8.30201 8.45186 8.30232 8.45146 8.30229 8.45149L8.22269 8.39108L8.30217 8.45165C8.50706 8.1828 8.45551 7.79877 8.18691 7.59347L8.1869 7.59347C7.91804 7.388 7.53353 7.43948 7.32808 7.70816L7.32807 7.70817C7.27205 7.78147 6.05764 9.39142 5.10292 12.3257C4.22727 15.0168 3.41668 19.3839 4.51964 24.9168L4.59857 24.901L4.51964 24.9168C4.57775 25.2082 4.83372 25.4098 5.12004 25.4097C5.15968 25.4097 5.19994 25.4059 5.24033 25.3978ZM5.24033 25.3978L5.22079 25.2998L5.24039 25.3978C5.24037 25.3978 5.24035 25.3978 5.24033 25.3978Z" fill="#84BE51" stroke="#84BE51" stroke-width="0.2"/>
<path d="M15.3956 16.0194L15.3957 16.0194C15.7105 15.8965 16.0656 16.0513 16.189 16.3663L15.3956 16.0194ZM15.3956 16.0194C15.0806 16.1425 14.925 16.4976 15.0478 16.8126L15.0478 16.8127C15.0478 16.8127 15.0478 16.8128 15.0479 16.813L15.0483 16.8142L15.0499 16.8183L15.0557 16.8338C15.0607 16.8473 15.068 16.867 15.0771 16.8927C15.0954 16.9442 15.1215 17.0195 15.1529 17.1165C15.2157 17.3104 15.3 17.5907 15.3868 17.9391C15.5606 18.6361 15.7444 19.6043 15.7884 20.698C15.9042 23.5745 15.0482 25.9167 13.2513 27.6704L13.2512 27.6705M15.3956 16.0194L13.2512 27.6705M13.2512 27.6705C13.0091 27.9068 13.0044 28.2947 13.2407 28.5368L13.2407 28.5368M13.2512 27.6705L13.2407 28.5368M13.2407 28.5368C13.3608 28.6599 13.5201 28.7217 13.6793 28.7217C13.8335 28.7217 13.9881 28.6637 14.1072 28.5474C16.146 26.5577 17.148 23.812 17.0114 20.615C16.9097 18.2315 16.2205 16.4465 16.189 16.3663L13.2407 28.5368Z" fill="#84BE51" stroke="#84BE51" stroke-width="0.2"/>
<path d="M11.8677 11.2581L11.8677 11.2581L11.8669 11.2581C11.5288 11.2701 11.2644 11.554 11.2764 11.8922L11.2764 11.8922L11.5126 18.5356L11.5126 18.5356C11.5244 18.8663 11.7962 19.1265 12.1246 19.1265C12.1322 19.1265 12.1396 19.1264 12.1464 19.1261L12.1466 19.1261C12.4848 19.1141 12.7492 18.8302 12.7372 18.492L12.501 11.8487C12.501 11.8487 12.501 11.8487 12.501 11.8487C12.489 11.5098 12.2051 11.2486 11.8677 11.2581Z" fill="#84BE51" stroke="#84BE51" stroke-width="0.2"/>
<path d="M6.60023 26.8719L6.60026 26.872C6.60025 26.872 6.60033 26.872 6.60052 26.8723L6.60125 26.8731L6.60386 26.8759L6.61326 26.886C6.62134 26.8946 6.63302 26.9069 6.64808 26.9225C6.67822 26.9538 6.72188 26.9981 6.77752 27.0522C6.88884 27.1605 7.04784 27.3078 7.24203 27.4674C7.63163 27.7878 8.15765 28.1537 8.72113 28.3588M6.60023 26.8719L8.9934 29.1097L9.08736 29.1439C9.20313 28.826 9.03907 28.4744 8.72113 28.3588M6.60023 26.8719C6.37339 26.6214 5.98619 26.6017 5.7352 26.8286L6.60023 26.8719ZM8.72113 28.3588L8.68729 28.4518L8.72113 28.3588C8.72113 28.3588 8.72113 28.3588 8.72113 28.3588ZM5.69141 27.6939C5.73973 27.7474 6.87266 28.9901 8.30205 29.5102L5.80224 26.9028C5.59218 27.0926 5.57577 27.4168 5.7656 27.6269L5.69138 27.6939C5.69139 27.6939 5.6914 27.6939 5.69141 27.6939Z" fill="#84BE51" stroke="#84BE51" stroke-width="0.2"/>
<path d="M12.4146 19.9464C12.0762 19.9464 11.8019 20.2206 11.8019 20.5591V20.6056C11.8019 20.9441 12.0762 21.2183 12.4146 21.2183C12.7529 21.2183 13.0272 20.9441 13.0272 20.6056V20.5591C13.0272 20.2206 12.7529 19.9464 12.4146 19.9464Z" fill="#84BE51" stroke="#84BE51" stroke-width="0.2"/>
<path d="M11.1509 21.2972C10.8125 21.2972 10.5382 21.5715 10.5382 21.9099V21.9565C10.5382 22.2949 10.8125 22.5692 11.1509 22.5692C11.4892 22.5692 11.7636 22.2949 11.7636 21.9565V21.9099C11.7636 21.5716 11.4893 21.2972 11.1509 21.2972Z" fill="#84BE51" stroke="#84BE51" stroke-width="0.2"/>
<path d="M12.7822 23.5936C12.4439 23.5936 12.1695 23.8678 12.1695 24.2063V24.2528C12.1695 24.5912 12.4439 24.8655 12.7822 24.8655C13.1206 24.8655 13.3949 24.5913 13.3949 24.2528V24.2063C13.3949 23.8678 13.1206 23.5936 12.7822 23.5936Z" fill="#84BE51" stroke="#84BE51" stroke-width="0.2"/>
</g>
<defs>
<clipPath id="clip0_14_30">
<rect width="35" height="35" fill="white"/>
</clipPath>
</defs>
</svg>
