<svg width="35" height="35" viewBox="0 0 35 35" fill="none" xmlns="http://www.w3.org/2000/svg">
<g id="seeds 1" clip-path="url(#clip0_14_30)">
<g id="Group">
<g id="Group_2">
<path id="Vector" d="M28.9108 24.9757L28.9108 24.9757C28.6778 24.7302 28.2901 24.72 28.0446 24.953C25.663 27.2127 22.9027 29.2169 21.0163 30.0615L21.0163 30.0615C19.2388 30.8581 17.2962 31.0536 15.429 30.6422C16.2578 30.134 17.0088 29.5111 17.6598 28.7955C21.8101 28.2517 24.7821 25.2651 24.9086 25.1361L24.8373 25.0661L24.9087 25.1361C25.1456 24.8947 25.1421 24.5067 24.9006 24.2697L24.9005 24.2697C24.659 24.0327 24.2711 24.0363 24.0341 24.2778L24.034 24.278L24.0335 24.2784L24.0319 24.2801L24.0261 24.2858L24.0047 24.3068C23.9862 24.3249 23.9591 24.351 23.9238 24.3841C23.8533 24.4503 23.75 24.5446 23.6165 24.6598C23.3495 24.8903 22.9621 25.2038 22.475 25.5414C21.5507 26.1822 20.2706 26.908 18.7764 27.3202C19.7527 25.7554 20.3177 23.9086 20.3177 21.9324C20.3177 21.5612 20.2972 21.1467 20.2569 20.7005L20.2569 20.7005C20.2264 20.3631 19.9279 20.1162 19.592 20.1454L19.5916 20.1454C19.2546 20.1759 19.006 20.4737 19.0365 20.8108C19.0736 21.2217 19.0924 21.5989 19.0924 21.9324C19.0924 26.8858 15.0623 30.9159 10.1089 30.9159C5.15538 30.9158 1.12539 26.8858 1.12539 21.9323C1.12539 19.2203 2.28405 14.6035 3.88427 10.9609C4.85005 8.76266 5.90451 7.03906 6.97199 5.86674C8.04132 4.69239 9.11133 4.08426 10.1088 4.08426C11.016 4.08426 11.8803 4.5668 12.657 5.27058C13.4324 5.97324 14.1089 6.88623 14.6386 7.7232L14.7231 7.66972L14.6386 7.7232C14.8196 8.00916 15.1982 8.09435 15.484 7.91319C15.7699 7.73223 15.855 7.35378 15.6741 7.06787C13.9212 4.29815 12.051 2.8588 10.1089 2.8588C8.6732 2.8588 7.26132 3.66042 5.91182 5.208C4.78824 6.49652 3.72926 8.26727 2.76245 10.4679C1.07873 14.3004 -0.1 19.0122 -0.1 21.9323C-0.1 27.5615 4.4796 32.1412 10.1089 32.1412C11.4167 32.1412 12.668 31.8939 13.8184 31.4437C14.9658 31.8664 16.1575 32.0777 17.3474 32.0777C18.7672 32.0777 20.1835 31.7775 21.5173 31.1798C23.5602 30.265 26.3832 28.2185 28.8881 25.8419L28.8881 25.8419C29.1335 25.609 29.1437 25.2212 28.9108 24.9757Z" fill="#84BE51" stroke="#84BE51" stroke-width="0.2"/>
</g>
</g>
<g id="Group_3">
<g id="Group_4">
<path id="Vector_2" d="M16.7907 9.05417L16.7907 9.05418C17.1295 9.72797 17.4559 10.4483 17.7643 11.1983C21.0195 10.5533 24.6107 10.3187 27.4749 10.5728C31.332 10.9148 33.8716 12.1062 34.7488 14.0641C35.4976 15.7349 34.9594 17.7076 33.9753 19.5415C32.9889 21.38 31.54 23.1063 30.4199 24.302M16.7907 9.05417L19.4362 19.1234M16.7907 9.05417C16.6386 8.75189 16.2705 8.62996 15.968 8.78206L16.7907 9.05417ZM30.4199 24.302L30.3469 24.2337L30.4199 24.302C30.4199 24.302 30.4199 24.302 30.4199 24.302ZM30.4199 24.302C30.2993 24.4308 30.1359 24.4959 29.9726 24.4959C29.8226 24.4959 29.672 24.441 29.5538 24.3304L29.5538 24.3304C29.3069 24.099 29.2942 23.7112 29.5256 23.4643C31.2752 21.5965 32.5203 19.8484 33.2175 18.3252C33.916 16.7992 34.057 15.5165 33.6306 14.5651L33.7218 14.5242L33.6306 14.5651C33.2096 13.6255 32.2568 12.9843 31.0906 12.5509C29.9269 12.1185 28.5689 11.8999 27.3667 11.7933C24.6785 11.555 21.3081 11.7658 18.218 12.3581C18.482 13.0673 18.7287 13.7942 18.9538 14.5265C24.7462 12.5066 28.9921 13.4637 29.1863 13.5096C29.5157 13.5872 29.7198 13.9171 29.6422 14.2465C29.5646 14.5756 29.2349 14.78 28.9056 14.7024L28.9055 14.7024L28.9053 14.7023L28.9047 14.7022L28.9018 14.7015L28.8915 14.6993L28.8532 14.6914C28.8199 14.6847 28.7712 14.6754 28.7077 14.6643C28.5808 14.6421 28.395 14.613 28.1555 14.5845C27.6765 14.5273 26.9832 14.4723 26.1182 14.479C24.4064 14.4923 22.0225 14.7472 19.2961 15.705C19.5548 16.6509 19.7743 17.594 19.9446 18.5071L19.9446 18.5071C20.0066 18.8396 19.7872 19.1596 19.4546 19.2217M19.4546 19.2217L19.4362 19.1234M19.4546 19.2217C19.4546 19.2217 19.4546 19.2217 19.4546 19.2217L19.4362 19.1234M19.4546 19.2217C19.4166 19.2288 19.3788 19.2322 19.3416 19.2322C19.0522 19.2322 18.7949 19.0265 18.7399 18.7317L18.8382 18.7134M19.4362 19.1234C19.4045 19.1293 19.3728 19.1322 19.3416 19.1322C19.0995 19.1322 18.8842 18.96 18.8382 18.7134M18.8382 18.7134L18.7399 18.7317C18.1691 15.6719 17.0307 12.2589 15.6959 9.60465C15.5439 9.3024 15.6657 8.93404 15.968 8.78207L18.8382 18.7134Z" fill="#84BE51" stroke="#84BE51" stroke-width="0.2"/>
</g>
</g>
<g id="Group_5">
<g id="Group_6">
<path id="Vector_3" d="M26.9829 18.8234L26.9829 18.8234C27.2866 18.6741 27.6538 18.7993 27.803 19.1031C27.803 19.1031 27.803 19.1031 27.803 19.1031L27.7133 19.1472C27.8382 19.4013 27.7334 19.7086 27.4793 19.8335L26.9829 18.8234ZM26.9829 18.8234L21.017 21.7554L21.017 21.7554C20.7133 21.9046 20.5881 22.2718 20.7373 22.5755M26.9829 18.8234L20.7373 22.5755M20.7373 22.5755C20.7373 22.5755 20.7373 22.5755 20.7373 22.5755L20.8271 22.5314L20.7373 22.5755Z" fill="#84BE51" stroke="#84BE51" stroke-width="0.2"/>
</g>
</g>
<g id="Group_7">
<g id="Group_8">
<path id="Vector_4" d="M8.1869 7.59347L8.18691 7.59347C8.45546 7.79873 8.50704 8.18265 8.30229 8.4515M8.1869 7.59347L5.24038 25.3978M8.1869 7.59347C7.91804 7.388 7.53353 7.43948 7.32808 7.70816L7.32807 7.70817M8.1869 7.59347L7.32807 7.70817M8.30229 8.4515C8.30225 8.45155 8.30221 8.4516 8.30217 8.45165L8.22264 8.39104L8.30229 8.45149L8.30229 8.4515ZM8.30229 8.4515L8.30228 8.45152C8.3022 8.45162 8.30189 8.45202 8.30133 8.45277L8.29856 8.45649L8.28818 8.47064C8.27915 8.48303 8.26599 8.50131 8.24903 8.5254C8.21512 8.57359 8.16605 8.64502 8.10456 8.73912C7.9816 8.92732 7.80902 9.20614 7.60885 9.57085C7.20849 10.3003 6.69788 11.3731 6.25301 12.7516C5.43325 15.2917 4.67423 19.4246 5.72141 24.6771C5.78758 25.0089 5.57218 25.3316 5.24038 25.3978M5.24038 25.3978C5.19997 25.4059 5.1597 25.4097 5.12004 25.4097M5.24038 25.3978L5.12004 25.4097M7.32807 7.70817C7.27205 7.78147 6.05764 9.39142 5.10292 12.3257C4.22727 15.0168 3.41668 19.3839 4.51964 24.9168L4.61763 24.8972M7.32807 7.70817L4.61763 24.8972M4.61763 24.8972L4.51964 24.9168C4.57775 25.2082 4.83372 25.4098 5.12004 25.4097M4.61763 24.8972L5.12004 25.4097" fill="#84BE51" stroke="#84BE51" stroke-width="0.2"/>
</g>
</g>
<g id="Group_9">
<g id="Group_10">
<path id="Vector_5" d="M16.189 16.3663C16.0656 16.0513 15.7105 15.8965 15.3957 16.0194L15.3956 16.0194C15.0806 16.1425 14.925 16.4976 15.0478 16.8126C15.0478 16.8127 15.0478 16.8127 15.0478 16.8127C15.0478 16.8128 15.0478 16.8129 15.0479 16.813L15.0483 16.8142L15.0499 16.8183L15.0557 16.8338C15.0607 16.8473 15.068 16.867 15.0771 16.8927C15.0954 16.9442 15.1215 17.0195 15.1529 17.1165C15.2157 17.3104 15.3 17.5907 15.3868 17.9391C15.5606 18.6361 15.7444 19.6043 15.7884 20.698C15.9042 23.5745 15.0482 25.9167 13.2513 27.6704L13.2512 27.6705C13.0091 27.9068 13.0044 28.2947 13.2407 28.5368L13.2407 28.5368C13.3608 28.6599 13.5201 28.7217 13.6793 28.7217C13.8335 28.7217 13.9881 28.6637 14.1072 28.5474C16.146 26.5577 17.148 23.812 17.0114 20.615C16.9097 18.2315 16.2205 16.4465 16.189 16.3663ZM16.189 16.3663L16.0959 16.4028L16.189 16.3662C16.189 16.3663 16.189 16.3663 16.189 16.3663Z" fill="#84BE51" stroke="#84BE51" stroke-width="0.2"/>
</g>
</g>
<g id="Group_11">
<g id="Group_12">
<path id="Vector_6" d="M11.8677 11.2581L11.8677 11.2581C12.2051 11.2486 12.489 11.5098 12.501 11.8487M11.8677 11.2581L12.501 11.8487M11.8677 11.2581L11.8669 11.2581M11.8677 11.2581L11.8669 11.2581M12.501 11.8487L12.7372 18.492M12.501 11.8487L12.7372 18.492M11.8669 11.2581C11.5288 11.2701 11.2644 11.554 11.2764 11.8922L11.2764 11.8922M11.8669 11.2581L11.2764 11.8922M11.2764 11.8922L11.5126 18.5356L11.5126 18.5356M11.2764 11.8922L11.5126 18.5356M11.5126 18.5356C11.5244 18.8663 11.7962 19.1265 12.1246 19.1265C12.1322 19.1265 12.1396 19.1264 12.1464 19.1261L12.1466 19.1261M11.5126 18.5356L12.1466 19.1261M12.1466 19.1261C12.4848 19.1141 12.7492 18.8302 12.7372 18.492L12.7372 18.492M12.1466 19.1261L12.7372 18.492" fill="#84BE51" stroke="#84BE51" stroke-width="0.2"/>
</g>
</g>
<g id="Group_13">
<g id="Group_14">
<path id="Vector_7" d="M5.69138 27.6939C5.73919 27.7469 6.87236 28.9901 8.30214 29.5102C8.37124 29.5354 8.44196 29.5473 8.5116 29.5473C8.76175 29.5473 8.99679 29.3929 9.08736 29.1439C9.20313 28.826 9.03907 28.4744 8.72113 28.3588C8.15765 28.1537 7.63163 27.7878 7.24203 27.4674C7.04784 27.3078 6.88884 27.1605 6.77752 27.0522C6.72188 26.9981 6.67822 26.9538 6.64808 26.9225C6.63302 26.9069 6.62134 26.8946 6.61326 26.886L6.60386 26.8759L6.60125 26.8731L6.60052 26.8723C6.60036 26.8721 6.60029 26.872 6.60027 26.872L6.60026 26.872L6.60023 26.8719L5.7352 26.8286L5.80224 26.9028L5.73518 26.8286C5.48416 27.0554 5.46455 27.4429 5.69138 27.6939ZM5.69138 27.6939L5.7656 27.6269L5.69141 27.6939C5.6914 27.6939 5.69139 27.6939 5.69138 27.6939Z" fill="#84BE51" stroke="#84BE51" stroke-width="0.2"/>
</g>
</g>
<g id="Group_15">
<g id="Group_16">
<path id="Vector_8" d="M12.4146 19.9464C12.0762 19.9464 11.8019 20.2206 11.8019 20.5591V20.6056C11.8019 20.9441 12.0762 21.2183 12.4146 21.2183C12.7529 21.2183 13.0272 20.9441 13.0272 20.6056V20.5591C13.0272 20.2206 12.7529 19.9464 12.4146 19.9464Z" fill="#84BE51" stroke="#84BE51" stroke-width="0.2"/>
</g>
</g>
<g id="Group_17">
<g id="Group_18">
<path id="Vector_9" d="M11.1509 21.2972C10.8125 21.2972 10.5382 21.5715 10.5382 21.9099V21.9565C10.5382 22.2949 10.8125 22.5692 11.1509 22.5692C11.4892 22.5692 11.7636 22.2949 11.7636 21.9565V21.9099C11.7636 21.5716 11.4893 21.2972 11.1509 21.2972Z" fill="#84BE51" stroke="#84BE51" stroke-width="0.2"/>
</g>
</g>
<g id="Group_19">
<g id="Group_20">
<path id="Vector_10" d="M12.7822 23.5936C12.4439 23.5936 12.1695 23.8678 12.1695 24.2063V24.2528C12.1695 24.5912 12.4439 24.8655 12.7822 24.8655C13.1206 24.8655 13.3949 24.5913 13.3949 24.2528V24.2063C13.3949 23.8678 13.1206 23.5936 12.7822 23.5936Z" fill="#84BE51" stroke="#84BE51" stroke-width="0.2"/>
</g>
</g>
</g>
<defs>
<clipPath id="clip0_14_30">
<rect width="35" height="35" fill="white"/>
</clipPath>
</defs>
</svg>
