<svg width="40" height="40" viewBox="0 0 40 40" fill="none" xmlns="http://www.w3.org/2000/svg">
<g clip-path="url(#clip0_25_1205)">
<path d="M27.9077 15.3429C27.8161 15.2116 27.6687 15.1305 27.5086 15.1236L17.5837 14.6958C17.2989 14.6833 17.0609 14.9032 17.0488 15.1866C17.0367 15.47 17.2561 15.7094 17.5395 15.7215L26.7926 16.1204L24.9732 21.7969H16.877L15.4142 13.8325C15.3821 13.658 15.2623 13.5124 15.097 13.4475L12.7013 12.5063C12.4373 12.403 12.1393 12.5327 12.0356 12.7964C11.9321 13.0602 12.0618 13.3583 12.3257 13.462L14.4558 14.2989L15.9443 22.403C15.9892 22.6466 16.2015 22.8236 16.4493 22.8236H16.6962L16.1324 24.3897C16.0852 24.5209 16.1047 24.6666 16.185 24.7806C16.2652 24.8946 16.3956 24.9624 16.5349 24.9624H16.9303C16.6853 25.2351 16.5349 25.5942 16.5349 25.9891C16.5349 26.8384 17.2259 27.5292 18.075 27.5292C18.924 27.5292 19.615 26.8384 19.615 25.9891C19.615 25.5943 19.4646 25.2351 19.2196 24.9624H22.5774C22.3322 25.2351 22.1818 25.5942 22.1818 25.9891C22.1818 26.8384 22.8727 27.5292 23.7219 27.5292C24.5712 27.5292 25.262 26.8384 25.262 25.9891C25.262 25.5943 25.1116 25.2351 24.8666 24.9624H25.3476C25.5839 24.9624 25.7754 24.7709 25.7754 24.5346C25.7754 24.2983 25.5839 24.1068 25.3476 24.1068H17.1436L17.6055 22.8234H25.3475C25.5708 22.8234 25.7683 22.6792 25.8363 22.4668L27.9753 15.793C28.0245 15.6407 27.9993 15.4742 27.9077 15.3429ZM18.075 26.6738C17.6975 26.6738 17.3905 26.3668 17.3905 25.9893C17.3905 25.6118 17.6975 25.3048 18.075 25.3048C18.4525 25.3048 18.7595 25.6118 18.7595 25.9893C18.7595 26.3668 18.4525 26.6738 18.075 26.6738ZM23.7219 26.6738C23.3444 26.6738 23.0374 26.3668 23.0374 25.9893C23.0374 25.6118 23.3444 25.3048 23.7219 25.3048C24.0994 25.3048 24.4064 25.6118 24.4064 25.9893C24.4064 26.3668 24.0994 26.6738 23.7219 26.6738Z" fill="#8C3213"/>
</g>
<circle cx="20" cy="20" r="19.5" stroke="#8C3213"/>
<defs>
<clipPath id="clip0_25_1205">
<rect width="16" height="16" fill="white" transform="translate(12 12)"/>
</clipPath>
</defs>
</svg>
