<svg width="50" height="50" viewBox="0 0 50 50" fill="none" xmlns="http://www.w3.org/2000/svg">
<path d="M39.6425 6.55093H35.1191V4.52731C35.1191 3.87259 34.4049 3.57502 33.7502 3.57502H30.2386C29.4053 1.19424 27.3221 0.00385378 24.9414 0.00385378C22.5868 -0.0846649 20.4451 1.35909 19.6441 3.57502H16.192C15.5373 3.57502 14.8826 3.87259 14.8826 4.52731V6.55093H10.359C7.6784 6.57952 5.48537 8.69417 5.35938 11.3719V45.4765C5.35938 48.0953 7.74015 49.9999 10.359 49.9999H39.6425C42.2614 49.9999 44.6422 48.0953 44.6422 45.4765V11.3721C44.5162 8.69417 42.3231 6.57952 39.6425 6.55093ZM17.2632 5.95579H20.5368C21.1083 5.88607 21.5673 5.45134 21.6678 4.88446C22.0202 3.34945 23.3669 2.24758 24.9414 2.20611C26.5012 2.25339 27.8276 3.35868 28.1554 4.88446C28.2621 5.47093 28.7514 5.91125 29.3458 5.95579H32.7384V10.7173H17.2632V5.95579ZM42.2614 45.4766C42.2614 46.786 40.9519 47.6193 39.6425 47.6193H10.359C9.04959 47.6193 7.74015 46.786 7.74015 45.4766V11.3721C7.86159 10.0091 8.9908 8.95677 10.359 8.93182H14.8825V11.9673C14.9454 12.6342 15.523 13.1331 16.1919 13.0982H33.75C34.4313 13.1355 35.027 12.6435 35.1189 11.9673V8.93171H39.6424C41.0105 8.95677 42.1398 10.009 42.2613 11.3719V45.4766H42.2614Z" fill="#84C551"/>
<path d="M20.4195 26.6089C19.973 26.1383 19.2318 26.1117 18.7529 26.5494L14.9436 30.1801L13.3366 28.5135C12.8901 28.0429 12.1489 28.0164 11.67 28.454C11.209 28.937 11.209 29.697 11.67 30.1801L14.1103 32.6799C14.3215 32.9164 14.6266 33.0472 14.9435 33.037C15.2575 33.0326 15.557 32.9042 15.7767 32.6799L20.4192 28.2755C20.8795 27.8533 20.9102 27.1379 20.4879 26.6777C20.4663 26.6537 20.4434 26.6308 20.4195 26.6089Z" fill="#84C551"/>
<path d="M37.5009 29.1682H23.8115C23.154 29.1682 22.6211 29.7011 22.6211 30.3586C22.6211 31.016 23.154 31.549 23.8115 31.549H37.5009C38.1583 31.549 38.6913 31.016 38.6913 30.3586C38.6913 29.7011 38.1583 29.1682 37.5009 29.1682Z" fill="#84C551"/>
<path d="M20.4195 17.086C19.973 16.6153 19.2318 16.5888 18.7529 17.0265L14.9436 20.6571L13.3366 18.9905C12.8901 18.5199 12.1489 18.4934 11.67 18.9311C11.209 19.4141 11.209 20.1741 11.67 20.6571L14.1103 23.157C14.3215 23.3935 14.6266 23.5243 14.9435 23.5141C15.2575 23.5097 15.557 23.3813 15.7767 23.157L20.4192 18.7526C20.8795 18.3304 20.9102 17.6149 20.4879 17.1548C20.4663 17.1307 20.4434 17.1078 20.4195 17.086Z" fill="#84C551"/>
<path d="M37.5009 19.6453H23.8115C23.154 19.6453 22.6211 20.1782 22.6211 20.8356C22.6211 21.4931 23.154 22.026 23.8115 22.026H37.5009C38.1583 22.026 38.6913 21.4931 38.6913 20.8356C38.6913 20.1782 38.1583 19.6453 37.5009 19.6453Z" fill="#84C551"/>
<path d="M20.4195 36.1318C19.973 35.6612 19.2318 35.6348 18.7529 36.0723L14.9436 39.703L13.3366 38.0364C12.8901 37.5658 12.1489 37.5393 11.67 37.9769C11.209 38.46 11.209 39.2199 11.67 39.703L14.1103 42.2028C14.3215 42.4393 14.6266 42.5701 14.9435 42.56C15.2575 42.5555 15.557 42.4271 15.7767 42.2028L20.4192 37.7984C20.8795 37.3762 20.9102 36.6608 20.4879 36.2006C20.4663 36.1767 20.4434 36.1538 20.4195 36.1318Z" fill="#84C551"/>
<path d="M37.5009 38.6914H23.8115C23.154 38.6914 22.6211 39.2244 22.6211 39.8818C22.6211 40.5393 23.154 41.0723 23.8115 41.0723H37.5009C38.1583 41.0723 38.6913 40.5393 38.6913 39.8818C38.6913 39.2244 38.1583 38.6914 37.5009 38.6914Z" fill="#84C551"/>
</svg>
