<svg width="50" height="50" viewBox="0 0 50 50" fill="none" xmlns="http://www.w3.org/2000/svg">
<g id="personal-information 2">
<g id="Group">
<path id="Vector" d="M30.127 50H5.22461C4.01299 50 3.02734 49.0143 3.02734 47.8027V11.1523C3.02734 9.94082 4.01299 8.95508 5.22461 8.95508H9.43457C9.83906 8.95508 10.167 9.28291 10.167 9.6875C10.167 10.0921 9.83906 10.4199 9.43457 10.4199H5.22461C4.8207 10.4199 4.49219 10.7484 4.49219 11.1523V47.8027C4.49219 48.2066 4.8207 48.5352 5.22461 48.5352H30.127C30.5309 48.5352 30.8594 48.2066 30.8594 47.8027V30.7617H14.0137C12.8021 30.7617 11.8164 29.776 11.8164 28.5645V2.19727C11.8164 0.985742 12.8021 0 14.0137 0H35.9863C37.1979 0 38.1836 0.985742 38.1836 2.19727V9.52148C38.1836 9.92607 37.8557 10.2539 37.4512 10.2539C37.0467 10.2539 36.7188 9.92607 36.7188 9.52148V2.19727C36.7188 1.79336 36.3902 1.46484 35.9863 1.46484H14.0137C13.6098 1.46484 13.2812 1.79336 13.2812 2.19727V28.5645C13.2812 28.9684 13.6098 29.2969 14.0137 29.2969H35.9863C36.3902 29.2969 36.7188 28.9684 36.7188 28.5645V12.4512C36.7188 12.0466 37.0467 11.7188 37.4512 11.7188H41.8457C42.2502 11.7188 42.5781 12.0466 42.5781 12.4512C42.5781 12.8558 42.2502 13.1836 41.8457 13.1836H38.1836V16.1133H41.8457C42.2502 16.1133 42.5781 16.4411 42.5781 16.8457C42.5781 17.2503 42.2502 17.5781 41.8457 17.5781H38.1836V20.5078H41.8457C42.2502 20.5078 42.5781 20.8356 42.5781 21.2402C42.5781 21.6448 42.2502 21.9727 41.8457 21.9727H38.1836V24.9023H41.8457C42.2502 24.9023 42.5781 25.2302 42.5781 25.6348C42.5781 26.0394 42.2502 26.3672 41.8457 26.3672H38.1836V28.5645C38.1836 28.8211 38.1394 29.0677 38.0581 29.2969H41.8457C42.2502 29.2969 42.5781 29.6247 42.5781 30.0293C42.5781 30.4339 42.2502 30.7617 41.8457 30.7617H32.3242V33.6914H41.8457C42.2502 33.6914 42.5781 34.0192 42.5781 34.4238C42.5781 34.8284 42.2502 35.1562 41.8457 35.1562H32.3242V39.7461H44.7754C45.1793 39.7461 45.5078 39.4176 45.5078 39.0137V6.75781C45.5078 6.35391 45.1793 6.02539 44.7754 6.02539H40.3809C39.9764 6.02539 39.6484 5.69756 39.6484 5.29297C39.6484 4.88838 39.9764 4.56055 40.3809 4.56055H44.7754C45.987 4.56055 46.9727 5.54629 46.9727 6.75781V39.0137C46.9727 40.2252 45.987 41.2109 44.7754 41.2109H32.3242V45.6055H40.3809C40.7848 45.6055 41.1133 45.277 41.1133 44.873V43.4082C41.1133 43.0036 41.4412 42.6758 41.8457 42.6758C42.2502 42.6758 42.5781 43.0036 42.5781 43.4082V44.873C42.5781 46.0846 41.5925 47.0703 40.3809 47.0703H32.3242V47.8027C32.3242 49.0143 31.3386 50 30.127 50ZM34.5215 27.832H15.4785C15.074 27.832 14.7461 27.5042 14.7461 27.0996V24.5553C14.7461 20.7917 17.2344 19.9306 19.0513 19.3018C20.5508 18.7828 21.4022 18.4332 21.5523 17.3054C19.9359 16.2011 18.8729 14.3438 18.8729 12.2428V9.22266C18.8729 5.84424 21.6216 3.0957 25 3.0957C28.3784 3.0957 31.1271 5.84434 31.1271 9.22266V12.2428C31.1271 14.3438 30.0642 16.2011 28.4477 17.3054C28.5978 18.4333 29.4492 18.7828 30.9487 19.3018C32.7656 19.9306 35.2539 20.7917 35.2539 24.5553V27.0996C35.2539 27.5042 34.926 27.832 34.5215 27.832ZM16.2109 26.3672H33.7891V24.5553C33.7891 21.8349 32.2508 21.3024 30.4696 20.686C29.1542 20.2309 27.5684 19.6818 27.0972 18C26.4426 18.2393 25.7363 18.3697 25 18.3697C24.2637 18.3697 23.5574 18.2393 22.9028 18C22.4316 19.6818 20.8458 20.2309 19.5304 20.686C17.7492 21.3025 16.2109 21.8349 16.2109 24.5553V26.3672ZM25 4.56055C22.4293 4.56055 20.3378 6.65195 20.3378 9.22266V12.2428C20.3378 14.8135 22.4293 16.9049 25 16.9049C27.5707 16.9049 29.6622 14.8135 29.6622 12.2428V9.22266C29.6622 6.65195 27.5707 4.56055 25 4.56055Z" fill="#84C551"/>
</g>
</g>
</svg>
