<svg width="50" height="50" viewBox="0 0 50 50" fill="none" xmlns="http://www.w3.org/2000/svg">
<g id="history 2">
<g id="XMLID_91_">
<g id="XMLID_252_">
<g id="XMLID_144_">
<path id="XMLID_963_" d="M34.725 31.3487C33.7809 31.3487 33.0156 30.5834 33.0156 29.6393V28.8993C33.0156 27.9552 33.7809 27.1899 34.725 27.1899C35.6692 27.1899 36.4344 27.9552 36.4344 28.8993V29.6393C36.4344 30.5834 35.6692 31.3487 34.725 31.3487Z" fill="#84C551"/>
</g>
<g id="XMLID_349_">
<g id="XMLID_348_">
<g id="XMLID_250_">
<path id="XMLID_960_" d="M26.9948 34.1266H12.8578C11.9137 34.1266 11.1484 33.3613 11.1484 32.4172C11.1484 31.473 11.9137 30.7078 12.8578 30.7078H26.9948C27.9389 30.7078 28.7042 31.473 28.7042 32.4172C28.7042 33.3613 27.9389 34.1266 26.9948 34.1266Z" fill="#84C551"/>
</g>
<g id="XMLID_249_">
<path id="XMLID_958_" d="M26.9948 42.1234H12.8578C11.9137 42.1234 11.1484 41.3581 11.1484 40.414C11.1484 39.4699 11.9137 38.7046 12.8578 38.7046H26.9948C27.9389 38.7046 28.7042 39.4699 28.7042 40.414C28.7042 41.3581 27.9389 42.1234 26.9948 42.1234Z" fill="#84C551"/>
</g>
</g>
</g>
</g>
<g id="XMLID_234_">
<path id="XMLID_942_" d="M11.1494 24.5269C11.1494 25.471 11.9147 26.2363 12.8588 26.2363H26.9957C27.6713 26.2363 28.2535 25.8435 28.5311 25.2747C30.0524 25.8922 31.7143 26.2332 33.4548 26.2332C40.6922 26.2332 46.5802 20.3491 46.5802 13.1166C46.5803 5.88408 40.6923 0 33.4549 0C28.4492 0 24.0896 2.81517 21.8766 6.94401H6.6231C4.85579 6.94401 3.41797 8.38183 3.41797 10.1491V46.7948C3.41797 48.5621 4.85579 50 6.6231 50H33.2315C34.9988 50 36.4366 48.5621 36.4366 46.7948V34.7291C36.4366 33.785 35.6714 33.0197 34.7272 33.0197C33.7831 33.0197 33.0178 33.785 33.0178 34.7291V46.5812H6.83677V10.3628H20.6214C20.3076 11.8245 20.2468 13.3383 20.4401 14.8207H12.8588C11.9147 14.8207 11.1494 15.586 11.1494 16.5301C11.1494 17.4742 11.9147 18.2395 12.8588 18.2395H21.3722C22.1197 19.9934 23.2385 21.5524 24.6297 22.8176H12.8588C11.9147 22.8175 11.1494 23.5828 11.1494 24.5269ZM23.7482 13.1166C23.7482 7.76923 28.1026 3.4188 33.4549 3.4188C38.8073 3.4188 43.1615 7.76923 43.1615 13.1166C43.1615 18.4639 38.8072 22.8144 33.4549 22.8144C28.1027 22.8144 23.7482 18.464 23.7482 13.1166Z" fill="#84C551"/>
<g id="XMLID_637_">
<path id="XMLID_949_" d="M37.1485 16.6851C36.8901 16.6851 36.6281 16.6263 36.3815 16.5023L32.6872 14.6436C32.1103 14.3533 31.7461 13.7626 31.7461 13.1166V6.05925C31.7461 5.11513 32.5114 4.34985 33.4555 4.34985C34.3996 4.34985 35.1649 5.11513 35.1649 6.05925V12.063L37.9181 13.4482C39.4851 14.2367 38.9086 16.6848 37.1485 16.6851C37.7739 16.685 36.8901 16.6851 37.1485 16.6851Z" fill="#84C551"/>
</g>
</g>
</g>
</g>
</svg>
