<svg width="50" height="50" viewBox="0 0 50 50" fill="none" xmlns="http://www.w3.org/2000/svg">
<g id="unlock 2">
<g id="13-Unlock">
<path id="Vector" d="M35.9375 18.75H17.1875V13.6094C17.1875 11.6575 17.9629 9.78566 19.343 8.40551C20.7232 7.02536 22.595 6.25 24.5469 6.25H25.4531C27.405 6.25 29.2768 7.02536 30.657 8.40551C32.0371 9.78566 32.8125 11.6575 32.8125 13.6094C32.8125 14.0238 32.9771 14.4212 33.2701 14.7142C33.5632 15.0073 33.9606 15.1719 34.375 15.1719C34.7894 15.1719 35.1868 15.0073 35.4799 14.7142C35.7729 14.4212 35.9375 14.0238 35.9375 13.6094C35.9334 10.83 34.8274 8.16567 32.8621 6.20037C30.8968 4.23506 28.2325 3.12913 25.4531 3.125H24.5469C21.7675 3.12913 19.1032 4.23506 17.1379 6.20037C15.1726 8.16567 14.0666 10.83 14.0625 13.6094V18.75C12.8193 18.75 11.627 19.2439 10.7479 20.1229C9.86886 21.002 9.375 22.1943 9.375 23.4375V37.9688C9.37913 40.3296 10.3188 42.5925 11.9881 44.2619C13.6575 45.9312 15.9204 46.8709 18.2812 46.875H31.7187C34.0796 46.8709 36.3425 45.9312 38.0119 44.2619C39.6812 42.5925 40.6209 40.3296 40.625 37.9688V23.4375C40.625 22.1943 40.1311 21.002 39.2521 20.1229C38.373 19.2439 37.1807 18.75 35.9375 18.75ZM37.5 37.9688C37.5 39.502 36.8909 40.9725 35.8067 42.0567C34.7225 43.1409 33.252 43.75 31.7187 43.75H18.2812C16.748 43.75 15.2775 43.1409 14.1933 42.0567C13.1091 40.9725 12.5 39.502 12.5 37.9688V23.4375C12.5 23.0231 12.6646 22.6257 12.9576 22.3326C13.2507 22.0396 13.6481 21.875 14.0625 21.875H35.9375C36.3519 21.875 36.7493 22.0396 37.0424 22.3326C37.3354 22.6257 37.5 23.0231 37.5 23.4375V37.9688ZM26.5625 32.375V37.5C26.5625 37.9144 26.3979 38.3118 26.1049 38.6049C25.8118 38.8979 25.4144 39.0625 25 39.0625C24.5856 39.0625 24.1882 38.8979 23.8951 38.6049C23.6021 38.3118 23.4375 37.9144 23.4375 37.5V32.375C22.8417 32.031 22.3761 31.5001 22.1129 30.8646C21.8496 30.229 21.8034 29.5243 21.9815 28.8599C22.1595 28.1954 22.5519 27.6082 23.0976 27.1894C23.6434 26.7707 24.3121 26.5437 25 26.5437C25.6879 26.5437 26.3566 26.7707 26.9024 27.1894C27.4481 27.6082 27.8405 28.1954 28.0185 28.8599C28.1966 29.5243 28.1504 30.229 27.8871 30.8646C27.6239 31.5001 27.1583 32.031 26.5625 32.375Z" fill="#84C551"/>
</g>
</g>
</svg>
